<?xml version="1.0" encoding="UTF-8" standalone="no"?>
<!-- Created with Inkscape (http://www.inkscape.org/) -->

<svg
   xmlns:dc="http://purl.org/dc/elements/1.1/"
   xmlns:cc="http://creativecommons.org/ns#"
   xmlns:rdf="http://www.w3.org/1999/02/22-rdf-syntax-ns#"
   xmlns:svg="http://www.w3.org/2000/svg"
   xmlns="http://www.w3.org/2000/svg"
   xmlns:sodipodi="http://sodipodi.sourceforge.net/DTD/sodipodi-0.dtd"
   xmlns:inkscape="http://www.inkscape.org/namespaces/inkscape"
   width="61mm"
   height="53mm"
   viewBox="0 0 61 53"
   version="1.1"
   id="svg8"
   inkscape:version="0.92.2 (5c3e80d, 2017-08-06)"
   sodipodi:docname="block_factory_front.svg">
  <defs
     id="defs2">
    <style
       id="style10"
       type="text/css"><![CDATA[
    .fil3 {fill:#3D5F78}
    .fil4 {fill:#3E5E78}
    .fil1 {fill:#74B3C4}
    .fil0 {fill:#E74116}
    .fil7 {fill:#F75E2D}
    .fil5 {fill:#FA5D29}
    .fil6 {fill:#FFC32C}
    .fil2 {fill:#FFC529}
   ]]></style>
  </defs>
  <sodipodi:namedview
     id="base"
     pagecolor="#ffffff"
     bordercolor="#666666"
     borderopacity="1.0"
     inkscape:pageopacity="0.0"
     inkscape:pageshadow="2"
     inkscape:zoom="2.8"
     inkscape:cx="47.22436"
     inkscape:cy="118.2819"
     inkscape:document-units="mm"
     inkscape:current-layer="layer1"
     showgrid="false"
     inkscape:snap-page="true"
     inkscape:window-width="1920"
     inkscape:window-height="1017"
     inkscape:window-x="-8"
     inkscape:window-y="-8"
     inkscape:window-maximized="1" />
  <metadata
     id="metadata5">
    <rdf:RDF>
      <cc:Work
         rdf:about="">
        <dc:format>image/svg+xml</dc:format>
        <dc:type
           rdf:resource="http://purl.org/dc/dcmitype/StillImage" />
        <dc:title></dc:title>
      </cc:Work>
    </rdf:RDF>
  </metadata>
  <g
     inkscape:label="Layer 1"
     inkscape:groupmode="layer"
     id="layer1"
     transform="translate(0,-244)">
    <g
       style="clip-rule:evenodd;fill-rule:evenodd;image-rendering:optimizeQuality;shape-rendering:geometricPrecision;text-rendering:geometricPrecision"
       id="g552"
       transform="matrix(0.01,0,0,0.01,-14.204687,233.17)">
      <g
         id="Слой_x0020_1">
        <metadata
           id="CorelCorpID_0Corel-Layer" />
        <g
           id="_990358368">
          <polygon
             id="polygon15"
             points="3507,2470 3048,2471 2973,4821 3569,4818 "
             class="fil0"
             style="fill:#e74116" />
          <polygon
             id="polygon17"
             points="2263,4803 2456,6092 2716,6198 2690,6383 2176,5875 1706,5411 "
             class="fil1"
             style="fill:#74b3c4" />
          <polygon
             id="polygon19"
             points="2974,4803 2977,5025 2240,5018 2263,4803 "
             class="fil1"
             style="fill:#74b3c4" />
          <polygon
             id="polygon21"
             points="3833,4808 3834,5031 3562,5023 3570,4808 "
             class="fil1"
             style="fill:#74b3c4" />
          <polygon
             id="polygon23"
             points="4939,1134 4948,1755 4329,1755 4347,1134 "
             class="fil2"
             style="fill:#ffc529" />
          <polygon
             id="polygon25"
             points="4949,1755 4958,2376 4316,2374 4329,1755 "
             class="fil3"
             style="fill:#3d5f78" />
          <polygon
             id="polygon27"
             points="4958,2376 4963,3002 4299,2998 4318,2374 "
             class="fil2"
             style="fill:#ffc529" />
          <polygon
             id="polygon29"
             points="4965,3002 4976,3617 4293,3615 4301,2998 "
             class="fil3"
             style="fill:#3d5f78" />
          <polygon
             id="polygon31"
             points="4976,3617 4293,3615 4290,4197 4986,4197 "
             class="fil2"
             style="fill:#ffc529" />
          <polygon
             id="polygon33"
             points="6094,3667 6029,2121 5594,2119 5516,3662 "
             class="fil3"
             style="fill:#3d5f78" />
          <rect
             id="rect35"
             height="237"
             width="705"
             y="4803"
             x="2263"
             class="fil1"
             style="fill:#74b3c4" />
          <rect
             id="rect37"
             height="266"
             width="2984"
             y="4822"
             x="2263"
             class="fil1"
             style="fill:#74b3c4" />
          <rect
             id="rect39"
             height="234"
             width="3150"
             y="5460"
             x="2093"
             class="fil1"
             style="fill:#74b3c4" />
          <rect
             id="rect41"
             height="306"
             width="2559"
             y="6077"
             x="2689"
             class="fil1"
             style="fill:#74b3c4" />
          <rect
             id="rect43"
             height="2147"
             width="163"
             y="4200"
             x="5085"
             class="fil1"
             style="fill:#74b3c4" />
          <rect
             id="rect45"
             height="269"
             width="1547"
             y="4184"
             x="3701"
             class="fil1"
             style="fill:#74b3c4" />
          <rect
             id="rect47"
             height="391.59"
             width="46.299999"
             y="4441"
             x="4044"
             class="fil1"
             style="fill:#74b3c4" />
          <rect
             id="rect49"
             height="391.59"
             width="46.299999"
             y="4439"
             x="3843"
             class="fil1"
             style="fill:#74b3c4" />
          <rect
             id="rect51"
             height="391.59"
             width="46.299999"
             y="4445"
             x="4251"
             class="fil1"
             style="fill:#74b3c4" />
          <rect
             id="rect53"
             height="391.59"
             width="46.299999"
             y="4436"
             x="4871"
             class="fil1"
             style="fill:#74b3c4" />
          <rect
             id="rect55"
             height="391.59"
             width="46.299999"
             y="4443"
             x="4664"
             class="fil1"
             style="fill:#74b3c4" />
          <rect
             id="rect57"
             height="391.59"
             width="46.299999"
             y="4441"
             x="4044"
             class="fil1"
             style="fill:#74b3c4" />
          <rect
             id="rect59"
             height="391.59"
             width="46.299999"
             y="4438"
             x="4458"
             class="fil1"
             style="fill:#74b3c4" />
          <rect
             id="rect61"
             height="391.59"
             width="46.299999"
             y="5079"
             x="2623"
             class="fil1"
             style="fill:#74b3c4" />
          <rect
             id="rect63"
             height="391.59"
             width="46.299999"
             y="5086"
             x="2412"
             class="fil1"
             style="fill:#74b3c4" />
          <rect
             id="rect65"
             height="391.59"
             width="46.299999"
             y="5079"
             x="2391"
             class="fil1"
             style="fill:#74b3c4" />
          <rect
             id="rect67"
             height="391.59"
             width="46.299999"
             y="5073"
             x="2830"
             class="fil1"
             style="fill:#74b3c4" />
          <rect
             id="rect69"
             height="391.59"
             width="46.299999"
             y="5080"
             x="3033"
             class="fil1"
             style="fill:#74b3c4" />
          <rect
             id="rect71"
             height="391.59"
             width="46.299999"
             y="5081"
             x="3239"
             class="fil1"
             style="fill:#74b3c4" />
          <rect
             id="rect73"
             height="391.59"
             width="46.299999"
             y="5084"
             x="3447"
             class="fil1"
             style="fill:#74b3c4" />
          <rect
             id="rect75"
             height="416.29001"
             width="47.290001"
             y="5672"
             x="2622"
             class="fil1"
             style="fill:#74b3c4" />
          <rect
             id="rect77"
             height="391.59"
             width="46.299999"
             y="5693"
             x="2424"
             class="fil1"
             style="fill:#74b3c4" />
          <rect
             id="rect79"
             height="391.59"
             width="46.299999"
             y="5684"
             x="2830"
             class="fil1"
             style="fill:#74b3c4" />
          <rect
             id="rect81"
             height="391.59"
             width="47.23"
             y="5688"
             x="3035"
             class="fil1"
             style="fill:#74b3c4" />
          <rect
             id="rect83"
             height="391.59"
             width="46.299999"
             y="5688"
             x="3242"
             class="fil1"
             style="fill:#74b3c4" />
          <rect
             id="rect85"
             height="391.59"
             width="47.93"
             y="5694"
             x="3447"
             class="fil1"
             style="fill:#74b3c4" />
          <rect
             id="rect87"
             height="391.59"
             width="46.299999"
             y="5082"
             x="4046"
             class="fil1"
             style="fill:#74b3c4" />
          <rect
             id="rect89"
             height="391.59"
             width="46.299999"
             y="5082"
             x="3835"
             class="fil1"
             style="fill:#74b3c4" />
          <rect
             id="rect91"
             height="391.59"
             width="46.299999"
             y="5080"
             x="4253"
             class="fil1"
             style="fill:#74b3c4" />
          <rect
             id="rect93"
             height="391.59"
             width="46.299999"
             y="5079"
             x="4459"
             class="fil1"
             style="fill:#74b3c4" />
          <rect
             id="rect95"
             height="391.59"
             width="46.299999"
             y="5082"
             x="4665"
             class="fil1"
             style="fill:#74b3c4" />
          <rect
             id="rect97"
             height="391.59"
             width="46.299999"
             y="5084"
             x="4868"
             class="fil1"
             style="fill:#74b3c4" />
          <rect
             id="rect99"
             height="391.59"
             width="46.299999"
             y="5079"
             x="5078"
             class="fil1"
             style="fill:#74b3c4" />
          <rect
             id="rect101"
             height="391.59"
             width="46.299999"
             y="5690"
             x="4045"
             class="fil1"
             style="fill:#74b3c4" />
          <rect
             id="rect103"
             height="391.59"
             width="46.299999"
             y="5696"
             x="3839"
             class="fil1"
             style="fill:#74b3c4" />
          <rect
             id="rect105"
             height="391.59"
             width="46.299999"
             y="5682"
             x="4253"
             class="fil1"
             style="fill:#74b3c4" />
          <rect
             id="rect107"
             height="391.59"
             width="46.299999"
             y="5691"
             x="4459"
             class="fil1"
             style="fill:#74b3c4" />
          <rect
             id="rect109"
             height="391.59"
             width="46.299999"
             y="5690"
             x="4665"
             class="fil1"
             style="fill:#74b3c4" />
          <rect
             id="rect111"
             height="391.59"
             width="46.299999"
             y="5687"
             x="4869"
             class="fil1"
             style="fill:#74b3c4" />
          <rect
             id="rect113"
             height="391.59"
             width="46.299999"
             y="5687"
             x="5079"
             class="fil1"
             style="fill:#74b3c4" />
          <polygon
             id="polygon115"
             points="4044,4453 4044,4822 3889,4822 3889,4453 "
             class="fil4"
             style="fill:#3e5e78" />
          <polygon
             id="polygon117"
             points="4251,4453 4251,4822 4091,4822 4091,4453 "
             class="fil4"
             style="fill:#3e5e78" />
          <polygon
             id="polygon119"
             points="4458,4453 4458,4822 4297,4822 4297,4453 "
             class="fil4"
             style="fill:#3e5e78" />
          <polygon
             id="polygon121"
             points="4050,4453 4050,4822 3889,4822 3889,4453 "
             class="fil4"
             style="fill:#3e5e78" />
          <polygon
             id="polygon123"
             points="4666,4451 4666,4822 4505,4822 4505,4451 "
             class="fil4"
             style="fill:#3e5e78" />
          <polygon
             id="polygon125"
             points="4872,4451 4872,4822 4710,4822 4710,4451 "
             class="fil4"
             style="fill:#3e5e78" />
          <polygon
             id="polygon127"
             points="5080,4451 5080,4822 4917,4822 4917,4451 "
             class="fil4"
             style="fill:#3e5e78" />
          <polygon
             id="polygon129"
             points="2624,5088 2624,5460 2462,5460 2462,5088 "
             class="fil4"
             style="fill:#3e5e78" />
          <polygon
             id="polygon131"
             points="2831,5087 2831,5460 2669,5460 2669,5087 "
             class="fil4"
             style="fill:#3e5e78" />
          <polygon
             id="polygon133"
             points="3038,5087 3038,5460 2876,5460 2876,5087 "
             class="fil4"
             style="fill:#3e5e78" />
          <polygon
             id="polygon135"
             points="3240,5087 3240,5460 3079,5460 3079,5087 "
             class="fil4"
             style="fill:#3e5e78" />
          <polygon
             id="polygon137"
             points="3447,5088 3447,5461 3285,5461 3285,5088 "
             class="fil4"
             style="fill:#3e5e78" />
          <polygon
             id="polygon139"
             points="3655,5087 3655,5460 3493,5460 3493,5087 "
             class="fil4"
             style="fill:#3e5e78" />
          <rect
             id="rect141"
             height="648"
             width="208"
             y="4921"
             x="3655"
             class="fil1"
             style="fill:#74b3c4" />
          <polygon
             id="polygon143"
             points="2631,5695 2631,6075 2470,6075 2470,5695 "
             class="fil4"
             style="fill:#3e5e78" />
          <rect
             id="rect145"
             height="57.880001"
             width="184.55"
             y="6074"
             x="2461"
             class="fil1"
             style="fill:#74b3c4" />
          <polygon
             id="polygon147"
             points="2831,5694 2831,6074 2669,6074 2669,5694 "
             class="fil4"
             style="fill:#3e5e78" />
          <polygon
             id="polygon149"
             points="3036,5694 3036,6074 2875,6074 2875,5694 "
             class="fil4"
             style="fill:#3e5e78" />
          <polygon
             id="polygon151"
             points="3243,5695 3243,6075 3082,6075 3082,5695 "
             class="fil4"
             style="fill:#3e5e78" />
          <polygon
             id="polygon153"
             points="3447,5694 3447,6074 3286,6074 3286,5694 "
             class="fil4"
             style="fill:#3e5e78" />
          <polygon
             id="polygon155"
             points="3655,5694 3655,6074 3494,6074 3494,5694 "
             class="fil4"
             style="fill:#3e5e78" />
          <polygon
             id="polygon157"
             points="4046,5088 4046,5462 3881,5462 3881,5088 "
             class="fil4"
             style="fill:#3e5e78" />
          <polygon
             id="polygon159"
             points="4258,5087 4258,5461 4093,5461 4093,5087 "
             class="fil4"
             style="fill:#3e5e78" />
          <polygon
             id="polygon161"
             points="4462,5086 4462,5461 4297,5461 4297,5086 "
             class="fil4"
             style="fill:#3e5e78" />
          <polygon
             id="polygon163"
             points="4669,5086 4669,5461 4504,5461 4504,5086 "
             class="fil4"
             style="fill:#3e5e78" />
          <polygon
             id="polygon165"
             points="4873,5086 4873,5461 4708,5461 4708,5086 "
             class="fil4"
             style="fill:#3e5e78" />
          <polygon
             id="polygon167"
             points="5079,5086 5079,5461 4914,5461 4914,5086 "
             class="fil4"
             style="fill:#3e5e78" />
          <polygon
             id="polygon169"
             points="4051,5695 4051,6074 3885,6074 3885,5695 "
             class="fil4"
             style="fill:#3e5e78" />
          <rect
             id="rect171"
             height="470"
             width="165"
             y="5618"
             x="3657"
             class="fil1"
             style="fill:#74b3c4" />
          <rect
             id="rect173"
             height="470"
             width="230"
             y="5622"
             x="3655"
             class="fil1"
             style="fill:#74b3c4" />
          <polygon
             id="polygon175"
             points="4258,5695 4258,6074 4093,6074 4093,5695 "
             class="fil4"
             style="fill:#3e5e78" />
          <polygon
             id="polygon177"
             points="4462,5694 4462,6073 4297,6073 4297,5694 "
             class="fil4"
             style="fill:#3e5e78" />
          <polygon
             id="polygon179"
             points="4670,5694 4670,6074 4505,6074 4505,5694 "
             class="fil4"
             style="fill:#3e5e78" />
          <polygon
             id="polygon181"
             points="4875,5694 4875,6075 4710,6075 4710,5694 "
             class="fil4"
             style="fill:#3e5e78" />
          <polygon
             id="polygon183"
             points="5081,5693 5081,6074 4915,6074 4915,5693 "
             class="fil4"
             style="fill:#3e5e78" />
          <rect
             id="rect185"
             height="537"
             width="376"
             y="5846"
             x="5240"
             class="fil4"
             style="fill:#3e5e78" />
          <rect
             id="rect187"
             height="538.20001"
             width="70.779999"
             y="5845"
             x="5824"
             class="fil4"
             style="fill:#3e5e78" />
          <polygon
             id="polygon189"
             points="6104,6383 6103,5842 6480,5839 6478,6156 6245,6383 "
             class="fil4"
             style="fill:#3e5e78" />
          <rect
             id="rect191"
             height="892"
             width="161"
             y="4184"
             x="3701"
             class="fil1"
             style="fill:#74b3c4" />
          <rect
             id="rect193"
             height="864"
             width="161"
             y="4192"
             x="3724"
             class="fil1"
             style="fill:#74b3c4" />
          <rect
             id="rect195"
             height="864"
             width="161"
             y="4204"
             x="5079"
             class="fil1"
             style="fill:#74b3c4" />
          <rect
             id="rect197"
             height="210"
             width="1238"
             y="3652"
             x="5239"
             class="fil5"
             style="fill:#fa5d29" />
          <rect
             id="rect199"
             height="2032"
             width="232"
             y="3652"
             x="5240"
             class="fil5"
             style="fill:#fa5d29" />
          <rect
             id="rect201"
             height="2032"
             width="234"
             y="3654"
             x="6244"
             class="fil5"
             style="fill:#fa5d29" />
          <rect
             id="rect203"
             height="172"
             width="1237"
             y="5550"
             x="5240"
             class="fil5"
             style="fill:#fa5d29" />
          <rect
             id="rect205"
             height="2032"
             width="159"
             y="3662"
             x="5783"
             class="fil5"
             style="fill:#fa5d29" />
          <rect
             id="rect207"
             height="127"
             width="1240"
             y="5722"
             x="5241"
             class="fil2"
             style="fill:#ffc529" />
          <rect
             id="rect209"
             height="534"
             width="208"
             y="5849"
             x="5616"
             class="fil1"
             style="fill:#74b3c4" />
          <rect
             id="rect211"
             height="534"
             width="214"
             y="5849"
             x="5894"
             class="fil1"
             style="fill:#74b3c4" />
          <rect
             id="rect213"
             height="2031.8"
             width="36.049999"
             y="3688"
             x="5612"
             class="fil5"
             style="fill:#fa5d29" />
          <rect
             id="rect215"
             height="2031.8"
             width="36.049999"
             y="3688"
             x="6077"
             class="fil5"
             style="fill:#fa5d29" />
          <rect
             id="rect217"
             height="127"
             width="1042"
             y="4645"
             x="5306"
             class="fil5"
             style="fill:#fa5d29" />
          <rect
             id="rect219"
             height="249"
             width="140"
             y="3862"
             x="5473"
             class="fil6"
             style="fill:#ffc32c" />
          <rect
             id="rect221"
             height="250"
             width="140"
             y="3862"
             x="5646"
             class="fil6"
             style="fill:#ffc32c" />
          <rect
             id="rect223"
             height="249"
             width="140"
             y="4129"
             x="5472"
             class="fil6"
             style="fill:#ffc32c" />
          <rect
             id="rect225"
             height="249"
             width="140"
             y="4130"
             x="5647"
             class="fil6"
             style="fill:#ffc32c" />
          <rect
             id="rect227"
             height="245"
             width="140"
             y="4400"
             x="5473"
             class="fil6"
             style="fill:#ffc32c" />
          <rect
             id="rect229"
             height="245"
             width="140"
             y="4400"
             x="5647"
             class="fil6"
             style="fill:#ffc32c" />
          <rect
             id="rect231"
             height="25.129999"
             width="400.85999"
             y="4375"
             x="5433"
             class="fil5"
             style="fill:#fa5d29" />
          <rect
             id="rect233"
             height="23.309999"
             width="400.85999"
             y="4107"
             x="5433"
             class="fil5"
             style="fill:#fa5d29" />
          <rect
             id="rect235"
             height="245"
             width="140"
             y="4772"
             x="5473"
             class="fil6"
             style="fill:#ffc32c" />
          <rect
             id="rect237"
             height="246"
             width="140"
             y="4772"
             x="5648"
             class="fil6"
             style="fill:#ffc32c" />
          <rect
             id="rect239"
             height="244"
             width="140"
             y="5045"
             x="5473"
             class="fil6"
             style="fill:#ffc32c" />
          <rect
             id="rect241"
             height="244"
             width="140"
             y="5045"
             x="5648"
             class="fil6"
             style="fill:#ffc32c" />
          <rect
             id="rect243"
             height="245"
             width="140"
             y="5311"
             x="5473"
             class="fil6"
             style="fill:#ffc32c" />
          <rect
             id="rect245"
             height="245"
             width="140"
             y="5311"
             x="5648"
             class="fil6"
             style="fill:#ffc32c" />
          <rect
             id="rect247"
             height="25.129999"
             width="400.85999"
             y="5018"
             x="5418"
             class="fil5"
             style="fill:#fa5d29" />
          <rect
             id="rect249"
             height="25.129999"
             width="400.85999"
             y="5286"
             x="5412"
             class="fil5"
             style="fill:#fa5d29" />
          <rect
             id="rect251"
             height="250"
             width="140"
             y="3862"
             x="5940"
             class="fil6"
             style="fill:#ffc32c" />
          <rect
             id="rect253"
             height="250"
             width="140"
             y="3862"
             x="6113"
             class="fil6"
             style="fill:#ffc32c" />
          <rect
             id="rect255"
             height="249"
             width="140"
             y="4132"
             x="5940"
             class="fil6"
             style="fill:#ffc32c" />
          <rect
             id="rect257"
             height="249"
             width="140"
             y="4133"
             x="6113"
             class="fil6"
             style="fill:#ffc32c" />
          <rect
             id="rect259"
             height="249"
             width="140"
             y="4400"
             x="5941"
             class="fil6"
             style="fill:#ffc32c" />
          <rect
             id="rect261"
             height="249"
             width="140"
             y="4400"
             x="6111"
             class="fil6"
             style="fill:#ffc32c" />
          <rect
             id="rect263"
             height="25.129999"
             width="400.85999"
             y="4107"
             x="5867"
             class="fil5"
             style="fill:#fa5d29" />
          <rect
             id="rect265"
             height="25.129999"
             width="400.85999"
             y="4379"
             x="5886"
             class="fil5"
             style="fill:#fa5d29" />
          <rect
             id="rect267"
             height="32.459999"
             width="400.85999"
             y="5014"
             x="5425"
             class="fil5"
             style="fill:#fa5d29" />
          <rect
             id="rect269"
             height="246"
             width="140"
             y="4772"
             x="5941"
             class="fil6"
             style="fill:#ffc32c" />
          <rect
             id="rect271"
             height="246"
             width="140"
             y="4772"
             x="6110"
             class="fil6"
             style="fill:#ffc32c" />
          <rect
             id="rect273"
             height="244"
             width="140"
             y="5046"
             x="5938"
             class="fil6"
             style="fill:#ffc32c" />
          <rect
             id="rect275"
             height="244"
             width="140"
             y="5047"
             x="6111"
             class="fil6"
             style="fill:#ffc32c" />
          <rect
             id="rect277"
             height="244"
             width="140"
             y="5311"
             x="5937"
             class="fil6"
             style="fill:#ffc32c" />
          <rect
             id="rect279"
             height="245"
             width="140"
             y="5312"
             x="6111"
             class="fil6"
             style="fill:#ffc32c" />
          <rect
             id="rect281"
             height="32.459999"
             width="400.85999"
             y="5014"
             x="5895"
             class="fil5"
             style="fill:#fa5d29" />
          <rect
             id="rect283"
             height="25.129999"
             width="400.85999"
             y="5287"
             x="5889"
             class="fil5"
             style="fill:#fa5d29" />
          <rect
             id="rect285"
             height="762"
             width="364"
             y="5015"
             x="2098"
             class="fil1"
             style="fill:#74b3c4" />
          <rect
             id="rect287"
             height="578.54999"
             width="57.619999"
             y="5516"
             x="2403"
             class="fil1"
             style="fill:#74b3c4" />
          <polygon
             id="polygon289"
             points="2382,6076 2799,6074 2689,6382 "
             class="fil1"
             style="fill:#74b3c4" />
          <rect
             id="rect291"
             height="198"
             width="2020"
             y="6074"
             x="2669"
             class="fil1"
             style="fill:#74b3c4" />
          <polygon
             id="polygon293"
             points="2263,4803 2618,4979 2138,5226 2104,4976 "
             class="fil1"
             style="fill:#74b3c4" />
          <rect
             id="rect295"
             height="503"
             width="652"
             y="4551"
             x="6862"
             class="fil2"
             style="fill:#ffc529" />
          <rect
             id="rect297"
             height="144"
             width="1037"
             y="4910"
             x="6478"
             class="fil2"
             style="fill:#ffc529" />
          <polygon
             id="polygon299"
             points="6478,6384 6741,6070 6741,4910 6478,4910 "
             class="fil2"
             style="fill:#ffc529" />
          <polygon
             id="polygon301"
             points="7515,5117 7515,4922 7367,5054 7369,5262 "
             class="fil2"
             style="fill:#ffc529" />
          <polygon
             id="polygon303"
             points="7114,5054 7233,5054 7233,5399 7118,5514 7114,5518 "
             class="fil2"
             style="fill:#ffc529" />
          <polygon
             id="polygon305"
             points="6669,5421 6741,5284 7350,5281 7116,5516 7114,5414 "
             class="fil2"
             style="fill:#ffc529" />
          <polygon
             id="polygon307"
             points="6867,5765 6987,5645 6987,4910 6867,5054 "
             class="fil2"
             style="fill:#ffc529" />
          <polygon
             id="polygon309"
             points="6978,5653 6831,5801 6729,5802 6741,5654 "
             class="fil2"
             style="fill:#ffc529" />
          <rect
             id="rect311"
             height="229"
             width="126"
             y="5054"
             x="6741"
             class="fil7"
             style="fill:#f75e2d" />
          <rect
             id="rect313"
             height="233"
             width="130"
             y="5051"
             x="6984"
             class="fil7"
             style="fill:#f75e2d" />
          <polygon
             id="polygon315"
             points="7347,5284 7371,5261 7371,5054 7233,5054 7233,5284 "
             class="fil7"
             style="fill:#f75e2d" />
          <rect
             id="rect317"
             height="237"
             width="126"
             y="5417"
             x="6741"
             class="fil7"
             style="fill:#f75e2d" />
          <polygon
             id="polygon319"
             points="7114,5412 6987,5412 6987,5645 7114,5515 "
             class="fil7"
             style="fill:#f75e2d" />
          <polygon
             id="polygon321"
             points="6741,5891 6741,5802 6830,5801 "
             class="fil7"
             style="fill:#f75e2d" />
          <polygon
             id="polygon323"
             points="6768,5864 6829,5801 6831,5801 "
             class="fil7"
             style="fill:#f75e2d" />
          <rect
             id="rect325"
             height="73.93"
             width="953.17999"
             y="6074"
             x="4235"
             class="fil1"
             style="fill:#74b3c4" />
          <rect
             id="rect327"
             height="63.720001"
             width="224.58"
             y="6073"
             x="4263"
             class="fil1"
             style="fill:#74b3c4" />
          <rect
             id="rect329"
             height="63.720001"
             width="24.07"
             y="6069"
             x="4258"
             class="fil1"
             style="fill:#74b3c4" />
          <rect
             id="rect331"
             height="469.95999"
             width="27.33"
             y="5636"
             x="4068"
             class="fil1"
             style="fill:#74b3c4" />
          <polygon
             id="polygon333"
             points="2701,6383 1715,5408 1712,5404 1430,5697 1430,6389 "
             class="fil1"
             style="fill:#74b3c4" />
          <polygon
             id="polygon335"
             points="6478,6146 6478,6384 6235,6383 "
             class="fil4"
             style="fill:#3e5e78" />
          <rect
             id="rect337"
             height="238"
             width="126"
             y="5415"
             x="6987"
             class="fil7"
             style="fill:#f75e2d" />
          <rect
             id="rect339"
             height="236"
             width="132"
             y="5417"
             x="7231"
             class="fil7"
             style="fill:#f75e2d" />
          <rect
             id="rect341"
             height="341"
             width="1037"
             y="6037"
             x="6478"
             class="fil2"
             style="fill:#ffc529" />
          <rect
             id="rect343"
             height="237"
             width="126"
             y="5801"
             x="6741"
             class="fil7"
             style="fill:#f75e2d" />
          <rect
             id="rect345"
             height="533"
             width="531"
             y="5653"
             x="6866"
             class="fil2"
             style="fill:#ffc529" />
          <rect
             id="rect347"
             height="144"
             width="280"
             y="5660"
             x="6598"
             class="fil2"
             style="fill:#ffc529" />
          <rect
             id="rect349"
             height="133"
             width="516"
             y="5284"
             x="6987"
             class="fil2"
             style="fill:#ffc529" />
          <rect
             id="rect351"
             height="350"
             width="119"
             y="5354"
             x="7112"
             class="fil2"
             style="fill:#ffc529" />
          <rect
             id="rect353"
             height="350"
             width="119"
             y="5357"
             x="7361"
             class="fil2"
             style="fill:#ffc529" />
          <rect
             id="rect355"
             height="350"
             width="119"
             y="5381"
             x="6869"
             class="fil2"
             style="fill:#ffc529" />
          <rect
             id="rect357"
             height="230"
             width="130"
             y="5054"
             x="7242"
             class="fil7"
             style="fill:#f75e2d" />
          <polygon
             id="polygon359"
             points="7359,6378 7515,6094 7515,5046 7359,5046 "
             class="fil2"
             style="fill:#ffc529" />
          <rect
             id="rect361"
             height="233"
             width="126"
             y="5805"
             x="6986"
             class="fil7"
             style="fill:#f75e2d" />
          <rect
             id="rect363"
             height="233"
             width="126"
             y="5805"
             x="7232"
             class="fil7"
             style="fill:#f75e2d" />
        </g>
      </g>
    </g>
  </g>
</svg>
