<?xml version="1.0" encoding="UTF-8"?>
<!DOCTYPE svg PUBLIC "-//W3C//DTD SVG 1.1//EN" "http://www.w3.org/Graphics/SVG/1.1/DTD/svg11.dtd">
<!-- Creator: CorelDRAW X8 -->
<svg xmlns="http://www.w3.org/2000/svg" xml:space="preserve" width="210mm" height="297mm" version="1.1" style="shape-rendering:geometricPrecision; text-rendering:geometricPrecision; image-rendering:optimizeQuality; fill-rule:evenodd; clip-rule:evenodd"
viewBox="0 0 21000 29700"
 xmlns:xlink="http://www.w3.org/1999/xlink">
 <defs>
  <style type="text/css">
   <![CDATA[
    .fil2 {fill:#1B4145}
    .fil4 {fill:#8B7E7F}
    .fil3 {fill:#D6CED1}
    .fil0 {fill:#ECE7EA}
    .fil1 {fill:#F14742}
    .fil5 {fill:#8B7E7F;fill-rule:nonzero}
   ]]>
  </style>
 </defs>
 <g id="Слой_x0020_1">
  <metadata id="CorelCorpID_0Corel-Layer"/>
  <g id="_1119048848">
   <polygon class="fil0" points="13669,4200 13669,10370 6165,10370 6165,4200 9917,3867 "/>
   <polygon class="fil1" points="13669,3367 13669,4200 12835,4200 12335,3784 12835,3367 "/>
   <rect class="fil2" x="6165" y="3367" width="6670" height="834"/>
   <path class="fil3" d="M12668 6910l-5503 0c-69,0 -125,-56 -125,-125 0,-69 56,-125 125,-125l5503 0c69,0 125,56 125,125 0,69 -56,125 -125,125z"/>
   <path class="fil4" d="M9583 7577l-2418 0c-69,0 -125,-56 -125,-125 0,-69 56,-125 125,-125l2418 0c69,0 125,56 125,125 0,69 -56,125 -125,125z"/>
   <path class="fil4" d="M9583 8244l-2418 0c-69,0 -125,-56 -125,-125 0,-69 56,-125 125,-125l2418 0c69,0 125,56 125,125 0,69 -56,125 -125,125z"/>
   <path class="fil4" d="M9583 8911l-2418 0c-69,0 -125,-56 -125,-125 0,-69 56,-125 125,-125l2418 0c69,0 125,56 125,125 0,69 -56,125 -125,125z"/>
   <rect class="fil1" x="10250" y="7452" width="2418" height="2001"/>
   <path class="fil4" d="M9583 9578l-2418 0c-69,0 -125,-56 -125,-125 0,-69 56,-125 125,-125l2418 0c69,0 125,56 125,125 0,69 -56,125 -125,125z"/>
   <path class="fil5" d="M8597 5371c-63,0 -119,-11 -168,-31 -48,-21 -89,-49 -121,-85 -33,-35 -58,-75 -75,-121 -17,-45 -25,-93 -25,-142 0,-49 8,-97 25,-143 16,-46 41,-86 73,-121 32,-36 72,-64 120,-85 48,-21 103,-32 166,-32 64,0 119,10 167,31 48,21 88,49 120,83 32,35 56,75 72,120 17,45 25,92 25,142 0,49 -8,97 -24,143 -16,46 -39,87 -71,123 -32,36 -71,65 -118,86 -48,21 -103,32 -166,32zm-5 -142c36,0 66,-7 90,-19 25,-13 45,-31 61,-52 16,-22 27,-47 34,-76 8,-28 11,-58 11,-90 0,-32 -3,-62 -10,-91 -7,-29 -18,-54 -34,-76 -15,-22 -35,-40 -59,-53 -24,-13 -54,-19 -88,-19 -35,0 -66,6 -91,19 -24,12 -45,29 -62,50 -16,22 -28,46 -36,75 -8,28 -12,58 -12,90 0,32 4,63 12,92 8,29 19,55 35,77 16,22 36,40 61,53 24,13 54,20 88,20z"/>
   <path id="1" class="fil5" d="M9107 4624l478 0 0 146 -300 0 0 126 87 0c41,0 78,5 114,13 35,9 65,23 91,42 26,18 46,42 61,70 14,28 22,62 22,101 0,40 -8,74 -22,104 -15,29 -36,54 -62,73 -26,20 -59,35 -96,44 -38,10 -80,15 -126,15l-247 0 0 -734zm249 600c44,0 76,-8 96,-25 20,-17 30,-42 30,-75 0,-31 -9,-54 -29,-70 -20,-16 -51,-25 -94,-25l-74 0 0 195 71 0z"/>
   <path id="2" class="fil5" d="M9945 5371c-54,0 -101,-6 -139,-18 -39,-11 -71,-26 -98,-45l77 -129c19,13 41,25 68,34 26,9 58,14 95,14 36,0 64,-7 85,-21 21,-13 31,-36 31,-69 0,-30 -11,-53 -32,-68 -22,-15 -52,-23 -89,-23l-86 0 0 -124 67 0c37,0 65,-8 85,-22 21,-14 31,-36 31,-64 0,-25 -8,-45 -24,-59 -17,-15 -41,-22 -74,-22 -35,0 -66,6 -91,17 -25,11 -47,22 -63,35l-70 -123c10,-8 22,-17 36,-26 14,-9 31,-16 50,-23 19,-7 40,-13 64,-17 23,-5 49,-7 77,-7 39,0 75,4 108,12 33,8 62,20 85,36 24,17 43,37 57,61 13,24 20,52 20,85 0,50 -12,88 -35,115 -23,28 -54,46 -94,57l0 2c21,3 42,10 61,19 19,8 35,20 50,35 14,14 25,32 34,53 8,21 13,45 13,71 0,37 -8,69 -24,96 -15,26 -36,49 -63,66 -28,18 -59,31 -95,39 -36,9 -75,13 -117,13z"/>
   <path id="3" class="fil5" d="M10715 5371c-63,0 -119,-11 -167,-31 -49,-21 -89,-49 -122,-85 -33,-35 -58,-75 -74,-121 -17,-45 -26,-93 -26,-142 0,-49 8,-97 25,-143 16,-46 41,-86 73,-121 33,-36 73,-64 120,-85 48,-21 103,-32 167,-32 63,0 118,10 166,31 49,21 89,49 121,83 31,35 56,75 72,120 16,45 24,92 24,142 0,49 -8,97 -24,143 -16,46 -39,87 -71,123 -31,36 -71,65 -118,86 -48,21 -103,32 -166,32zm-4 -142c35,0 65,-7 89,-19 25,-13 45,-31 61,-52 16,-22 27,-47 35,-76 7,-28 11,-58 11,-90 0,-32 -4,-62 -11,-91 -7,-29 -18,-54 -33,-76 -16,-22 -36,-40 -60,-53 -24,-13 -53,-19 -88,-19 -35,0 -65,6 -90,19 -25,12 -46,29 -63,50 -16,22 -28,46 -36,75 -8,28 -11,58 -11,90 0,32 3,63 11,92 8,29 20,55 35,77 16,22 36,40 61,53 25,13 54,20 89,20z"/>
   <path id="4" class="fil5" d="M11225 4624l259 0c40,0 78,5 113,14 36,10 66,24 92,44 26,19 47,44 61,74 15,30 22,66 22,106 0,41 -7,77 -22,108 -14,31 -35,57 -62,77 -27,21 -59,36 -97,46 -38,11 -80,16 -126,16l-62 0 0 249 -178 0 0 -734zm242 351c44,0 77,-9 97,-26 20,-18 30,-47 30,-85 0,-36 -10,-63 -30,-80 -20,-18 -50,-27 -92,-27l-69 0 0 218 64 0z"/>
   <polygon id="5" class="fil5" points="7861,5726 8497,5726 8497,6459 8319,6459 8319,5871 8039,5871 8039,6459 7861,6459 "/>
   <path id="6" class="fil5" d="M8668 5726l259 0c41,0 78,4 114,14 35,9 66,24 92,43 26,20 46,45 61,75 15,30 22,65 22,106 0,41 -7,77 -22,107 -15,31 -36,57 -62,78 -27,20 -60,36 -97,46 -38,10 -80,15 -126,15l-62 0 0 249 -179 0 0 -733zm243 351c44,0 76,-9 96,-27 20,-18 30,-46 30,-84 0,-36 -9,-63 -29,-81 -20,-17 -51,-26 -93,-26l-68 0 0 218 64 0z"/>
   <polygon id="7" class="fil5" points="9338,5726 9777,5726 9777,5871 9514,5871 9514,6013 9746,6013 9746,6150 9514,6150 9514,6314 9784,6314 9784,6459 9338,6459 "/>
   <path id="8" class="fil5" d="M10268 6472c-64,0 -120,-10 -168,-31 -48,-21 -88,-49 -120,-84 -31,-35 -55,-76 -71,-122 -16,-46 -23,-94 -23,-144 0,-50 8,-97 24,-143 16,-45 40,-86 72,-121 33,-34 73,-62 121,-83 48,-21 104,-32 168,-32 49,0 91,6 127,16 36,10 68,25 98,44l-78 129c-20,-13 -42,-23 -65,-31 -24,-7 -52,-11 -85,-11 -32,0 -60,6 -83,18 -24,11 -44,27 -61,47 -16,21 -29,45 -37,73 -9,27 -13,58 -13,90 0,33 4,64 12,93 8,29 20,54 37,75 16,22 37,39 62,51 24,13 53,19 86,19 40,0 72,-6 96,-18 25,-12 47,-24 65,-37l73 124c-10,8 -23,17 -38,26 -16,9 -34,18 -54,25 -21,8 -43,15 -68,20 -24,5 -50,7 -77,7z"/>
   <path id="9" class="fil5" d="M10932 6472c-64,0 -120,-10 -168,-31 -48,-21 -88,-49 -119,-84 -32,-35 -56,-76 -72,-122 -15,-46 -23,-94 -23,-144 0,-50 8,-97 24,-143 16,-45 40,-86 73,-121 32,-34 72,-62 120,-83 48,-21 104,-32 168,-32 49,0 91,6 127,16 36,10 69,25 98,44l-78 129c-20,-13 -42,-23 -65,-31 -24,-7 -52,-11 -85,-11 -32,0 -59,6 -83,18 -24,11 -44,27 -61,47 -16,21 -29,45 -37,73 -9,27 -13,58 -13,90 0,33 4,64 12,93 8,29 21,54 37,75 17,22 37,39 62,51 24,13 53,19 86,19 40,0 72,-6 97,-18 24,-12 46,-24 64,-37l73 124c-10,8 -22,17 -38,26 -16,9 -34,18 -54,25 -20,8 -43,15 -67,20 -25,5 -51,7 -78,7z"/>
   <path id="10" class="fil5" d="M11932 5726l180 0 0 733 -180 0 0 -733zm-659 0l179 0 0 249 87 0c40,0 78,4 113,14 36,9 66,24 92,44 26,20 46,45 60,74 15,30 22,65 22,105 0,42 -7,78 -22,108 -14,31 -35,57 -61,78 -27,20 -59,36 -97,46 -37,10 -80,15 -126,15l-247 0 0 -733zm249 600c44,0 77,-9 97,-27 20,-18 30,-46 30,-84 0,-36 -10,-63 -30,-80 -19,-17 -51,-26 -93,-26l-74 0 0 217 70 0z"/>
  </g>
 </g>
</svg>
