<?xml version="1.0" encoding="UTF-8" standalone="no"?>
<!-- Creator: CorelDRAW X8 -->

<svg
   xmlns:dc="http://purl.org/dc/elements/1.1/"
   xmlns:cc="http://creativecommons.org/ns#"
   xmlns:rdf="http://www.w3.org/1999/02/22-rdf-syntax-ns#"
   xmlns:svg="http://www.w3.org/2000/svg"
   xmlns="http://www.w3.org/2000/svg"
   xmlns:sodipodi="http://sodipodi.sourceforge.net/DTD/sodipodi-0.dtd"
   xmlns:inkscape="http://www.inkscape.org/namespaces/inkscape"
   xml:space="preserve"
   width="240"
   height="215"
   version="1.1"
   style="clip-rule:evenodd;fill-rule:evenodd;image-rendering:optimizeQuality;shape-rendering:geometricPrecision;text-rendering:geometricPrecision"
   viewBox="0 0 6349.9999 5688.5418"
   id="svg2012"
   sodipodi:docname="block_press_PC.svg"
   inkscape:version="0.92.2 (5c3e80d, 2017-08-06)"><metadata
     id="metadata2016"><rdf:RDF><cc:Work
         rdf:about=""><dc:format>image/svg+xml</dc:format><dc:type
           rdf:resource="http://purl.org/dc/dcmitype/StillImage" /><dc:title></dc:title></cc:Work></rdf:RDF></metadata><sodipodi:namedview
     pagecolor="#ffffff"
     bordercolor="#666666"
     borderopacity="1"
     objecttolerance="10"
     gridtolerance="10"
     guidetolerance="10"
     inkscape:pageopacity="0"
     inkscape:pageshadow="2"
     inkscape:window-width="1920"
     inkscape:window-height="1017"
     id="namedview2014"
     showgrid="false"
     units="px"
     inkscape:zoom="4.7572176"
     inkscape:cx="179.47931"
     inkscape:cy="133.47114"
     inkscape:window-x="-8"
     inkscape:window-y="-8"
     inkscape:window-maximized="1"
     inkscape:current-layer="svg2012" /><defs
     id="defs1925"><style
       type="text/css"
       id="style1923"><![CDATA[
    .fil7 {fill:#1B4145}
    .fil2 {fill:#59595A}
    .fil9 {fill:#8B7E7F}
    .fil3 {fill:#90C5FF}
    .fil8 {fill:#D6CED1}
    .fil1 {fill:#D8D9DD}
    .fil0 {fill:#ECE7EA}
    .fil6 {fill:#F14742}
    .fil10 {fill:#8B7E7F;fill-rule:nonzero}
    .fil5 {fill:white;fill-opacity:0.200000}
    .fil4 {fill:#5B5B5F;fill-opacity:0.400000}
   ]]></style></defs><g
     id="Слой_x0020_1"
     transform="translate(-3248.0471,-2176.1268)"><metadata
       id="CorelCorpID_0Corel-Layer" /><rect
       class="fil0"
       transform="matrix(-0.191397,-0.191397,0.191397,-0.191397,3546.51,6386.75)"
       width="700"
       height="4359"
       id="rect1928"
       x="0"
       y="0"
       style="fill:#ece7ea" /><g
       id="_1119099888"><polygon
         class="fil1"
         points="7238,6406 7500,7592 5407,7592 5668,6406 "
         id="polygon1930"
         style="fill:#d8d9dd" /><rect
         class="fil1"
         x="5145"
         y="7457"
         width="2616"
         height="243"
         id="rect1932"
         style="fill:#d8d9dd" /><path
         class="fil2"
         d="m 9232,2738 c 0,0 3,2 3,2 V 6136 H 3672 V 2740 c 0,0 2,-2 2,-2 z m 273,1699 V 2739 c 0,-144 -129,-271 -273,-271 v 0 H 3673 c -144,0 -271,127 -271,271 v 1698 0 1697 c 0,144 127,272 271,272 h 5559 v 0 c 144,0 273,-128 273,-272 z"
         id="path1934"
         inkscape:connector-curvature="0"
         style="fill:#59595a" /><path
         class="fil3"
         d="m 9232,2738 c 0,0 3,2 3,2 V 6136 H 3672 V 2740 c 0,0 2,-2 2,-2 z"
         id="path1936"
         inkscape:connector-curvature="0"
         style="fill:#90c5ff" /><polygon
         class="fil4"
         points="5145,7457 5145,7700 7761,7700 7761,7457 "
         id="polygon1938"
         style="fill:#5b5b5f;fill-opacity:0.4" /><g
         id="g1948"><g
           id="g1942"><polygon
             class="fil5"
             points="3762,1935 5791,6540 5428,6699 3399,2094 "
             id="polygon1940"
             style="fill:#ffffff;fill-opacity:0.2" /></g><g
           id="g1946"><polygon
             class="fil5"
             points="4451,1877 6481,6482 6118,6642 4089,2037 "
             id="polygon1944"
             style="fill:#ffffff;fill-opacity:0.2" /></g></g><g
         id="g1950" /><g
         id="g1952" /><g
         id="g1954" /><g
         id="g1956" /><g
         id="g1958" /><g
         id="g1960" /><g
         id="g1962" /><g
         id="g1964" /><g
         id="g1966" /><g
         id="g1968" /><g
         id="g1970" /><g
         id="g1972" /><g
         id="g1974" /><g
         id="g1976" /><g
         id="g1978" /></g></g><rect
     style="fill:none;stroke-width:26.45833206"
     id="rect2018"
     width="6465.4131"
     height="5678.8662"
     x="3146.1863"
     y="-21699.01" /></svg>