<?xml version="1.0" encoding="UTF-8" standalone="no"?>
<!-- Creator: CorelDRAW X8 -->

<svg
   xmlns:dc="http://purl.org/dc/elements/1.1/"
   xmlns:cc="http://creativecommons.org/ns#"
   xmlns:rdf="http://www.w3.org/1999/02/22-rdf-syntax-ns#"
   xmlns:svg="http://www.w3.org/2000/svg"
   xmlns="http://www.w3.org/2000/svg"
   xmlns:sodipodi="http://sodipodi.sourceforge.net/DTD/sodipodi-0.dtd"
   xmlns:inkscape="http://www.inkscape.org/namespaces/inkscape"
   xml:space="preserve"
   width="89.300003mm"
   height="69.690002mm"
   version="1.1"
   style="clip-rule:evenodd;fill-rule:evenodd;image-rendering:optimizeQuality;shape-rendering:geometricPrecision;text-rendering:geometricPrecision"
   viewBox="0 0 8930.0003 6969.0002"
   id="svg278"
   sodipodi:docname="презентация пустой экран.svg"
   inkscape:version="0.92.2 (5c3e80d, 2017-08-06)"><metadata
     id="metadata282"><rdf:RDF><cc:Work
         rdf:about=""><dc:format>image/svg+xml</dc:format><dc:type
           rdf:resource="http://purl.org/dc/dcmitype/StillImage" /><dc:title></dc:title></cc:Work></rdf:RDF></metadata><sodipodi:namedview
     pagecolor="#ffffff"
     bordercolor="#666666"
     borderopacity="1"
     objecttolerance="10"
     gridtolerance="10"
     guidetolerance="10"
     inkscape:pageopacity="0"
     inkscape:pageshadow="2"
     inkscape:window-width="1920"
     inkscape:window-height="1017"
     id="namedview280"
     showgrid="false"
     fit-margin-top="0"
     fit-margin-left="0"
     fit-margin-right="0"
     fit-margin-bottom="0"
     inkscape:zoom="0.2102413"
     inkscape:cx="186.48189"
     inkscape:cy="-226.92284"
     inkscape:window-x="-8"
     inkscape:window-y="-8"
     inkscape:window-maximized="1"
     inkscape:current-layer="svg278" /><defs
     id="defs4"><style
       type="text/css"
       id="style2"><![CDATA[
    .str0 {stroke:#2B2A29;stroke-width:20}
    .str1 {stroke:#00FF45;stroke-width:20}
    .fil96 {fill:#2B2A29}
    .fil15 {fill:black}
    .fil82 {fill:#000600}
    .fil95 {fill:#00346D}
    .fil77 {fill:#005429}
    .fil12 {fill:#00FF45}
    .fil76 {fill:#030000}
    .fil86 {fill:#03381B}
    .fil8 {fill:#041000}
    .fil29 {fill:#043C16}
    .fil27 {fill:#061F00}
    .fil7 {fill:#067124}
    .fil28 {fill:#0A101E}
    .fil85 {fill:#0C89FF}
    .fil66 {fill:#0E1B0E}
    .fil53 {fill:#141830}
    .fil72 {fill:#181400}
    .fil6 {fill:#1A1B00}
    .fil94 {fill:#1B3264}
    .fil51 {fill:#282F30}
    .fil92 {fill:#294F1A}
    .fil93 {fill:#302100}
    .fil14 {fill:#341F00}
    .fil67 {fill:#3C0600}
    .fil71 {fill:#42BC54}
    .fil73 {fill:#43250C}
    .fil83 {fill:#432910}
    .fil10 {fill:#488821}
    .fil5 {fill:#494300}
    .fil102 {fill:#4C1600}
    .fil57 {fill:#4D1B03}
    .fil70 {fill:#4D524F}
    .fil90 {fill:#599D21}
    .fil13 {fill:#618949}
    .fil98 {fill:#675E4D}
    .fil24 {fill:#682100}
    .fil78 {fill:#689DF1}
    .fil58 {fill:#6A3818}
    .fil55 {fill:#6D1610}
    .fil59 {fill:#6D5734}
    .fil61 {fill:#781300}
    .fil69 {fill:#7C2B0C}
    .fil74 {fill:#7C8F2F}
    .fil91 {fill:#7CACD3}
    .fil49 {fill:#7E380A}
    .fil48 {fill:#823824}
    .fil84 {fill:#8F9949}
    .fil101 {fill:#964F4F}
    .fil9 {fill:#97FFFF}
    .fil68 {fill:#9E1600}
    .fil25 {fill:#A5ACC2}
    .fil100 {fill:#A85D5E}
    .fil50 {fill:#AB2B00}
    .fil33 {fill:#AB9961}
    .fil26 {fill:#AC7428}
    .fil18 {fill:#B11E03}
    .fil31 {fill:#B11E03}
    .fil46 {fill:#B1B2BB}
    .fil75 {fill:#B27925}
    .fil64 {fill:#B4B4A5}
    .fil88 {fill:#B68938}
    .fil2 {fill:#B86421}
    .fil65 {fill:#B8A08D}
    .fil1 {fill:#BEAC28}
    .fil80 {fill:#C2FFFF}
    .fil87 {fill:#C3F188}
    .fil99 {fill:#C69783}
    .fil52 {fill:#C7AC97}
    .fil35 {fill:#CC4D24}
    .fil62 {fill:#DBC4B2}
    .fil37 {fill:#E1968C}
    .fil30 {fill:#F5BE72}
    .fil4 {fill:#FBB871}
    .fil3 {fill:#FC9643}
    .fil54 {fill:#FDFCF5}
    .fil22 {fill:#FF0C00}
    .fil17 {fill:#FF1A00}
    .fil36 {fill:#FF4F21}
    .fil39 {fill:#FFA13E}
    .fil81 {fill:#FFB47C}
    .fil63 {fill:#FFBE93}
    .fil47 {fill:#FFCA9E}
    .fil97 {fill:#FFCDBE}
    .fil56 {fill:#FFD6AC}
    .fil89 {fill:#FFE0BE}
    .fil21 {fill:#FFE23C}
    .fil42 {fill:#FFE25E}
    .fil44 {fill:#FFF16A}
    .fil20 {fill:#FFFF63}
    .fil19 {fill:#FFFF6A}
    .fil40 {fill:#FFFF80}
    .fil41 {fill:#FFFF8C}
    .fil23 {fill:#FFFF97}
    .fil43 {fill:#FFFF99}
    .fil16 {fill:#FFFFB6}
    .fil79 {fill:#FFFFBE}
    .fil0 {fill:#FFFFC3}
    .fil32 {fill:#FFFFCD}
    .fil34 {fill:#FFFFD0}
    .fil45 {fill:#FFFFD8}
    .fil60 {fill:#FFFFDD}
    .fil38 {fill:#FFFFFB}
    .fil11 {fill:white}
   ]]></style></defs><g
     id="Слой_x0020_1"
     transform="translate(-5566,-1877)"><metadata
       id="CorelCorpID_0Corel-Layer" /><polygon
       class="fil0"
       points="10984,8806 5566,8806 5566,6797 11836,6511 14496,6723 14496,7972 "
       id="polygon7"
       style="fill:#ffffc3" /><path
       class="fil1"
       d="m 11239,5975 c -229,0 -260,-26 -483,24 -196,44 -522,89 -759,105 -215,15 -446,3 -675,18 -63,4 -403,-19 -400,45 7,147 18,231 196,256 169,22 574,-25 779,-24 313,2 561,10 870,-28 127,-15 499,1 541,-180 11,-50 -13,-59 -23,-130 0,0 -25,-15 -30,-32 z"
       id="path9"
       inkscape:connector-curvature="0"
       style="fill:#beac28" /><polygon
       class="fil2"
       points="6813,6221 6774,6764 11264,6570 11242,6163 "
       id="polygon11"
       style="fill:#b86421" /><polygon
       class="fil0"
       points="14496,7972 14496,6723 14496,7972 "
       id="polygon13"
       style="fill:#ffffc3" /><polygon
       class="fil3"
       points="10592,7306 11384,7466 14464,6987 13752,6936 "
       id="polygon15"
       style="fill:#fc9643" /><polygon
       class="fil4"
       points="14423,6984 11527,7444 14100,8034 14496,7932 14496,7016 14496,6993 "
       id="polygon17"
       style="fill:#fbb871" /><path
       class="fil5"
       d="m 14496,7379 v 222 c -66,72 -206,117 -440,62 -68,-16 -277,80 -463,148 -131,47 -298,57 -482,110 -133,38 -468,112 -595,136 -75,14 -264,129 -295,28 v 0 c -30,-1 -227,-222 -44,-317 154,-79 -224,-218 46,-290 9,-3 251,25 215,178 -12,50 137,-81 47,-227 50,-84 243,56 252,43 88,-138 50,-182 238,19 41,43 115,-120 1,-272 -7,-10 -56,-160 64,-188 608,-144 124,198 494,26 218,-102 39,218 259,218 310,0 38,-234 264,-367 17,-10 95,142 171,187 157,92 105,169 258,276 3,3 7,5 10,8 z"
       id="path19"
       inkscape:connector-curvature="0"
       style="fill:#494300" /><path
       class="fil6"
       d="m 10172,8332 c -29,-63 53,-200 114,-254 17,-15 -52,-285 23,-183 64,88 -8,377 137,63 34,-74 2,-286 61,-354 143,-168 251,39 144,170 -92,113 34,110 61,147 86,121 21,144 146,88 46,-21 106,-164 17,-211 -53,-28 154,-45 203,-37 121,20 -28,216 138,40 73,-78 33,-216 65,-235 80,-48 93,-37 126,95 8,30 -3,268 18,279 54,27 411,-8 436,31 30,45 105,196 41,239 -68,47 -40,30 -163,45 -375,46 -167,1 -442,120 -149,64 -331,63 -540,64 -56,1 -356,-19 -422,-55 -3,-2 -158,-52 -163,-52 z"
       id="path21"
       inkscape:connector-curvature="0"
       style="fill:#1a1b00" /><path
       class="fil7"
       d="m 11226,5447 c -191,-8 -858,-65 -1154,-21 -146,21 -319,-30 -462,-52 -52,-8 -250,-24 -283,2 -95,79 1,78 -187,92 -6,0 -70,40 -153,40 232,0 427,25 646,102 260,91 476,31 737,15 132,-8 242,-2 382,-18 28,-3 447,8 459,-12 13,-24 29,-102 39,-133 -37,-15 -14,-15 -24,-15 z"
       id="path23"
       inkscape:connector-curvature="0"
       style="fill:#067124" /><polygon
       class="fil8 str0"
       points="6950,2667 11226,3775 11226,6430 13506,6471 13506,1903 7018,1903 "
       id="polygon25"
       style="fill:#041000;stroke:#2b2a29;stroke-width:20" /><polygon
       class="fil9"
       points="12131,3363 12131,6593 6569,6773 6999,2142 "
       id="polygon27"
       style="fill:#97ffff" /><path
       class="fil10"
       d="m 12140,5632 c 17,-241 -959,-51 -1311,-23 -204,16 -477,16 -680,41 -56,6 -123,37 -231,24 -33,-4 -531,5 -574,26 -197,97 55,54 -18,101 -38,23 -196,59 -34,71 27,2 -27,53 -80,78 -107,49 -75,127 -21,152 112,53 310,21 447,28 259,14 577,62 827,-2 145,-38 368,-2 559,-51 84,-21 332,16 453,11 175,-7 683,-29 604,-120 -55,-63 87,-141 9,-183 -38,-21 48,-134 50,-153 z"
       id="path29"
       inkscape:connector-curvature="0"
       style="fill:#488821" /><polygon
       class="fil2"
       points="6662,6251 6637,6950 12085,6521 12042,5998 "
       id="polygon31"
       style="fill:#b86421" /><ellipse
       class="fil11"
       transform="rotate(-33.239855,8604.3593,-16173.787)"
       rx="95"
       ry="69"
       id="ellipse33"
       cx="0"
       cy="0"
       style="fill:#ffffff" /><ellipse
       class="fil11"
       transform="rotate(-43.132044,8775.9354,-13252.458)"
       rx="95"
       ry="69"
       id="ellipse35"
       cx="0"
       cy="0"
       style="fill:#ffffff" /><g
       id="_880772400"><ellipse
         class="fil12 str1"
         cx="10919"
         cy="2189"
         rx="201"
         ry="200"
         id="ellipse37"
         style="fill:#00ff45;stroke:#00ff45;stroke-width:20" /><ellipse
         class="fil11"
         transform="rotate(-67.548329,7103.4196,-7070.7537)"
         rx="95"
         ry="69"
         id="ellipse39"
         cx="0"
         cy="0"
         style="fill:#ffffff" /></g><polygon
       class="fil13"
       points="13502,6644 13954,6680 13991,4423 13758,1893 13506,1893 "
       id="polygon42"
       style="fill:#618949" /><path
       class="fil14"
       d="m 14496,1894 v 4829 0 z m 0,0 v 4829 l -542,-43 32,-2301 -228,-2485 z"
       id="path44"
       inkscape:connector-curvature="0"
       style="fill:#341f00" /><path
       class="fil15"
       d="m 14496,7889 v 935 z m 0,0 v 935 h -3589 z"
       id="path46"
       inkscape:connector-curvature="0"
       style="fill:#000000" /><path
       class="fil16"
       d="m 10816,8135 c -11,20 -102,63 -54,83 20,9 170,30 181,20 79,-81 13,-30 136,-34 14,0 91,-22 95,-33 12,-35 4,-14 86,24 16,7 38,19 15,-19 -31,-54 -183,-118 -251,-90 -78,31 -36,92 -149,44 -14,-6 -54,-4 -59,5 z"
       id="path48"
       inkscape:connector-curvature="0"
       style="fill:#ffffb6" /><path
       class="fil17"
       d="m 11239,7945 c -21,-22 -70,-30 -99,-30 -17,0 -43,0 -52,16 -10,17 -18,27 -5,48 12,18 41,19 60,28 7,3 43,15 50,16 54,6 57,-21 58,-63 0,-8 -10,-12 -12,-15 z"
       id="path50"
       inkscape:connector-curvature="0"
       style="fill:#ff1a00" /><path
       class="fil18"
       d="m 11532,8041 c -14,-9 -30,-24 -45,-31 -51,-21 -100,-80 -150,-24 -14,15 39,33 52,55 10,14 18,17 26,35 16,36 104,45 115,35 31,-29 6,-67 2,-70 z"
       id="path52"
       inkscape:connector-curvature="0"
       style="fill:#b11e03" /><path
       class="fil19"
       d="m 12914,7777 c -66,-17 -110,-41 -173,0 -17,12 -6,54 26,64 94,29 27,25 87,-6 56,-29 -88,108 123,87 51,-5 44,-64 8,-94 -12,-11 -52,-47 -67,-49 -2,0 -2,-1 -4,-2 z"
       id="path54"
       inkscape:connector-curvature="0"
       style="fill:#ffff6a" /><path
       class="fil20"
       d="m 13419,7602 c -29,-17 -23,-36 -89,-60 -59,-22 -91,-21 -129,31 -2,3 -28,58 -18,67 39,30 111,29 156,6 46,-24 15,-21 78,-34 0,-1 7,-7 2,-10 z"
       id="path56"
       inkscape:connector-curvature="0"
       style="fill:#ffff63" /><path
       class="fil21"
       d="m 13570,7346 c -16,-30 -87,-40 -107,-82 -21,-42 -32,-66 -86,-58 -29,4 -29,38 -42,63 -25,50 14,70 64,81 5,0 144,20 145,21 23,19 54,19 32,-18 -4,-7 -2,1 -6,-7 z"
       id="path58"
       inkscape:connector-curvature="0"
       style="fill:#ffe23c" /><path
       class="fil22"
       d="m 13720,7445 c -5,-2 -22,-8 -30,-11 -86,-32 -97,62 16,112 10,4 38,16 48,11 18,-10 27,-32 16,-49 -14,-25 -20,-35 -45,-51 -4,-1 -5,-9 -5,-12 z"
       id="path60"
       inkscape:connector-curvature="0"
       style="fill:#ff0c00" /><path
       class="fil23"
       d="m 13971,7605 c -14,-36 -64,-64 -94,-105 -14,-18 -103,-74 -128,-87 -5,-3 -22,43 20,89 15,16 80,88 98,93 29,9 35,23 79,29 9,1 34,38 36,-15 1,-18 -3,14 -8,-2 -1,0 -2,-1 -3,-2 z"
       id="path62"
       inkscape:connector-curvature="0"
       style="fill:#ffff97" /><path
       class="fil24"
       d="m 14496,7580 v 352 l -3494,894 -837,1 v -527 c 318,118 309,137 671,122 533,-21 378,-117 617,-162 193,-36 295,26 483,-57 111,-49 626,-181 749,-190 168,-12 432,-128 685,-159 208,-25 485,-179 804,-226 98,-14 150,-51 297,-48 11,1 18,1 25,0 z"
       id="path64"
       inkscape:connector-curvature="0"
       style="fill:#682100" /><polygon
       class="fil25"
       points="9910,5410 10392,5437 12040,4846 12040,4626 "
       id="polygon66"
       style="fill:#a5acc2" /><path
       class="fil7"
       d="m 12069,5430 c -251,-68 -1173,-80 -1578,-26 -199,26 -435,-37 -630,-64 -71,-10 -343,-29 -388,3 -130,97 2,96 -255,112 -8,1 -96,49 -209,49 316,0 565,75 864,169 356,112 669,-5 1025,-25 182,-10 332,-3 524,-22 37,-3 601,2 626,-15 36,-25 15,-125 23,-164 1,3 34,-8 -2,-17 z"
       id="path68"
       inkscape:connector-curvature="0"
       style="fill:#067124" /><polygon
       class="fil26"
       points="12042,4848 12042,5422 10195,5417 "
       id="polygon70"
       style="fill:#ac7428" /><polygon
       class="fil27"
       points="12034,3742 12008,6374 12234,6357 12285,1877 12023,1877 "
       id="polygon72"
       style="fill:#061f00" /><path
       class="fil28"
       d="m 11985,5836 c -28,-52 -110,-48 -131,3 -19,42 -18,145 1,182 8,16 -60,22 -76,35 -17,14 -71,26 -82,53 -25,65 -87,219 28,216 54,-1 100,-30 190,6 110,43 219,47 199,-157 -6,-62 -64,-124 -116,-149 -19,-10 -24,-28 -3,-56 13,-17 -5,-110 -4,-132 0,-4 -5,6 -6,-1 z"
       id="path74"
       inkscape:connector-curvature="0"
       style="fill:#0a101e" /><polygon
       class="fil29"
       points="9273,1996 8688,2131 11266,2903 11136,2689 11377,2623 "
       id="polygon76"
       style="fill:#043c16" /><polygon
       class="fil13"
       points="12868,6611 13320,6647 13208,4395 13125,1893 12873,1893 "
       id="polygon78"
       style="fill:#618949" /><polygon
       class="fil30"
       points="13754,6664 13752,6936 14496,6993 14496,6723 "
       id="polygon80"
       style="fill:#f5be72" /><path
       class="fil31"
       d="m 11381,8121 c -55,-30 -86,-120 -154,-46 -53,56 208,75 154,46 z"
       id="path82"
       inkscape:connector-curvature="0"
       style="fill:#b11e03" /><path
       class="fil32"
       d="m 10655,8054 c -26,-13 -53,85 -55,112 92,43 198,-197 63,-116 -3,1 -7,5 -8,4 z"
       id="path84"
       inkscape:connector-curvature="0"
       style="fill:#ffffcd" /><path
       class="fil33"
       d="m 10786,8309 c -25,-29 -57,-96 -106,-81 -30,9 20,192 101,136 25,-17 9,-50 5,-55 z"
       id="path86"
       inkscape:connector-curvature="0"
       style="fill:#ab9961" /><path
       class="fil34"
       d="m 12470,7778 c -5,-1 -103,-85 -93,-1 2,18 19,8 -46,8 -25,0 -36,15 -12,37 -4,1 -130,-14 -72,51 32,37 147,-26 114,-43 0,-1 17,-36 96,35 6,5 100,23 63,-43 -43,-7 -71,19 -97,-24 -9,-14 106,4 47,-20 z"
       id="path88"
       inkscape:connector-curvature="0"
       style="fill:#ffffd0" /><path
       class="fil35"
       d="m 12771,7837 c -13,-43 -45,-34 -82,-34 -22,0 2,34 -29,33 -20,-1 13,63 60,63 41,0 22,21 65,16 1,0 41,22 64,0 15,-15 8,-33 -1,-47 -8,-13 -38,-1 -65,-27 -4,-4 -9,3 -12,-4 z"
       id="path90"
       inkscape:connector-curvature="0"
       style="fill:#cc4d24" /><path
       class="fil36"
       d="m 12857,7613 c 17,-22 -181,-166 -169,-29 3,37 52,2 48,106 -1,23 126,45 110,-26 -9,-39 -54,36 11,-51 z"
       id="path92"
       inkscape:connector-curvature="0"
       style="fill:#ff4f21" /><path
       class="fil37"
       d="m 12710,7406 c -59,-10 -1,158 71,74 51,-59 -108,-101 34,-98 7,0 90,23 90,68 0,74 -9,65 107,59 31,-1 53,-40 17,-69 -34,-29 5,-18 45,-28 48,-13 17,86 106,67 6,-16 -64,-106 -115,-105 -92,2 -31,63 -109,53 -25,-3 0,-51 -101,-92 -2,0 -87,-66 -87,7 0,37 -10,-20 -34,47 -2,6 -19,17 -24,17 z"
       id="path94"
       inkscape:connector-curvature="0"
       style="fill:#e1968c" /><path
       class="fil11"
       d="m 12538,7540 c 24,3 -83,-86 -71,14 112,73 -231,153 5,163 36,2 96,-258 105,-39 4,84 224,136 158,-55 -34,-12 -121,-2 -136,-7 -5,-51 -61,-76 -61,-76 z"
       id="path96"
       inkscape:connector-curvature="0"
       style="fill:#ffffff" /><path
       class="fil38"
       d="m 12953,7658 c -11,-2 -125,-50 -87,12 26,42 72,-28 75,41 1,35 101,6 107,11 27,22 31,110 89,87 8,-3 14,-41 -13,-68 -39,-39 -82,-5 -85,-72 -1,-22 -70,-9 -86,-11 z"
       id="path98"
       inkscape:connector-curvature="0"
       style="fill:#fffffb" /><path
       class="fil39"
       d="m 13010,7130 c -51,-9 -164,19 -64,80 21,13 114,51 81,-5 -3,-5 43,-25 82,21 2,3 50,22 30,-13 -15,-25 144,-88 123,50 -6,37 98,38 98,-21 0,-51 57,-15 26,-54 -32,-39 -67,14 -140,-62 -16,-17 -90,7 -92,-11 -5,-41 -130,22 -137,18 z"
       id="path100"
       inkscape:connector-curvature="0"
       style="fill:#ffa13e" /><path
       class="fil11"
       d="m 13525,7552 c 0,0 -137,-114 -133,-22 4,60 56,-37 8,129 -23,78 30,-8 19,134 -1,17 24,44 51,-25 49,-128 35,-96 210,-87 20,1 89,49 9,-40 -115,-129 -49,-21 -125,-63 -14,-7 -32,-22 -39,-26 z"
       id="path102"
       inkscape:connector-curvature="0"
       style="fill:#ffffff" /><path
       class="fil40"
       d="m 13089,7052 c -19,-2 -190,36 -68,-36 40,-23 9,-5 27,-45 57,-25 144,-34 200,-3 1,0 112,28 73,49 -1,0 -142,26 -165,21 -18,-4 -22,-16 -55,2 -5,3 -2,13 -12,12 z"
       id="path104"
       inkscape:connector-curvature="0"
       style="fill:#ffff80" /><path
       class="fil41"
       d="m 13670,7070 c -52,-13 -42,-80 -167,-47 -1,1 -35,-53 -49,-26 -10,20 9,28 9,56 -25,15 -162,8 -76,68 43,31 101,-30 113,-31 66,-4 4,60 130,27 28,-7 60,12 58,-32 0,-6 -14,-13 -18,-15 z"
       id="path106"
       inkscape:connector-curvature="0"
       style="fill:#ffff8c" /><path
       class="fil42"
       d="m 13771,7359 c -74,-70 59,-173 -158,-130 -61,12 -40,21 -43,116 -1,50 249,59 201,14 z"
       id="path108"
       inkscape:connector-curvature="0"
       style="fill:#ffe25e" /><path
       class="fil43"
       d="m 13954,6859 c -50,29 46,127 -18,149 -6,17 0,135 56,82 25,-24 -29,-115 60,-86 9,3 8,161 68,75 12,-17 45,-118 -25,-129 -128,-21 55,-92 -114,-88 -21,1 -20,-7 -27,-3 z"
       id="path110"
       inkscape:connector-curvature="0"
       style="fill:#ffff99" /><path
       class="fil44"
       d="m 14406,7283 c -27,3 -185,-51 -200,-94 -7,-20 -58,-26 -21,58 23,53 -72,28 -39,144 17,59 141,-8 62,-67 -24,-18 37,-64 72,-25 84,92 144,-18 126,-16 z"
       id="path112"
       inkscape:connector-curvature="0"
       style="fill:#fff16a" /><path
       class="fil45"
       d="m 14070,7458 c -23,-36 -44,-66 -92,-57 -15,2 18,8 -28,12 0,0 -24,11 -39,12 -61,8 -41,37 -1,61 45,27 16,41 77,22 54,-16 49,33 73,46 1,12 -66,-22 -66,24 0,23 72,61 75,7 1,-20 17,-21 -2,-39 0,-1 4,-47 9,-47 43,-2 60,59 59,2 0,-23 -25,-4 -60,-39 0,0 -5,-4 -5,-4 z"
       id="path114"
       inkscape:connector-curvature="0"
       style="fill:#ffffd8" /><path
       class="fil11"
       d="m 11960,6010 c -3,-10 -32,8 -24,25 -11,11 -18,22 -33,19 -10,-1 -23,-21 -31,-5 -4,8 13,25 17,43 5,21 7,31 8,53 3,31 31,48 39,77 16,54 23,17 35,46 2,7 37,24 36,-2 -2,-33 12,-34 9,-59 -4,-25 -31,-36 -29,-102 0,0 -11,-38 -12,-47 -3,-22 -8,-18 -10,-42 0,-2 -4,-4 -5,-6 z"
       id="path116"
       inkscape:connector-curvature="0"
       style="fill:#ffffff" /><path
       class="fil46"
       d="m 11946,6050 c 31,35 -57,15 -10,31 16,5 -5,27 10,35 23,12 24,41 33,64 0,3 3,19 -6,37 -13,27 -44,2 -48,-27 -2,-14 1,-44 4,-56 6,-24 -24,-37 -13,-81 1,-4 14,-12 30,-3 z"
       id="path118"
       inkscape:connector-curvature="0"
       style="fill:#b1b2bb" /><path
       class="fil47"
       d="m 12009,5898 c -1,0 -2,-1 -4,-1 l -2,-8 c -7,-3 -2,-15 -2,-23 0,-22 2,-31 -16,-43 -38,-25 -63,-38 -109,-15 -15,8 -16,4 -30,24 -27,38 -14,95 -18,140 -2,14 35,84 59,79 18,-4 12,-3 38,-3 19,0 21,-23 35,-42 17,-22 28,-34 30,-34 18,2 24,-70 19,-74 z"
       id="path120"
       inkscape:connector-curvature="0"
       style="fill:#ffca9e" /><path
       class="fil48"
       d="m 11866,5937 c -43,38 7,45 11,49 5,7 25,38 31,42 3,1 19,18 13,22 -52,31 -59,-19 -78,-39 -14,-15 -25,-58 -9,-71 4,-3 2,-15 11,-6 4,3 24,0 21,3 z"
       id="path122"
       inkscape:connector-curvature="0"
       style="fill:#823824" /><path
       class="fil49"
       d="m 11914,5795 c -1,0 -32,5 -37,7 -23,11 -47,27 -53,48 -5,17 -4,9 33,8 22,-1 92,23 112,42 21,19 32,15 35,-7 3,-17 22,-33 -7,-71 -9,-11 -53,-26 -69,-26 -4,0 -14,-1 -14,-1 z"
       id="path124"
       inkscape:connector-curvature="0"
       style="fill:#7e380a" /><path
       class="fil50"
       d="m 11900,5908 c -13,-5 -53,-18 -62,2 -18,43 89,40 117,24 21,-11 -46,-22 -55,-26 z"
       id="path126"
       inkscape:connector-curvature="0"
       style="fill:#ab2b00" /><polygon
       class="fil51"
       points="13327,6287 13758,6327 10659,6420 10041,6365 "
       id="polygon128"
       style="fill:#282f30" /><polygon
       class="fil52"
       points="11251,6336 11254,6362 10919,6364 10930,6335 "
       id="polygon130"
       style="fill:#c7ac97" /><path
       class="fil53"
       d="m 10943,5784 c -13,-60 -217,-144 -213,108 1,40 -64,-5 -108,74 -56,100 -106,80 -106,250 0,51 5,32 2,98 -5,96 32,20 139,69 79,37 157,-82 219,-88 82,-8 -2,82 140,39 137,-42 -2,-159 8,-227 2,-19 -28,-18 -32,-98 -2,-41 -4,-75 -52,-94 -7,-3 9,-103 3,-131 z"
       id="path132"
       inkscape:connector-curvature="0"
       style="fill:#141830" /><path
       class="fil54"
       d="m 10765,5889 c -62,1 -10,64 -8,104 0,24 51,139 51,183 0,21 2,69 31,69 63,0 45,-82 24,-120 -25,-48 41,-128 10,-124 -10,2 -29,61 -80,-7 -23,-30 -26,-34 -31,-91 -1,-6 14,-14 3,-14 z"
       id="path134"
       inkscape:connector-curvature="0"
       style="fill:#fdfcf5" /><path
       class="fil55"
       d="m 10774,5977 c 57,48 107,36 97,62 -8,22 -38,-19 -27,78 3,24 31,109 20,118 -16,13 -64,20 -64,-33 0,-32 -3,-69 5,-99 11,-47 21,-56 -26,-98 -11,-11 -18,-39 -5,-28 z"
       id="path136"
       inkscape:connector-curvature="0"
       style="fill:#6d1610" /><path
       class="fil56"
       d="m 10933,5831 c 19,17 20,16 11,48 -5,21 3,35 -17,53 -14,13 -30,89 -71,89 -31,0 -21,-10 -49,-21 -27,-10 -54,-54 -50,-77 7,-44 -2,-40 23,-79 3,-6 37,-48 41,-50 37,-13 60,4 91,20 0,0 21,16 21,17 z"
       id="path138"
       inkscape:connector-curvature="0"
       style="fill:#ffd6ac" /><path
       class="fil57"
       d="m 10819,5897 c 0,25 -4,77 35,69 4,0 12,-4 17,6 9,16 -26,5 -38,35 -7,17 -38,-33 -68,-118 -6,-18 0,-30 15,-41 13,-9 29,-20 19,8 -7,20 20,30 20,41 z"
       id="path140"
       inkscape:connector-curvature="0"
       style="fill:#4d1b03" /><path
       class="fil58"
       d="m 10851,5799 c -6,1 0,27 -12,32 -13,5 -3,19 -28,19 -17,0 -3,-3 -15,-8 -2,-1 -8,3 -12,5 -8,5 -9,10 -13,15 -1,1 -2,-16 13,-24 0,0 17,-24 19,-27 9,-14 30,-18 41,-16 4,0 18,-4 10,4 -1,1 -2,0 -3,0 z"
       id="path142"
       inkscape:connector-curvature="0"
       style="fill:#6a3818" /><path
       class="fil59"
       d="m 10946,5843 c 6,5 45,9 12,-38 -23,-34 4,-54 -48,-63 -13,-3 -2,-26 -67,-26 -63,0 -42,7 -77,33 -18,14 -31,75 -34,99 -2,25 -7,91 31,37 4,-5 11,-34 20,-46 10,-12 21,-30 35,-37 42,-21 70,8 77,8 19,1 40,24 51,33 z"
       id="path144"
       inkscape:connector-curvature="0"
       style="fill:#6d5734" /><path
       class="fil60"
       d="m 10821,6251 c 17,-3 72,4 100,4 7,0 92,-9 73,19 -11,16 -143,8 -56,56 40,22 -24,41 -42,41 -16,0 -156,3 -155,-8 1,-29 27,-15 61,-41 0,0 70,-21 26,-49 -23,-14 -16,-21 -7,-22 z"
       id="path146"
       inkscape:connector-curvature="0"
       style="fill:#ffffdd" /><path
       class="fil61"
       d="m 10935,5893 c -18,2 -64,-22 -86,-27 -10,-3 -54,-38 -52,-6 1,24 27,36 49,36 32,0 7,44 28,55 4,2 22,-12 -2,-29 -3,-3 -8,-30 11,-23 17,7 -5,13 47,13 12,0 11,-20 5,-19 z"
       id="path148"
       inkscape:connector-curvature="0"
       style="fill:#781300" /><polygon
       class="fil62"
       points="13392,6169 13397,6180 13093,6283 13094,6270 "
       id="polygon150"
       style="fill:#dbc4b2" /><path
       class="fil15"
       d="m 12932,5863 c -2,-37 -60,-44 -63,-57 14,5 -105,31 -105,46 -2,69 90,85 5,112 -28,10 -109,27 -131,66 -18,33 -20,49 -28,89 -22,102 -27,172 98,182 23,2 90,12 111,1 37,-20 153,-31 192,-18 15,5 143,-7 152,-15 25,-24 -4,-75 -25,-95 -21,-19 -37,-13 -50,-36 -10,-21 -57,-23 -74,-67 -9,-22 -5,-13 -13,-36 -13,-38 -87,4 -63,-57 13,-35 -9,-61 -3,-83 3,-14 -3,-22 -3,-32 z"
       id="path152"
       inkscape:connector-curvature="0"
       style="fill:#000000" /><path
       class="fil63"
       d="m 12927,5848 c -17,-24 -20,-47 -102,-42 -33,2 -72,35 -64,74 8,38 -24,64 36,96 57,30 34,78 115,63 18,-4 -11,-68 17,-65 34,4 10,-109 -2,-126 z"
       id="path154"
       inkscape:connector-curvature="0"
       style="fill:#ffbe93" /><path
       class="fil64"
       d="m 12920,6053 c -7,-2 -65,-4 -68,3 -4,9 -6,42 -15,54 -13,18 -8,95 -8,120 0,17 -15,73 16,71 24,-1 46,6 77,4 44,-3 18,-2 29,-40 8,-27 -15,-90 -17,-121 -1,-25 -14,-38 -11,-71 0,-4 0,-19 -3,-20 z"
       id="path156"
       inkscape:connector-curvature="0"
       style="fill:#b4b4a5" /><polygon
       class="fil65"
       points="13368,6258 13373,6283 13039,6308 13048,6279 "
       id="polygon158"
       style="fill:#b8a08d" /><polygon
       class="fil62"
       points="13318,6262 13321,6287 12986,6286 12997,6258 "
       id="polygon160"
       style="fill:#dbc4b2" /><path
       class="fil63"
       d="m 13196,6228 c -2,-26 -58,-54 -97,-32 -41,23 -90,-3 -88,38 1,28 8,54 44,39 58,-25 114,-8 136,-16 5,-2 4,-23 5,-29 z"
       id="path162"
       inkscape:connector-curvature="0"
       style="fill:#ffbe93" /><path
       class="fil15"
       d="m 13021,6208 c -18,4 -80,-5 -110,-3 -39,2 -65,5 -104,0 -40,-5 -40,15 -67,-35 -11,-21 -50,-26 -72,-26 -21,1 -28,84 -4,111 32,38 59,70 113,73 64,5 81,-5 137,-9 44,-3 49,-30 108,-32 1,0 14,-6 4,-13 -10,-7 -23,-49 -4,-56 6,-2 7,-12 -1,-10 z"
       id="path164"
       inkscape:connector-curvature="0"
       style="fill:#000000" /><path
       class="fil66"
       d="m 12911,6205 c 5,-16 -17,-82 -13,-112 6,-47 -36,-47 -36,-35 0,34 16,87 7,116 -3,6 -7,31 4,31 4,0 37,2 38,0 z"
       id="path166"
       inkscape:connector-curvature="0"
       style="fill:#0e1b0e" /><path
       class="fil67"
       d="m 12793,5889 c 7,30 77,40 78,70 2,26 -16,25 -9,37 2,3 8,10 12,22 5,13 20,28 -2,27 -1,0 -63,-35 -77,-43 -16,-10 -43,-64 -33,-85 4,-8 -10,-35 24,-32 1,0 7,2 7,4 z"
       id="path168"
       inkscape:connector-curvature="0"
       style="fill:#3c0600" /><path
       class="fil68"
       d="m 12938,5915 c -15,-4 -2,7 -23,-8 -6,-4 -54,-4 -54,3 0,14 6,23 22,23 12,0 29,2 36,-9 7,-11 14,19 22,5 2,-4 3,-12 -3,-14 z"
       id="path170"
       inkscape:connector-curvature="0"
       style="fill:#9e1600" /><path
       class="fil69"
       d="m 12924,5966 c -6,-2 -23,-7 -22,4 1,15 -7,19 -22,16 -6,-1 -26,3 -11,17 3,4 12,35 7,37 -4,1 -9,7 4,7 15,0 38,2 40,-20 2,-22 24,-32 9,-55 -1,-2 -4,-6 -5,-6 z"
       id="path172"
       inkscape:connector-curvature="0"
       style="fill:#7c2b0c" /><path
       class="fil70"
       d="m 12778,5961 c 21,34 22,7 -53,29 -102,29 -100,116 -98,242 1,79 60,51 138,76 13,4 54,3 93,7 30,2 -87,25 -116,2 -9,-8 -63,-7 -96,-23 -60,-32 -45,-139 -36,-195 8,-51 53,-116 106,-119 0,0 52,-14 51,-20 -1,-4 7,-5 11,1 z"
       id="path174"
       inkscape:connector-curvature="0"
       style="fill:#4d524f" /><polygon
       class="fil65"
       points="12002,6317 12007,6342 11673,6367 11682,6338 "
       id="polygon176"
       style="fill:#b8a08d" /><polygon
       class="fil62"
       points="11952,6321 11955,6346 11620,6345 11631,6317 "
       id="polygon178"
       style="fill:#dbc4b2" /><polygon
       class="fil71"
       points="6729,6681 6312,6772 7008,7259 10139,6983 10150,6577 "
       id="polygon180"
       style="fill:#42bc54" /><polygon
       class="fil72"
       points="10041,6365 10044,6417 10110,6422 10111,7216 10592,7306 10614,6520 10659,6496 10659,6420 "
       id="polygon182"
       style="fill:#181400" /><polygon
       class="fil73"
       points="8564,6288 8567,7415 8977,7377 8977,6285 "
       id="polygon184"
       style="fill:#43250c" /><path
       class="fil74"
       d="m 8845,5844 c -124,-90 -564,-188 -750,-254 -42,-15 -301,-70 -324,-55 -87,56 -331,3 -337,20 -30,82 -297,-55 -347,-19 -29,21 -279,-71 -272,35 5,67 587,167 647,201 65,36 411,185 494,203 209,44 102,30 317,-54 86,-33 46,-32 157,-33 78,0 289,59 341,14 45,-40 5,-12 63,-47 3,-2 12,-11 11,-11 z"
       id="path186"
       inkscape:connector-curvature="0"
       style="fill:#7c8f2f" /><path
       class="fil75"
       d="m 9066,5592 c -156,-125 -217,-69 -393,-114 -127,-32 -204,-44 -331,-102 -72,-34 -186,-64 -251,-118 -89,-73 -328,-21 -431,-47 -57,-14 -201,16 -243,-22 -41,-37 -245,-78 -316,-73 -197,13 -2,57 22,116 28,71 479,73 616,117 45,15 91,-15 77,49 -57,256 1,148 227,189 53,10 606,146 616,182 21,69 244,154 371,129 41,-8 308,-61 320,-115 -2,5 -30,-47 -78,-57 -8,-2 -30,-16 -36,-17 15,-21 -110,-60 -128,-65 -19,-6 -38,-26 -37,-48 0,-1 -4,-3 -5,-4 z"
       id="path188"
       inkscape:connector-curvature="0"
       style="fill:#b27925" /><polygon
       class="fil76"
       points="8201,6239 8284,6216 8275,7328 8569,7410 8567,6296 8977,6293 8976,6199 8455,6201 8455,6099 8490,6099 8489,5894 8460,5904 8460,5825 8209,5933 "
       id="polygon190"
       style="fill:#030000" /><polygon
       class="fil77"
       points="6044,6775 6225,1903 6383,1903 6191,6791 "
       id="polygon192"
       style="fill:#005429" /><polygon
       class="fil78"
       points="6044,6775 5566,6797 5566,1903 6225,1903 "
       id="polygon194"
       style="fill:#689df1" /><ellipse
       class="fil11"
       cx="7733"
       cy="2035"
       rx="95"
       ry="69"
       id="ellipse196"
       style="fill:#ffffff" /><ellipse
       class="fil11"
       cx="8665"
       cy="2302"
       rx="95"
       ry="69"
       id="ellipse198"
       style="fill:#ffffff" /><ellipse
       class="fil11"
       cx="9323"
       cy="2501"
       rx="88"
       ry="59"
       id="ellipse200"
       style="fill:#ffffff" /><ellipse
       class="fil79"
       cx="9536"
       cy="2515"
       rx="70"
       ry="72"
       id="ellipse202"
       style="fill:#ffffbe" /><ellipse
       class="fil79"
       transform="matrix(1.00996,0.322924,-0.383018,1.1979,9740.92,2569.56)"
       rx="66"
       ry="57"
       id="ellipse204"
       cx="0"
       cy="0"
       style="fill:#ffffbe" /><ellipse
       class="fil79"
       transform="matrix(1.00996,0.261368,-0.383018,0.96956,9949.73,2627.88)"
       rx="66"
       ry="57"
       id="ellipse206"
       cx="0"
       cy="0"
       style="fill:#ffffbe" /><ellipse
       class="fil79"
       transform="matrix(1.02169,-0.210873,0.0838776,1.03909,10126.6,2689.01)"
       rx="66"
       ry="57"
       id="ellipse208"
       cx="0"
       cy="0"
       style="fill:#ffffbe" /><ellipse
       class="fil79"
       transform="matrix(1.02169,-0.210873,0.0838776,1.03909,10305.2,2735.97)"
       rx="66"
       ry="57"
       id="ellipse210"
       cx="0"
       cy="0"
       style="fill:#ffffbe" /><ellipse
       class="fil79"
       transform="matrix(0.997381,-0.205855,0.0818815,1.01437,10466.5,2799.57)"
       rx="66"
       ry="57"
       id="ellipse212"
       cx="0"
       cy="0"
       style="fill:#ffffbe" /><ellipse
       class="fil80"
       cx="9976"
       cy="2007"
       rx="95"
       ry="69"
       id="ellipse214"
       style="fill:#c2ffff" /><path
       class="fil81"
       d="m 10037,7671 c -101,24 -157,25 -257,52 -82,22 -224,11 -324,46 -76,26 -227,-2 -260,84 -25,65 -208,-44 -312,-22 -134,30 -127,-42 -269,-78 -120,-31 -149,-90 -293,-88 -28,1 -123,-24 -99,-60 44,-66 -146,-46 58,-93 59,-13 123,21 41,-79 -56,0 -76,-189 11,-148 138,64 232,92 375,95 93,1 162,6 252,-13 124,-26 44,20 199,52 75,16 20,43 161,43 258,0 222,29 455,103 64,21 122,63 214,89 2,0 67,12 48,17 z"
       id="path216"
       inkscape:connector-curvature="0"
       style="fill:#ffb47c" /><polygon
       class="fil82"
       points="9567,6484 9444,6655 9511,6844 9641,6935 9948,6927 10002,6845 9834,6480 "
       id="polygon218"
       style="fill:#000600" /><polygon
       class="fil82"
       points="7008,7259 6788,7516 6195,7503 6191,6791 6399,6759 "
       id="polygon220"
       style="fill:#000600" /><polygon
       class="fil83"
       points="6044,6775 5566,6797 5566,8236 6500,8131 6043,7639 6195,7503 6191,6791 "
       id="polygon222"
       style="fill:#432910" /><polygon
       class="fil84"
       points="5566,8236 5566,8846 8190,8846 6402,7507 6195,7503 5921,7588 6405,8104 "
       id="polygon224"
       style="fill:#8f9949" /><path
       class="fil85"
       d="m 8747,5292 c -133,-89 -231,-127 -391,-132 -49,-2 -166,-22 -189,-6 -29,21 22,-56 -84,-55 -13,0 -313,-9 -321,-24 -84,-164 -187,49 -393,-20 -95,-32 -100,-16 -174,-64 -81,-54 -179,-59 -272,-56 -31,0 -55,-56 -137,35 -56,63 165,126 197,143 78,41 -25,51 180,30 179,-19 167,76 384,75 85,-1 483,4 524,32 197,140 400,5 596,80 1,0 83,-36 80,-38 z"
       id="path226"
       inkscape:connector-curvature="0"
       style="fill:#0c89ff" /><path
       class="fil86"
       d="m 6870,5122 c -633,-390 245,20 278,69 67,99 45,58 214,64 85,3 154,20 231,51 82,33 335,-5 236,170 -24,43 8,153 -258,101 -33,-6 -81,-23 -108,-5 -6,49 -263,-26 -314,-25 -23,0 -283,-6 -289,-17 -14,-25 -56,-400 -33,-403 6,0 56,3 43,-5 z"
       id="path228"
       inkscape:connector-curvature="0"
       style="fill:#03381b" /><polygon
       class="fil87"
       points="6569,6757 6191,6791 6383,1903 7018,1903 "
       id="polygon230"
       style="fill:#c3f188" /><path
       class="fil88"
       d="m 8121,5993 c -17,53 -575,-199 -598,-219 -106,-89 -155,-86 -292,-100 -35,-4 -380,-170 -392,-103 -28,160 -107,57 -68,405 29,261 -60,298 256,298 320,0 638,21 960,19 168,-1 247,25 213,-183 -5,-31 -23,-42 -40,-62 -1,-9 -14,-25 -20,-34 -5,-7 -12,-11 -17,-19 0,-1 -2,-2 -2,-2 z"
       id="path232"
       inkscape:connector-curvature="0"
       style="fill:#b68938" /><polygon
       class="fil89"
       points="6566,6758 6830,6740 6947,2651 "
       id="polygon234"
       style="fill:#ffe0be" /><path
       class="fil90"
       d="m 8947,5518 c 41,-61 397,-14 462,5 93,28 144,25 245,69 91,40 154,67 253,67 -4,38 -191,14 -250,25 -115,21 -223,20 -333,35 -31,4 -52,26 -69,9 -12,-13 -107,-69 -130,-76 -62,-20 -29,-1 -68,-62 -14,-21 -124,-61 -124,-66 0,-13 3,-2 14,-6 z"
       id="path236"
       inkscape:connector-curvature="0"
       style="fill:#599d21" /><path
       class="fil91"
       d="m 9717,5681 c -22,1 -1,-2 34,25 31,23 74,31 38,81 -21,28 -182,-22 -221,72 -32,75 -42,98 11,171 37,49 80,50 137,55 22,2 240,11 162,-49 -27,-21 -117,-100 -118,-132 -1,-47 124,-55 128,-109 6,-72 -15,-103 -90,-124 -14,-4 -68,-9 -78,9 -2,0 2,0 -3,1 z"
       id="path238"
       inkscape:connector-curvature="0"
       style="fill:#7cacd3" /><path
       class="fil92"
       d="m 9355,5363 c -259,93 -401,-156 -654,-48 -20,9 -135,-16 -177,-19 -148,-9 -294,-45 -440,-54 -116,-6 -85,-13 29,50 47,27 293,121 349,130 75,12 155,15 215,71 10,9 238,66 278,30 9,-8 156,-8 220,-23 182,-46 80,20 198,-51 147,-88 113,-133 -18,-86 z"
       id="path240"
       inkscape:connector-curvature="0"
       style="fill:#294f1a" /><polygon
       class="fil93"
       points="6938,7318 6920,7357 8435,7323 8401,7302 "
       id="polygon242"
       style="fill:#302100" /><path
       class="fil94"
       d="m 8340,5366 c -5,147 -183,72 -210,166 -14,52 -16,20 -17,73 -2,66 -91,86 -36,321 19,78 39,81 83,122 33,134 22,161 -12,278 -2,9 -4,36 6,36 12,1 32,24 40,31 0,87 -7,719 23,786 32,74 -4,63 58,124 20,20 41,-6 110,5 46,7 33,-24 34,-43 13,-208 -106,-223 -43,-535 50,-249 14,-469 -22,-716 -8,-50 0,-132 58,-150 63,-20 -19,-58 127,-15 2,0 212,0 237,0 -17,-76 -41,-9 -44,-86 0,-1 -56,-100 -68,-128 -24,-55 -8,-52 1,-87 27,-108 -18,-123 -113,-138 -9,-1 -52,1 -29,-30 1,-2 29,-37 16,-32 -82,31 -277,394 -2,-168 57,-116 -159,-81 -169,-85 -48,-18 -69,84 -77,131 -8,48 73,94 49,140 z"
       id="path244"
       inkscape:connector-curvature="0"
       style="fill:#1b3264" /><path
       class="fil11"
       d="m 8505,5409 c -85,35 -184,-134 -171,-25 3,28 106,178 124,217 28,59 4,108 39,162 7,12 8,72 22,71 30,0 124,29 126,4 4,-57 -59,-225 -81,-275 -15,-36 -49,-158 -59,-154 z"
       id="path246"
       inkscape:connector-curvature="0"
       style="fill:#ffffff" /><path
       class="fil95"
       d="m 8442,5441 c -15,32 14,44 14,89 0,92 33,85 33,135 0,49 25,98 32,152 2,22 37,32 63,32 25,0 14,-22 4,-61 -3,-14 -45,-134 -51,-144 -20,-35 -20,-102 -49,-142 -18,-25 15,-83 -33,-81 -14,1 -12,17 -13,20 z"
       id="path248"
       inkscape:connector-curvature="0"
       style="fill:#00346d" /><g
       id="_881683600"><polygon
         class="fil96"
         points="8923,5858 8886,5846 8647,5660 8659,5648 "
         id="polygon250"
         style="fill:#2b2a29" /><ellipse
         class="fil96"
         transform="matrix(1.04747,0.561859,-0.561859,1.04747,8641.75,5645.86)"
         rx="20"
         ry="18"
         id="ellipse252"
         cx="0"
         cy="0"
         style="fill:#2b2a29" /></g><polygon
       class="fil73"
       points="9276,5851 9281,5931 9236,5923 9236,6124 9289,6119 9284,6201 8453,6203 8453,6097 8487,6097 8487,5896 8458,5907 8458,5820 8482,5833 "
       id="polygon255"
       style="fill:#43250c" /><path
       class="fil97"
       d="m 8533,5189 c -5,-8 7,-36 -41,-46 -15,-3 -77,-1 -88,7 -24,16 -7,5 -36,40 -11,14 1,98 -22,70 -1,-1 -42,-11 -41,5 1,23 -17,9 16,62 15,23 15,3 50,41 11,11 29,35 45,40 34,9 88,20 111,-16 15,-25 10,-8 20,-49 5,-19 4,-64 -4,-83 -3,-9 -3,-34 -6,-53 0,-2 -3,-15 -4,-18 z"
       id="path257"
       inkscape:connector-curvature="0"
       style="fill:#ffcdbe" /><path
       class="fil98"
       d="m 8527,5167 c 7,68 31,-46 9,-44 18,-27 -61,-32 -83,-30 -57,4 -103,-21 -140,34 -1,1 -47,126 -15,138 83,31 62,16 67,16 -7,-3 -3,-33 7,-40 26,-18 -5,-81 35,-87 28,-4 91,-15 111,9 8,10 8,2 9,4 z"
       id="path259"
       inkscape:connector-curvature="0"
       style="fill:#675e4d" /><path
       class="fil99"
       d="m 8471,5239 c -9,-12 -22,-24 -41,-15 -12,6 -39,14 -31,33 5,16 49,7 63,1 0,0 13,21 12,26 0,4 10,21 10,-13 0,-19 7,-32 -13,-32 z"
       id="path261"
       inkscape:connector-curvature="0"
       style="fill:#c69783" /><path
       class="fil99"
       d="m 8541,5218 c 4,24 -2,59 2,42 3,-10 3,14 -21,11 0,0 0,0 -13,-3 -8,-1 0,-19 -12,-6 -6,6 -4,-18 5,-18 10,-1 16,-47 38,-27 z"
       id="path263"
       inkscape:connector-curvature="0"
       style="fill:#c69783" /><path
       class="fil100"
       d="m 8494,5289 c -15,64 15,23 15,40 0,18 13,6 -11,8 -5,0 -19,-1 -22,-8 -15,-31 8,-31 6,-67 0,-3 12,21 12,27 z"
       id="path265"
       inkscape:connector-curvature="0"
       style="fill:#a85d5e" /><path
       class="fil101"
       d="m 8498,5359 c -5,2 -15,-4 -34,-2 -5,1 -21,17 9,17 7,0 48,-5 48,-8 0,-14 -12,-11 -23,-7 z"
       id="path267"
       inkscape:connector-curvature="0"
       style="fill:#964f4f" /><ellipse
       class="fil11"
       cx="11433"
       cy="3009"
       rx="95"
       ry="69"
       id="ellipse269"
       style="fill:#ffffff" /><ellipse
       class="fil11"
       transform="matrix(0.885004,0.465583,-0.668346,1.27043,10639.4,2899.19)"
       rx="88"
       ry="41"
       id="ellipse271"
       cx="0"
       cy="0"
       style="fill:#ffffff" /><ellipse
       class="fil80"
       cx="11601"
       cy="2517"
       rx="95"
       ry="69"
       id="ellipse273"
       style="fill:#c2ffff" /><polygon
       class="fil102"
       points="10659,6496 10614,6520 10592,7306 13752,6936 13758,6327 10659,6420 "
       id="polygon275"
       style="fill:#4c1600" /></g></svg>