<?xml version="1.0" encoding="UTF-8" standalone="no"?>
<!-- Creator: CorelDRAW X8 -->

<svg
   xmlns:dc="http://purl.org/dc/elements/1.1/"
   xmlns:cc="http://creativecommons.org/ns#"
   xmlns:rdf="http://www.w3.org/1999/02/22-rdf-syntax-ns#"
   xmlns:svg="http://www.w3.org/2000/svg"
   xmlns="http://www.w3.org/2000/svg"
   xmlns:sodipodi="http://sodipodi.sourceforge.net/DTD/sodipodi-0.dtd"
   xmlns:inkscape="http://www.inkscape.org/namespaces/inkscape"
   xml:space="preserve"
   width="140"
   height="140"
   version="1.1"
   style="clip-rule:evenodd;fill-rule:evenodd;image-rendering:optimizeQuality;shape-rendering:geometricPrecision;text-rendering:geometricPrecision"
   viewBox="0 0 3704.1667 3704.1668"
   id="svg1820"
   sodipodi:docname="block_press_zoom.svg"
   inkscape:version="0.92.2 (5c3e80d, 2017-08-06)"><metadata
     id="metadata1824"><rdf:RDF><cc:Work
         rdf:about=""><dc:format>image/svg+xml</dc:format><dc:type
           rdf:resource="http://purl.org/dc/dcmitype/StillImage" /><dc:title></dc:title></cc:Work></rdf:RDF></metadata><sodipodi:namedview
     pagecolor="#ffffff"
     bordercolor="#666666"
     borderopacity="1"
     objecttolerance="10"
     gridtolerance="10"
     guidetolerance="10"
     inkscape:pageopacity="0"
     inkscape:pageshadow="2"
     inkscape:window-width="1920"
     inkscape:window-height="1017"
     id="namedview1822"
     showgrid="false"
     units="px"
     inkscape:zoom="1.5108866"
     inkscape:cx="428.9276"
     inkscape:cy="-21.459841"
     inkscape:window-x="-8"
     inkscape:window-y="-8"
     inkscape:window-maximized="1"
     inkscape:current-layer="svg1820" /><defs
     id="defs1807"><style
       type="text/css"
       id="style1805"><![CDATA[
    .fil1 {fill:#1B4145}
    .fil2 {fill:#C2B8B9}
    .fil0 {fill:#F14742}
   ]]></style></defs><g
     id="Слой_x0020_1"
     transform="translate(-9597.4783,-9738.2171)"><metadata
       id="CorelCorpID_0Corel-Layer" /><g
       id="_1119088848"><path
         class="fil0"
         d="m 10817,12308 602,-580 c 179,162 415,262 674,267 572,11 1045,-445 1056,-1016 11,-572 -446,-1045 -1017,-1056 -571,-11 -1045,446 -1055,1017 -5,259 86,499 241,684 l -601,580 c -15,13 -23,32 -23,50 0,19 6,38 21,52 27,28 74,29 102,2 z m 1313,-2240 c 491,9 883,416 874,907 -10,492 -417,884 -908,874 -491,-9 -884,-416 -874,-907 9,-491 416,-883 908,-874 z"
         id="path1810"
         inkscape:connector-curvature="0"
         style="fill:#f14742" /><g
         id="g1816"><path
           class="fil1"
           d="m 10907,12428 -820,820 c -86,86 -174,36 -260,-49 -85,-86 -135,-174 -50,-260 l 820,-820 255,54 z"
           id="path1812"
           inkscape:connector-curvature="0"
           style="fill:#1b4145" /><path
           class="fil2"
           d="m 11007,12328 -100,100 -310,-309 100,-100 c 86,-86 224,-86 310,0 85,85 85,224 0,309 z"
           id="path1814"
           inkscape:connector-curvature="0"
           style="fill:#c2b8b9" /></g></g></g><rect
     style="fill:none;stroke-width:26.45833206"
     id="rect1826"
     width="3694.988"
     height="3659.9646"
     x="9543.9268"
     y="-16136.693" /></svg>