<?xml version="1.0" encoding="UTF-8" standalone="no"?>
<!-- Creator: CorelDRAW X8 -->

<svg
   xmlns:dc="http://purl.org/dc/elements/1.1/"
   xmlns:cc="http://creativecommons.org/ns#"
   xmlns:rdf="http://www.w3.org/1999/02/22-rdf-syntax-ns#"
   xmlns:svg="http://www.w3.org/2000/svg"
   xmlns="http://www.w3.org/2000/svg"
   xmlns:sodipodi="http://sodipodi.sourceforge.net/DTD/sodipodi-0.dtd"
   xmlns:inkscape="http://www.inkscape.org/namespaces/inkscape"
   xml:space="preserve"
   width="795"
   height="186"
   version="1.1"
   style="clip-rule:evenodd;fill-rule:evenodd;image-rendering:optimizeQuality;shape-rendering:geometricPrecision;text-rendering:geometricPrecision"
   viewBox="0 0 21034.375 4921.2501"
   id="svg45"
   sodipodi:docname="bottomground.svg"
   inkscape:version="0.92.2 (5c3e80d, 2017-08-06)"><metadata
     id="metadata49"><rdf:RDF><cc:Work
         rdf:about=""><dc:format>image/svg+xml</dc:format><dc:type
           rdf:resource="http://purl.org/dc/dcmitype/StillImage" /><dc:title></dc:title></cc:Work></rdf:RDF></metadata><sodipodi:namedview
     pagecolor="#ffffff"
     bordercolor="#666666"
     borderopacity="1"
     objecttolerance="10"
     gridtolerance="10"
     guidetolerance="10"
     inkscape:pageopacity="0"
     inkscape:pageshadow="2"
     inkscape:window-width="1920"
     inkscape:window-height="1017"
     id="namedview47"
     showgrid="false"
     units="px"
     inkscape:zoom="0.84096521"
     inkscape:cx="614.0567"
     inkscape:cy="62.276025"
     inkscape:window-x="-8"
     inkscape:window-y="-8"
     inkscape:window-maximized="1"
     inkscape:current-layer="svg45" /><defs
     id="defs4"><style
       type="text/css"
       id="style2"><![CDATA[
    .fil12 {fill:#EBECEC}
    .fil8 {fill:#C5C6C6}
    .fil7 {fill:#B2B3B3}
    .fil4 {fill:#FFF383}
    .fil9 {fill:#FFDF49}
    .fil10 {fill:#FECC00}
    .fil11 {fill:#F39314}
    .fil0 {fill:#AED8DE}
    .fil3 {fill:#A6D7D5}
    .fil1 {fill:#ADCE6E}
    .fil6 {fill:#92C570}
    .fil2 {fill:#7CC0C6}
    .fil5 {fill:#74BB71}
   ]]></style></defs><g
     id="Слой_x0020_1"
     transform="translate(31.461864,-24841.673)"><metadata
       id="CorelCorpID_0Corel-Layer" /><g
       id="_873908256"><polygon
         class="fil0"
         points="20088,25530 20088,26091 19923,26129 19923,25804 19420,25739 19420,25739 19018,25867 19018,26209 18895,26195 18706,26241 18706,27797 18516,28143 18516,28324 18453,28339 18453,26417 17858,26417 17858,26417 17388,26500 17388,26671 16632,26574 16028,26714 16028,27010 15776,27058 15776,27289 15664,27315 15664,27006 15405,26976 15274,27008 15274,27232 15143,27263 15143,27388 15012,27420 15012,27654 14898,27641 14898,27610 14550,27565 14550,27565 14272,27654 14272,28260 13955,28219 13955,28219 13677,28308 13677,29166 14303,29166 14303,29014 14417,28988 14417,29166 16793,29166 16793,28957 16894,28970 16894,29166 18162,29166 18162,28644 17858,28605 17858,28576 18326,28576 18326,29166 21031,29166 21031,26816 21031,24931 20657,24887 20467,24933 20467,25257 20278,25303 20278,25484 "
         id="polygon7"
         style="fill:#aed8de" /><path
         class="fil1"
         d="m 20046,29853 h 985 v -123 c -331,55 -659,98 -985,123 z"
         id="path9"
         inkscape:connector-curvature="0"
         style="fill:#adce6e" /><path
         class="fil2"
         d="m 18248,27326 c 356,0 1248,0 1603,0 v 0 l 252,26 v -95 l 190,-46 122,14 v -51 l 403,-129 v 0 l 213,28 v 1597 c -1485,-9 -2951,-18 -4622,-18 l -258,-225 131,-32 v -125 l 131,-32 v -224 l 131,-32 259,30 v 309 l 112,-26 v -231 l 252,-47 v -297 l 605,-140 476,98 z m -2553,1326 252,-81 v 0 l 90,45 v 31 l 299,5 z"
         id="path11"
         inkscape:connector-curvature="0"
         style="fill:#7cc0c6" /><polygon
         class="fil3"
         points="1210,29853 1210,27990 15624,27990 15624,29853 "
         id="polygon13"
         style="fill:#a6d7d5" /><path
         class="fil4"
         d="m -20,26578 c 4419,523 8916,2046 11859,3275 H -20 Z"
         id="path15"
         inkscape:connector-curvature="0"
         style="fill:#fff383" /><path
         class="fil5"
         d="m 16979,27966 c -99,-192 -317,-481 -456,-362 -138,118 -310,-111 -432,-20 -122,91 -60,225 -334,156 -274,-68 -380,252 -510,126 -130,-127 -219,-181 -284,-120 -65,61 -71,-62 -192,-61 -121,1 -300,-27 -267,122 34,149 -120,75 -115,-11 6,-86 -127,-143 -200,-122 -73,21 -166,-1 -244,-50 -78,-50 -170,-36 -373,25 -203,61 -323,20 -300,152 23,131 -30,86 -78,108 -48,23 -135,70 -159,-7 -24,-78 -85,-34 -177,-98 -92,-64 -203,-8 -254,111 -52,119 -148,-59 -200,-25 -52,33 -120,-54 -177,-4 -57,50 -45,81 -148,48 -103,-33 -146,-30 -257,56 -111,86 -138,-37 -203,8 -65,45 -58,14 -132,44 -74,31 -36,104 -151,53 -115,-51 -253,-42 -253,0 0,41 -35,-53 -92,3 -57,55 -8,38 -108,36 -100,-3 -151,55 -292,83 -141,27 -94,-89 -149,-56 -55,34 -51,7 -105,-29 -55,-36 -86,3 -128,36 -42,33 -96,-11 -163,27 -68,37 -197,175 -197,175 z"
         id="path17"
         inkscape:connector-curvature="0"
         style="fill:#74bb71" /><path
         class="fil6"
         d="M 21031,29749 4376,29539 c 4084,-1571 12045,-1666 16655,-1541 z"
         id="path19"
         inkscape:connector-curvature="0"
         style="fill:#92c570" /><path
         class="fil7"
         d="m 20330,27979 c -1622,-18 -2968,915 -2968,915 l 573,148 c 0,0 367,-386 1293,-781 538,-229 1112,-261 1484,-271 0,0 -149,-4 -382,-11 z"
         id="path21"
         inkscape:connector-curvature="0"
         style="fill:#b2b3b3" /><path
         class="fil1"
         d="m -20,28640 c 8297,-309 16594,147 21051,470 v 743 H -20 Z"
         id="path23"
         inkscape:connector-curvature="0"
         style="fill:#adce6e" /><path
         class="fil1"
         d="m -20,29853 h 5781 c 0,0 -2961,-536 -5781,-903 z"
         id="path25"
         inkscape:connector-curvature="0"
         style="fill:#adce6e" /><path
         class="fil8"
         d="m 16292,28818 c 253,13 391,20 636,33 -642,221 -1374,603 -1925,1002 h -1135 c 337,-214 1303,-793 2424,-1035 z"
         id="path27"
         inkscape:connector-curvature="0"
         style="fill:#c5c6c6" /><path
         class="fil9"
         d="m -20,27531 c 4401,453 8225,1344 10854,2322 H -20 Z"
         id="path29"
         inkscape:connector-curvature="0"
         style="fill:#ffdf49" /><path
         class="fil10"
         d="m 166,29215 c 81,-57 162,-108 241,-149 1054,-540 2241,-662 2427,-674 27,-1 32,4 31,4 -467,40 -1308,288 -1957,668 388,-53 665,-54 666,-35 4,36 -402,18 -933,208 -257,184 -461,391 -562,616 h -99 v -584 c 62,-19 124,-37 186,-54 z m 748,638 c 927,-1466 2541,-1494 2551,-1480 10,14 -799,63 -1490,867 -218,253 -368,455 -471,613 z"
         id="path31"
         inkscape:connector-curvature="0"
         style="fill:#fecc00" /><path
         class="fil11"
         d="m 2263,29853 c 1,-56 3,-173 19,-216 21,-58 42,-60 42,-60 0,0 14,-90 48,-155 34,-66 77,-66 77,-66 0,0 -1,-69 24,-96 25,-27 51,-30 51,-30 0,0 18,-113 48,-137 30,-24 48,-15 48,-15 0,0 48,-149 80,-175 31,-25 65,-18 65,-18 0,0 35,-142 68,-167 32,-24 51,-16 51,-16 0,0 44,-136 75,-167 30,-31 73,-32 73,-32 0,0 54,-102 107,-153 53,-51 86,-56 86,-56 172,-238 458,-548 698,-735 241,-188 304,-179 181,-100 -123,79 -583,527 -690,664 -89,113 -19,41 91,-64 155,-146 394,-373 423,-395 295,-222 215,-141 142,-81 -180,149 -560,756 -425,577 67,-89 397,-495 498,-593 101,-99 146,-121 54,-33 -91,89 -425,505 -520,654 -96,149 -151,273 -104,223 47,-50 222,-322 273,-399 51,-76 211,-295 242,-306 31,-10 -19,36 -55,76 -36,39 -333,558 -462,717 -129,158 -227,259 -227,259 v 0 c -60,62 -105,101 -105,101 0,0 -20,59 -58,110 -37,52 -143,154 -143,154 0,0 -14,37 -36,73 -23,37 -93,92 -93,92 0,0 21,43 -25,91 -46,47 -131,128 -131,128 0,0 33,39 -39,93 -72,54 -80,78 -96,108 -12,23 -90,75 -189,145 z m 1224,0 c 59,-71 94,-107 94,-107 0,0 21,-182 42,-234 21,-52 36,-50 36,-50 0,0 20,-83 51,-140 30,-56 59,-48 59,-48 0,0 8,-67 28,-88 19,-21 38,-19 38,-19 0,0 25,-105 48,-123 23,-17 34,-5 34,-5 0,0 27,-73 51,-119 -37,41 -62,64 -62,64 v 0 c -37,35 -65,56 -65,56 0,0 -9,38 -31,69 -22,30 -87,87 -87,87 0,0 -7,23 -19,46 -12,22 -57,51 -57,51 0,0 19,33 -9,59 -28,27 -81,72 -81,72 0,0 27,31 -19,59 -46,28 -50,43 -58,62 -8,18 -87,53 -173,105 -54,33 -120,109 -184,203 h -67 c 106,-156 188,-234 188,-234 0,0 -19,-131 -10,-168 10,-38 25,-36 25,-36 0,0 1,-60 19,-101 18,-41 48,-35 48,-35 0,0 -6,-49 9,-64 15,-15 33,-13 33,-13 0,0 3,-76 22,-89 18,-13 32,-4 32,-4 0,0 20,-97 40,-110 20,-14 45,-4 45,-4 0,0 11,-94 32,-107 21,-12 35,-4 35,-4 0,0 18,-88 37,-105 19,-18 50,-13 50,-13 0,0 29,-63 62,-92 32,-28 55,-27 55,-27 100,-141 180,-170 333,-268 153,-97 199,-83 119,-45 -80,38 -271,139 -334,220 -55,70 172,-67 228,-101 189,-115 140,-69 94,-38 -504,351 -198,217 50,-1 62,-55 92,-64 35,-15 -142,123 -189,272 -170,241 29,-46 88,-134 109,-137 21,-3 9,18 -13,41 -14,15 -59,99 -109,180 13,-3 19,3 19,3 0,0 46,-122 70,-146 24,-24 53,-17 53,-17 0,0 49,-88 90,-128 42,-39 64,-37 64,-37 144,-197 233,-237 416,-372 184,-135 225,-116 133,-63 -92,53 -314,194 -402,305 -77,97 192,-93 260,-140 224,-159 161,-96 105,-52 -613,487 -265,300 51,-2 79,-76 111,-88 39,-21 -180,171 -273,377 -245,335 44,-64 129,-186 152,-190 22,-4 3,24 -25,56 -29,31 -172,276 -277,404 -105,128 -183,206 -183,206 v 0 c -48,49 -83,78 -83,78 0,0 -20,53 -52,95 -31,43 -114,121 -114,121 0,0 -14,33 -33,64 -19,31 -73,70 -73,70 0,0 9,46 -28,83 -36,37 -103,99 -103,99 0,0 17,44 -37,82 -55,38 -63,60 -77,86 -14,25 -104,74 -205,145 -22,15 -47,37 -73,65 z m 519,-975 c 18,-6 31,2 31,2 0,0 11,-33 24,-68 -6,8 -12,16 -18,23 -13,15 -25,30 -37,43 z m -1644,942 c 1,-83 -36,-142 -36,-142 0,0 13,57 13,98 -1,41 12,41 23,44 z m 162,-232 c 86,-48 170,-59 170,-59 0,0 -68,24 -109,48 -42,24 -51,16 -61,11 z m 526,-692 c -47,17 -121,68 -112,76 9,8 11,7 28,-10 17,-17 84,-66 84,-66 z m -75,150 c -73,28 -144,69 -125,86 18,17 1,-17 125,-86 z m -77,150 c -65,18 -173,74 -171,86 2,12 16,12 49,-17 34,-29 129,-73 122,-69 z m -255,236 c 32,-31 128,-69 145,-75 18,-7 -18,6 -48,28 -30,22 -71,65 -97,47 z m 116,-352 c 10,39 0,117 -13,117 -14,0 -13,-3 -6,-24 8,-21 19,-93 19,-93 z m -110,142 c 12,62 11,132 -17,132 -29,-1 16,-12 17,-132 z m -111,143 c 19,51 23,154 10,160 -14,7 -23,-1 -12,-41 11,-39 2,-125 2,-119 z m -97,308 c 14,-39 -2,-123 -6,-137 -3,-15 5,15 -1,48 -6,32 -26,85 7,89 z"
         id="path33"
         inkscape:connector-curvature="0"
         style="fill:#f39314" /><path
         class="fil10"
         d="m 3597,29853 c 927,-1255 2541,-914 2551,-898 10,17 -799,-119 -1490,526 -150,141 -268,265 -361,372 z m -2165,0 c 747,-998 2037,-725 2045,-712 8,13 -643,-96 -1198,423 -117,108 -209,205 -283,289 z m 5462,0 c 593,-248 1081,-253 1086,-246 7,10 -309,32 -715,246 z m -934,0 c 36,-48 73,-93 112,-135 -135,38 -272,83 -405,135 h -529 c 361,-123 725,-196 1037,-240 755,-706 1820,-481 1827,-469 8,14 -632,-94 -1184,410 99,-4 170,-4 205,-3 26,1 32,6 31,6 -77,0 -163,5 -256,15 -112,105 -202,199 -274,281 z m -1582,0 c 915,-643 2482,-704 2486,-661 4,48 -700,3 -1464,458 -131,78 -238,145 -327,203 z"
         id="path35"
         inkscape:connector-curvature="0"
         style="fill:#fecc00" /><path
         class="fil11"
         d="m -20,27602 h 1 c 0,0 30,-74 63,-111 34,-37 57,-40 57,-40 102,-172 253,-344 410,-479 156,-136 135,-89 53,-32 -82,57 -277,288 -342,387 -65,99 -21,49 58,-38 80,-87 103,-119 296,-279 193,-161 142,-102 95,-59 -47,43 -130,96 -237,262 -108,167 -235,437 -195,373 40,-64 289,-425 353,-496 64,-71 94,-87 36,-23 -58,63 -155,200 -210,307 -56,108 -85,197 -55,161 80,-97 130,-256 202,-344 19,-24 13,-3 -13,41 -26,44 -104,252 -182,367 -79,114 -141,187 -141,187 v 0 c -37,45 -66,73 -66,73 0,0 -9,43 -32,80 -22,37 -89,111 -89,111 0,0 -7,26 -20,52 -8,16 -27,37 -42,51 v -154 l 9,-5 -9,3 v -69 c 16,-15 50,-42 50,-42 -16,6 -35,17 -50,28 z m 784,2251 c 55,-101 113,-201 171,-285 86,-123 185,-291 267,-399 204,-268 360,-415 360,-415 0,0 14,-128 29,-165 15,-36 26,-35 26,-35 0,0 4,-19 12,-42 -19,18 -33,28 -33,28 0,0 -6,27 -22,48 -15,22 -61,62 -61,62 0,0 -5,16 -14,32 -8,16 -40,36 -40,36 0,0 14,23 -6,42 -20,19 -58,50 -58,50 0,0 19,23 -13,42 -32,19 -35,31 -41,43 -5,13 -61,38 -121,75 -55,33 -372,500 -608,883 h -71 c 316,-531 634,-905 634,-905 0,0 -14,-92 -7,-119 7,-26 17,-25 17,-25 0,0 1,-43 14,-71 13,-29 34,-25 34,-25 0,0 -5,-34 6,-45 10,-11 24,-9 24,-9 0,0 1,-54 15,-63 13,-9 23,-3 23,-3 0,0 14,-68 28,-77 14,-10 31,-3 31,-3 0,0 9,-66 23,-75 15,-9 25,-3 25,-3 0,0 13,-63 26,-75 13,-12 35,-8 35,-8 0,0 20,-45 43,-65 23,-20 40,-19 40,-19 70,-100 126,-120 234,-189 108,-69 140,-59 84,-32 -56,27 -191,98 -235,155 -39,49 121,-47 161,-71 133,-81 98,-49 66,-27 -356,248 -140,153 35,-1 1,-1 2,-2 3,-3 9,-24 21,-49 29,-55 18,-12 26,-5 26,-5 0,0 32,-86 49,-102 17,-17 38,-13 38,-13 0,0 34,-61 63,-89 30,-28 46,-27 46,-27 101,-138 163,-166 293,-262 129,-95 158,-81 93,-44 -64,37 -221,136 -283,215 -54,68 136,-65 183,-99 158,-112 113,-67 74,-36 -432,342 -187,211 36,-2 56,-53 79,-62 28,-15 -128,121 -193,266 -173,236 31,-45 91,-131 107,-134 15,-3 3,18 -18,40 -20,22 -120,194 -195,285 -74,90 -129,145 -129,145 v 0 c -33,34 -58,55 -58,55 0,0 -15,37 -37,67 -22,30 -80,85 -80,85 0,0 -10,23 -24,45 -13,22 -51,50 -51,50 0,0 6,32 -20,58 -25,26 -72,70 -72,70 0,0 12,31 -27,58 -38,27 -44,42 -54,60 -10,18 -73,53 -145,103 -223,157 -573,741 -757,1069 z m 1105,-1712 c 9,-1 14,3 14,3 0,0 4,-13 10,-30 -8,9 -16,18 -24,27 z M 85,29853 c 241,-600 518,-928 518,-928 0,0 -25,-174 -12,-228 13,-54 32,-55 32,-55 0,0 2,-83 26,-144 24,-60 63,-60 63,-60 0,0 -8,-64 11,-89 20,-25 44,-27 44,-27 0,0 4,-104 29,-127 24,-22 42,-14 42,-14 0,0 27,-137 53,-161 26,-24 58,-17 58,-17 0,0 16,-131 43,-154 27,-22 46,-15 46,-15 0,0 24,-125 49,-154 25,-28 64,-29 64,-29 0,0 38,-94 81,-142 43,-47 73,-51 73,-51 130,-220 504,-689 704,-862 200,-173 172,-113 68,-40 -105,73 -535,617 -618,744 -83,126 -27,62 75,-49 101,-111 311,-401 558,-606 247,-205 182,-130 122,-75 -60,55 -347,371 -484,584 -138,213 -104,261 -53,180 51,-82 309,-457 390,-548 82,-91 121,-111 46,-29 -74,81 -333,466 -404,603 -71,137 -107,252 -69,205 37,-46 167,-297 205,-368 38,-70 160,-272 187,-282 28,-9 -12,33 -41,70 -29,37 -243,515 -343,662 -100,146 -180,239 -180,239 v 0 c -47,57 -84,93 -84,93 0,0 -12,55 -41,102 -29,47 -114,142 -114,142 0,0 -9,34 -25,67 -16,34 -75,85 -75,85 0,0 25,40 -12,84 -37,44 -107,118 -107,118 0,0 35,37 -25,86 -60,50 -64,72 -75,100 -11,27 -114,95 -226,188 -160,133 -397,582 -500,902 z m 602,-987 c -10,-77 -50,-131 -50,-131 0,0 19,53 23,90 4,38 16,39 27,41 z m 122,-214 c 73,-44 150,-55 150,-55 0,0 -60,23 -95,45 -36,22 -45,15 -55,10 z m 404,-638 c -41,15 -103,62 -94,69 9,8 11,6 25,-9 13,-16 69,-60 69,-60 z m -52,137 c -63,27 -124,64 -105,80 20,16 0,-15 105,-80 z m -53,139 c -58,16 -151,68 -148,79 4,12 17,12 44,-15 27,-27 110,-67 104,-64 z m -208,218 c 26,-29 110,-64 126,-70 15,-5 -17,6 -42,27 -25,20 -58,59 -84,43 z m 67,-325 c 13,36 13,108 1,108 -13,0 -13,-3 -8,-22 5,-20 7,-86 7,-86 z m -86,131 c 19,58 26,122 0,122 -27,-1 14,-11 0,-122 z m -85,132 c 24,48 39,142 27,148 -12,6 -20,-2 -15,-38 5,-36 -13,-116 -12,-110 z m -54,285 c 8,-37 -16,-114 -21,-127 -5,-14 6,14 4,44 -1,30 -14,79 17,83 z m -762,-179 c 5,-24 11,-48 19,-54 16,-13 27,-5 27,-5 0,0 15,-88 30,-105 15,-18 39,-13 39,-13 0,0 24,-63 50,-92 26,-28 44,-27 44,-27 79,-142 143,-170 265,-268 122,-98 158,-84 95,-46 -64,39 -216,140 -266,220 -44,71 137,-66 182,-101 150,-114 111,-69 74,-37 -401,351 -158,217 40,-2 50,-55 74,-64 28,-15 -113,123 -150,272 -135,242 23,-46 69,-134 86,-137 17,-3 8,18 -10,40 -17,23 -87,199 -148,292 -61,93 -109,149 -109,149 v 0 c -29,35 -52,57 -52,57 0,0 -7,38 -24,68 -18,31 -70,88 -70,88 0,0 -5,23 -15,45 -1,3 -3,5 -4,8 18,-13 31,-13 31,-13 70,-100 127,-120 235,-189 108,-69 140,-59 83,-32 -56,27 -190,98 -235,155 -39,49 121,-47 161,-71 133,-81 98,-49 66,-26 -355,247 -140,152 35,-2 44,-38 65,-45 25,-10 -101,87 -133,192 -120,170 20,-32 62,-94 77,-97 15,-2 6,13 -9,29 -16,16 -77,140 -131,205 -54,66 -97,105 -97,105 v 0 c -26,25 -46,40 -46,40 0,0 -6,27 -21,48 -16,22 -62,62 -62,62 0,0 -5,16 -13,32 -9,16 -40,36 -40,36 0,0 13,23 -7,42 -20,19 -57,50 -57,50 0,0 19,23 -14,42 l -7,5 z m 106,355 c 3,-4 5,-8 8,-13 -6,5 -10,9 -10,9 0,0 1,1 2,4 z"
         id="path37"
         inkscape:connector-curvature="0"
         style="fill:#f39314" /><path
         class="fil12"
         d="m 16532,28830 28,2 c -632,201 -1402,562 -2022,1021 -53,0 -129,-1 -119,0 574,-437 1498,-846 2113,-1023 z"
         id="path39"
         inkscape:connector-curvature="0"
         style="fill:#ebecec" /><path
         class="fil8"
         d="m 18866,28277 h 16 c -352,129 -791,348 -1137,620 0,0 -64,-4 -58,-4 320,-258 836,-502 1179,-616 z"
         id="path41"
         inkscape:connector-curvature="0"
         style="fill:#c5c6c6" /></g></g></svg>