<?xml version="1.0" encoding="UTF-8" standalone="no"?>
<!-- Creator: CorelDRAW X8 -->

<svg
   xmlns:osb="http://www.openswatchbook.org/uri/2009/osb"
   xmlns:dc="http://purl.org/dc/elements/1.1/"
   xmlns:cc="http://creativecommons.org/ns#"
   xmlns:rdf="http://www.w3.org/1999/02/22-rdf-syntax-ns#"
   xmlns:svg="http://www.w3.org/2000/svg"
   xmlns="http://www.w3.org/2000/svg"
   xmlns:sodipodi="http://sodipodi.sourceforge.net/DTD/sodipodi-0.dtd"
   xmlns:inkscape="http://www.inkscape.org/namespaces/inkscape"
   xml:space="preserve"
   width="180mm"
   height="105.94mm"
   version="1.1"
   style="clip-rule:evenodd;fill-rule:evenodd;image-rendering:optimizeQuality;shape-rendering:geometricPrecision;text-rendering:geometricPrecision"
   viewBox="0 0 18000 10594"
   id="svg27"
   sodipodi:docname="rombs.svg"
   inkscape:version="0.92.2 (5c3e80d, 2017-08-06)"><metadata
     id="metadata31"><rdf:RDF><cc:Work
         rdf:about=""><dc:format>image/svg+xml</dc:format><dc:type
           rdf:resource="http://purl.org/dc/dcmitype/StillImage" /><dc:title /></cc:Work></rdf:RDF></metadata><sodipodi:namedview
     pagecolor="#ffffff"
     bordercolor="#666666"
     borderopacity="1"
     objecttolerance="10"
     gridtolerance="10"
     guidetolerance="10"
     inkscape:pageopacity="0"
     inkscape:pageshadow="2"
     inkscape:window-width="982"
     inkscape:window-height="583"
     id="namedview29"
     showgrid="false"
     fit-margin-top="0"
     fit-margin-left="0"
     fit-margin-right="0"
     fit-margin-bottom="0"
     inkscape:zoom="0.84096521"
     inkscape:cx="547.95491"
     inkscape:cy="128.56678"
     inkscape:window-x="669"
     inkscape:window-y="458"
     inkscape:window-maximized="0"
     inkscape:current-layer="Слой_x0020_1"
     inkscape:snap-global="false" /><defs
     id="defs4"><linearGradient
       id="linearGradient4550"
       osb:paint="solid"><stop
         style="stop-color:#000000;stop-opacity:1;"
         offset="0"
         id="stop4548" /></linearGradient><linearGradient
       id="linearGradient4516"
       osb:paint="solid"><stop
         style="stop-color:#1c9da2;stop-opacity:1;"
         offset="0"
         id="stop4514" /></linearGradient><style
       type="text/css"
       id="style2"><![CDATA[
    .fil1 {fill:#387A71}
    .fil0 {fill:#1C9DA2}
   ]]></style></defs><g
     id="Слой_x0020_1"
     transform="translate(-2964.6144,-2686.4627)"><metadata
       id="CorelCorpID_0Corel-Layer" /><g
       id="_946401776"
       style="fill:#1c9da2;fill-opacity:1"><polygon
         class="fil0"
         points="17755,3447 16694,4508 17746,5559 18806,4499 "
         id="polygon7"
         style="fill:none;fill-opacity:1;stroke:#1c9da2;stroke-width:11.66520691;stroke-miterlimit:4;stroke-dasharray:none;stroke-dashoffset:0;stroke-opacity:1"
         transform="matrix(1.1340704,0,0,1.1340704,-5667.5153,-2412.7772)"
         inkscape:transform-center-x="-142.71939"
         inkscape:transform-center-y="-0.0001589542" /><polygon
         class="fil0"
         points="20097,5769 19046,4717 17985,5778 19037,6829 "
         id="polygon9"
         style="fill:#1c9da2;fill-opacity:1"
         transform="translate(-1856.25,943.85592)"
         inkscape:transform-center-x="-849.47034"
         inkscape:transform-center-y="912.39407" /><polygon
         class="fil1"
         points="19808,2855 18747,3915 19799,4967 20859,3906 "
         id="polygon11"
         style="fill:#1c9da2;stroke-width:1.19597757;fill-opacity:1"
         transform="matrix(0.83613612,0,0,0.83613612,3166.3416,467.83136)" /></g><polygon
       class="fil0"
       points="3059,8501 4111,9553 5171,8492 4119,7441 "
       id="polygon14"
       style="fill:none;stroke-width:12.37298101;stroke-miterlimit:4;stroke-dasharray:12.37298101,12.37298101;stroke:#1c9da2;stroke-opacity:1;stroke-dashoffset:0"
       transform="matrix(1.2830376,0,0,1.2830376,-1243.3544,-344.2185)" /><polygon
       class="fil1"
       points="6663,9953 5612,8901 4551,9962 5603,11013 "
       id="polygon16"
       style="fill:#387a71"
       transform="translate(534.85169,3272.0338)" /><polygon
       class="fil0"
       points="15878,13249 16939,12188 15887,11137 14827,12197 "
       id="polygon18"
       style="fill:#1c9da2"
       transform="translate(1478.7075,3618.1144)" /><polygon
       class="fil1"
       points="16695,10917 17756,9856 16704,8805 15644,9865 "
       id="polygon20"
       style="fill:#387a71"
       transform="translate(4215.8898,660.69914)" /><polygon
       class="fil1"
       points="4427,3471 3367,4531 4419,5583 5479,4522 "
       id="polygon22"
       style="fill:#387a71;stroke-width:0.81884319"
       transform="matrix(0.00673987,-1.253222,1.1900262,0.0070978,-2119.7188,9143.0832)"
       inkscape:transform-center-x="118.04069"
       inkscape:transform-center-y="-76.171083" /><polygon
       class="fil0"
       points="7897,4235 8948,5287 10009,4226 8957,3175 "
       id="polygon24"
       style="fill:#1c9da2;stroke-width:1.47154152"
       transform="matrix(0.68518699,0,0,0.6739781,2112.7218,1790.2042)" /><polygon
       transform="matrix(0.47143029,0,0,0.46371823,4890.1573,2105.1926)"
       style="fill:#1c9da2;stroke-width:2.13877034"
       id="polygon4562"
       points="8948,5287 10009,4226 8957,3175 7897,4235 "
       class="fil0" /><polygon
       class="fil0"
       points="8948,5287 10009,4226 8957,3175 7897,4235 "
       id="polygon4564"
       style="fill:#1c9da2;stroke-width:3.00862575"
       transform="matrix(0.33513013,0,0,0.32964779,6726.3135,2247.7095)" /></g></svg>