<?xml version="1.0" encoding="UTF-8"?>
<!DOCTYPE svg PUBLIC "-//W3C//DTD SVG 1.1//EN" "http://www.w3.org/Graphics/SVG/1.1/DTD/svg11.dtd">
<!-- Creator: CorelDRAW X8 -->
<svg xmlns="http://www.w3.org/2000/svg" xml:space="preserve" width="210mm" height="297mm" version="1.1" style="shape-rendering:geometricPrecision; text-rendering:geometricPrecision; image-rendering:optimizeQuality; fill-rule:evenodd; clip-rule:evenodd"
viewBox="0 0 21000 29700"
 xmlns:xlink="http://www.w3.org/1999/xlink">
 <defs>
  <style type="text/css">
   <![CDATA[
    .fil7 {fill:#1B4145}
    .fil2 {fill:#59595A}
    .fil9 {fill:#8B7E7F}
    .fil3 {fill:#90C5FF}
    .fil8 {fill:#D6CED1}
    .fil1 {fill:#D8D9DD}
    .fil0 {fill:#ECE7EA}
    .fil6 {fill:#F14742}
    .fil10 {fill:#8B7E7F;fill-rule:nonzero}
    .fil5 {fill:white;fill-opacity:0.200000}
    .fil4 {fill:#5B5B5F;fill-opacity:0.400000}
   ]]>
  </style>
 </defs>
 <g id="Слой_x0020_1">
  <metadata id="CorelCorpID_0Corel-Layer"/>
  <rect class="fil0" transform="matrix(-0.191397 -0.191397 0.191397 -0.191397 3546.51 6386.75)" width="700" height="4359"/>
  <g id="_1119099888">
   <polygon class="fil1" points="7500,7592 5407,7592 5668,6406 7238,6406 "/>
   <rect class="fil1" x="5145" y="7457" width="2616" height="243"/>
   <path class="fil2" d="M9232 2738c0,0 3,2 3,2l0 3396 -5563 0 0 -3396c0,0 2,-2 2,-2l5558 0 0 0zm273 1699l0 -1698c0,-144 -129,-271 -273,-271l0 0 -5559 0c-144,0 -271,127 -271,271l0 1698 0 0 0 1697c0,144 127,272 271,272l5559 0 0 0c144,0 273,-128 273,-272l0 -1697 0 0z"/>
   <path class="fil3" d="M9232 2738c0,0 3,2 3,2l0 3396 -5563 0 0 -3396c0,0 2,-2 2,-2l5558 0 0 0z"/>
   <polygon class="fil4" points="5145,7700 7761,7700 7761,7457 5145,7457 "/>
   <g>
    <g>
     <polygon class="fil5" points="5791,6540 5428,6699 3399,2094 3762,1935 "/>
    </g>
    <g>
     <polygon class="fil5" points="6481,6482 6118,6642 4089,2037 4451,1877 "/>
    </g>
   </g>
   <g>
   </g>
   <g>
   </g>
   <g>
   </g>
   <g>
   </g>
   <g>
   </g>
   <g>
   </g>
   <g>
   </g>
   <g>
   </g>
   <g>
   </g>
   <g>
   </g>
   <g>
   </g>
   <g>
   </g>
   <g>
   </g>
   <g>
   </g>
   <g>
   </g>
  </g>
  <polygon class="fil0" points="8785,3380 8785,5708 5954,5708 5954,3380 7369,3254 "/>
  <polygon class="fil6" points="8785,3065 8785,3380 8470,3380 8282,3223 8470,3065 "/>
  <rect class="fil7" x="5954" y="3065" width="2517" height="315"/>
  <path class="fil8" d="M8407 4402l-2076 0c-26,0 -47,-21 -47,-47 0,-26 21,-47 47,-47l2076 0c26,0 48,21 48,47 0,26 -22,47 -48,47z"/>
  <path class="fil9" d="M7243 4654l-912 0c-26,0 -47,-21 -47,-47 0,-26 21,-47 47,-47l912 0c27,0 48,21 48,47 0,26 -21,47 -48,47z"/>
  <path class="fil9" d="M7243 4906l-912 0c-26,0 -47,-21 -47,-48 0,-26 21,-47 47,-47l912 0c27,0 48,21 48,47 0,27 -21,48 -48,48z"/>
  <path class="fil9" d="M7243 5157l-912 0c-26,0 -47,-21 -47,-47 0,-26 21,-47 47,-47l912 0c27,0 48,21 48,47 0,26 -21,47 -48,47z"/>
  <rect class="fil6" x="7495" y="4607" width="912" height="755"/>
  <path class="fil9" d="M7243 5409l-912 0c-26,0 -47,-21 -47,-47 0,-26 21,-47 47,-47l912 0c27,0 48,21 48,47 0,26 -21,47 -48,47z"/>
  <path class="fil10" d="M6871 3822c-24,0 -45,-4 -63,-12 -18,-8 -33,-19 -46,-32 -12,-13 -21,-29 -28,-46 -6,-17 -9,-35 -9,-53 0,-19 3,-37 9,-54 6,-18 15,-33 28,-46 12,-13 27,-24 45,-32 18,-8 39,-12 63,-12 23,0 44,4 63,12 18,8 33,18 45,31 12,13 21,28 27,45 6,17 9,35 9,54 0,18 -3,36 -9,54 -6,17 -15,33 -26,46 -12,14 -27,24 -45,33 -18,8 -39,12 -63,12zm-1 -54c13,0 24,-2 34,-7 9,-5 16,-12 22,-20 6,-8 11,-18 13,-28 3,-11 5,-22 5,-34 0,-12 -2,-24 -4,-35 -3,-11 -7,-20 -13,-29 -6,-8 -13,-14 -22,-19 -10,-5 -21,-8 -34,-8 -13,0 -24,3 -34,7 -9,5 -17,12 -23,20 -7,8 -11,17 -14,28 -3,10 -4,22 -4,34 0,12 1,23 4,34 3,12 7,21 13,30 6,8 14,14 23,19 9,5 21,8 34,8z"/>
  <path id="1" class="fil10" d="M7064 3540l180 0 0 55 -113 0 0 47 33 0c15,0 29,2 43,5 13,4 24,9 34,16 10,7 18,16 23,27 6,10 8,23 8,38 0,15 -2,28 -8,39 -5,11 -13,20 -23,28 -10,7 -22,13 -37,16 -14,4 -30,6 -47,6l-93 0 0 -277zm94 226c16,0 28,-3 36,-9 8,-7 11,-16 11,-29 0,-11 -3,-20 -11,-26 -7,-6 -19,-9 -35,-9l-28 0 0 73 27 0z"/>
  <path id="2" class="fil10" d="M7380 3822c-20,0 -38,-3 -53,-7 -14,-5 -26,-10 -36,-17l29 -49c7,5 15,9 25,13 10,3 22,5 36,5 14,0 24,-2 32,-8 8,-5 12,-13 12,-26 0,-11 -4,-20 -12,-26 -9,-5 -20,-8 -34,-8l-32 0 0 -47 25 0c14,0 25,-3 32,-8 8,-6 12,-14 12,-24 0,-10 -3,-17 -9,-23 -6,-5 -16,-8 -28,-8 -14,0 -25,2 -35,6 -9,5 -17,9 -23,14l-27 -47c4,-3 8,-6 14,-9 5,-4 12,-7 19,-9 7,-3 15,-5 24,-7 9,-1 18,-2 29,-2 15,0 28,1 41,4 12,3 23,8 32,14 9,6 16,14 21,23 5,9 8,20 8,32 0,19 -5,33 -13,44 -9,10 -21,17 -36,21l0 1c8,1 16,3 23,7 7,3 14,7 19,13 5,6 10,12 13,20 3,8 5,17 5,27 0,14 -3,26 -9,36 -6,10 -14,18 -24,25 -10,7 -22,12 -36,15 -14,3 -28,5 -44,5z"/>
  <path id="3" class="fil10" d="M7671 3822c-24,0 -45,-4 -64,-12 -18,-8 -33,-19 -46,-32 -12,-13 -21,-29 -28,-46 -6,-17 -9,-35 -9,-53 0,-19 3,-37 9,-54 6,-18 16,-33 28,-46 12,-13 27,-24 45,-32 18,-8 39,-12 63,-12 24,0 45,4 63,12 18,8 33,18 45,31 12,13 21,28 27,45 6,17 9,35 9,54 0,18 -2,36 -8,54 -6,17 -15,33 -27,46 -12,14 -27,24 -45,33 -18,8 -39,12 -62,12zm-2 -54c13,0 24,-2 34,-7 9,-5 17,-12 23,-20 6,-8 10,-18 13,-28 2,-11 4,-22 4,-34 0,-12 -1,-24 -4,-35 -3,-11 -7,-20 -13,-29 -6,-8 -13,-14 -22,-19 -9,-5 -20,-8 -33,-8 -14,0 -25,3 -35,7 -9,5 -17,12 -23,20 -6,8 -11,17 -14,28 -3,10 -4,22 -4,34 0,12 1,23 4,34 3,12 8,21 14,30 6,8 13,14 22,19 10,5 21,8 34,8z"/>
  <path id="4" class="fil10" d="M7863 3540l98 0c15,0 29,2 42,5 14,4 25,9 35,17 10,7 18,16 23,28 6,11 9,24 9,40 0,15 -3,29 -9,40 -5,12 -13,22 -23,29 -10,8 -23,14 -37,18 -14,4 -30,6 -47,6l-24 0 0 94 -67 0 0 -277zm91 132c17,0 29,-3 37,-10 7,-7 11,-17 11,-32 0,-13 -4,-23 -11,-30 -8,-7 -19,-10 -35,-10l-26 0 0 82 24 0z"/>
  <polygon id="5" class="fil10" points="6594,3955 6833,3955 6833,4232 6767,4232 6767,4010 6661,4010 6661,4232 6594,4232 "/>
  <path id="6" class="fil10" d="M6898 3955l98 0c15,0 29,2 43,6 13,3 25,9 34,16 10,8 18,17 24,28 5,12 8,25 8,40 0,16 -3,29 -8,41 -6,12 -14,21 -24,29 -10,8 -22,14 -37,17 -14,4 -30,6 -47,6l-23 0 0 94 -68 0 0 -277zm92 133c16,0 28,-3 36,-10 8,-7 12,-18 12,-32 0,-14 -4,-24 -12,-30 -7,-7 -19,-10 -35,-10l-25 0 0 82 24 0z"/>
  <polygon id="7" class="fil10" points="7151,3955 7316,3955 7316,4010 7218,4010 7218,4064 7305,4064 7305,4115 7218,4115 7218,4177 7319,4177 7319,4232 7151,4232 "/>
  <path id="8" class="fil10" d="M7502 4237c-24,0 -45,-4 -64,-12 -18,-8 -33,-18 -45,-31 -12,-14 -21,-29 -26,-46 -6,-18 -9,-36 -9,-55 0,-18 3,-36 9,-54 6,-17 15,-32 27,-45 12,-13 28,-24 46,-32 18,-8 39,-12 63,-12 18,0 34,2 48,6 13,4 26,10 37,17l-30 48c-7,-4 -15,-8 -24,-11 -9,-3 -20,-4 -32,-4 -12,0 -23,2 -32,6 -9,5 -16,11 -22,18 -7,8 -11,17 -15,28 -3,10 -4,22 -4,34 0,12 1,24 4,35 3,11 8,20 14,28 6,8 14,15 23,19 10,5 21,7 33,7 15,0 27,-2 36,-6 10,-5 18,-9 25,-14l27 47c-3,3 -8,6 -14,9 -6,4 -13,7 -21,10 -7,3 -16,5 -25,7 -9,2 -19,3 -29,3z"/>
  <path id="9" class="fil10" d="M7752 4237c-24,0 -45,-4 -63,-12 -18,-8 -33,-18 -45,-31 -12,-14 -21,-29 -27,-46 -6,-18 -9,-36 -9,-55 0,-18 3,-36 9,-54 6,-17 16,-32 28,-45 12,-13 27,-24 45,-32 18,-8 40,-12 64,-12 18,0 34,2 47,6 14,4 26,10 37,17l-29 48c-8,-4 -16,-8 -25,-11 -8,-3 -19,-4 -32,-4 -12,0 -22,2 -31,6 -9,5 -17,11 -23,18 -6,8 -11,17 -14,28 -3,10 -5,22 -5,34 0,12 2,24 5,35 3,11 8,20 14,28 6,8 14,15 23,19 9,5 20,7 33,7 15,0 27,-2 36,-6 9,-5 17,-9 24,-14l28 47c-4,3 -9,6 -15,9 -6,4 -12,7 -20,10 -8,3 -16,5 -25,7 -10,2 -19,3 -30,3z"/>
  <path id="10" class="fil10" d="M8130 3955l68 0 0 277 -68 0 0 -277zm-249 0l68 0 0 94 32 0c16,0 30,2 43,6 14,3 25,9 35,16 9,8 17,17 23,28 5,12 8,25 8,40 0,16 -3,29 -8,41 -6,11 -14,21 -24,29 -10,8 -22,13 -36,17 -14,4 -30,6 -48,6l-93 0 0 -277zm94 227c17,0 29,-3 37,-10 7,-7 11,-18 11,-32 0,-14 -4,-24 -11,-30 -8,-7 -19,-10 -36,-10l-27 0 0 82 26 0z"/>
 </g>
</svg>
