<?xml version="1.0" encoding="UTF-8" standalone="no"?>
<!-- Creator: CorelDRAW X8 -->

<svg
   xmlns:dc="http://purl.org/dc/elements/1.1/"
   xmlns:cc="http://creativecommons.org/ns#"
   xmlns:rdf="http://www.w3.org/1999/02/22-rdf-syntax-ns#"
   xmlns:svg="http://www.w3.org/2000/svg"
   xmlns="http://www.w3.org/2000/svg"
   xmlns:xlink="http://www.w3.org/1999/xlink"
   xmlns:sodipodi="http://sodipodi.sourceforge.net/DTD/sodipodi-0.dtd"
   xmlns:inkscape="http://www.inkscape.org/namespaces/inkscape"
   xml:space="preserve"
   width="228.24567"
   height="311.58426"
   version="1.1"
   style="clip-rule:evenodd;fill-rule:evenodd;image-rendering:optimizeQuality;shape-rendering:geometricPrecision;text-rendering:geometricPrecision"
   viewBox="0 0 6038.9999 8244.0004"
   id="svg6863"
   sodipodi:docname="paper1.svg"
   inkscape:version="0.92.2 (5c3e80d, 2017-08-06)"><metadata
     id="metadata6867"><rdf:RDF><cc:Work
         rdf:about=""><dc:format>image/svg+xml</dc:format><dc:type
           rdf:resource="http://purl.org/dc/dcmitype/StillImage" /><dc:title></dc:title></cc:Work></rdf:RDF></metadata><sodipodi:namedview
     pagecolor="#ffffff"
     bordercolor="#666666"
     borderopacity="1"
     objecttolerance="10"
     gridtolerance="10"
     guidetolerance="10"
     inkscape:pageopacity="0"
     inkscape:pageshadow="2"
     inkscape:window-width="1920"
     inkscape:window-height="1017"
     id="namedview6865"
     showgrid="false"
     units="px"
     inkscape:zoom="0.84096521"
     inkscape:cx="-88.279267"
     inkscape:cy="73.646106"
     inkscape:window-x="-8"
     inkscape:window-y="-8"
     inkscape:window-maximized="1"
     inkscape:current-layer="Слой_x0020_1"
     inkscape:snap-nodes="false"
     inkscape:snap-others="false"
     inkscape:snap-global="false"
     fit-margin-top="0"
     fit-margin-left="0"
     fit-margin-right="0"
     fit-margin-bottom="0" /><defs
     id="defs6457"><inkscape:tag
       id="Набор 2"
       inkscape:expanded="true" /><linearGradient
       inkscape:collect="always"
       id="linearGradient8187"><stop
         style="stop-color:#e9afaf;stop-opacity:1;"
         offset="0"
         id="stop8183" /><stop
         style="stop-color:#e9afaf;stop-opacity:0;"
         offset="1"
         id="stop8185" /></linearGradient><style
       type="text/css"
       id="style6439"><![CDATA[
    .str2 {stroke:#DB99AC;stroke-width:1000}
    .str1 {stroke:#2B2A29;stroke-width:20}
    .str0 {stroke:#756C62;stroke-width:7.62}
    .fil4 {fill:none}
    .fil2 {fill:none;fill-rule:nonzero}
    .fil8 {fill:#F4FAFA}
    .fil15 {fill:#756C62}
    .fil3 {fill:#756C62}
    .fil0 {fill:#5A9FA3}
    .fil5 {fill:#26A8AC}
    .fil13 {fill:#387A71}
    .fil14 {fill:#1C9DA2}
    .fil17 {fill:#4A1826}
    .fil18 {fill:#571D2D}
    .fil12 {fill:#6C2338}
    .fil16 {fill:#A64C66}
    .fil10 {fill:#ADADAD}
    .fil9 {fill:#C46F87}
    .fil7 {fill:#C46F87}
    .fil11 {fill:#DEADBB}
    .fil6 {fill:white}
    .fil1 {fill:#756C62;fill-rule:nonzero}
   ]]></style><mask
       id="id0"><linearGradient
         id="id1"
         gradientUnits="userSpaceOnUse"
         x1="2410.1399"
         y1="3517.26"
         x2="2995.1599"
         y2="641.20801"><stop
           offset="0"
           style="stop-opacity:1; stop-color:white"
           id="stop6441" /><stop
           offset="1"
           style="stop-opacity:0; stop-color:white"
           id="stop6443" /></linearGradient><rect
         style="fill:url(#id1)"
         x="1534"
         y="1632"
         width="6027"
         height="2151"
         id="rect6446" /></mask><mask
       id="id2"><linearGradient
         id="id3"
         gradientUnits="userSpaceOnUse"
         x1="2628.8201"
         y1="5437.5898"
         x2="1769.04"
         y2="8986.0596"><stop
           offset="0"
           style="stop-opacity:1; stop-color:white"
           id="stop6449" /><stop
           offset="1"
           style="stop-opacity:0; stop-color:white"
           id="stop6451" /></linearGradient><rect
         style="fill:url(#id3)"
         x="1522"
         y="5578"
         width="6039"
         height="4127"
         id="rect6454" /></mask><linearGradient
       inkscape:collect="always"
       xlink:href="#linearGradient8187"
       id="linearGradient8189"
       x1="7378.4717"
       y1="7978.71"
       x2="7378.4722"
       y2="6210.0811"
       gradientUnits="userSpaceOnUse"
       gradientTransform="translate(939.95532,254.0247)" /></defs><g
     id="Слой_x0020_1"
     transform="translate(-1522,-1456)"><metadata
       id="CorelCorpID_0Corel-Layer" /><polygon
       class="fil0"
       style="fill:#26a8ac;fill-opacity:1;stroke-width:0.78633195"
       points="1534,3339 7561,1633 7561,3369 1534,3783 "
       mask="url(#id0)"
       id="polygon6460"
       transform="matrix(0.85122562,0,0,1.8999557,-10232.85,-620.15726)" /><rect
       class="fil4 str1"
       x="1532"
       y="1466"
       width="6019"
       height="8224"
       id="rect6544"
       style="fill:none;stroke:#2b2a29;stroke-width:20" /><polygon
       class="fil5"
       style="fill:#26a8ac;stroke-width:0.98899603"
       points="7561,9705 1523,9705 1523,5579 7561,5579 "
       mask="url(#id2)"
       id="polygon6548"
       transform="matrix(0.99815776,0,0,1.0242635,-8.3177129,-246.60038)" /><g
       id="_1095652912"><rect
         class="fil6"
         x="2703"
         y="7204"
         width="64.498001"
         height="741.73297"
         id="rect6550"
         style="fill:#ffffff" /><rect
         class="fil6"
         x="2509"
         y="7559"
         width="64.498001"
         height="386.992"
         id="rect6552"
         style="fill:#ffffff" /><rect
         class="fil6"
         x="2896"
         y="6946"
         width="64.498001"
         height="999.729"
         id="rect6554"
         style="fill:#ffffff" /><rect
         class="fil6"
         x="3090"
         y="7656"
         width="64.498001"
         height="290.24301"
         id="rect6556"
         style="fill:#ffffff" /><rect
         class="fil6"
         x="3283"
         y="7527"
         width="64.498001"
         height="419.24301"
         id="rect6558"
         style="fill:#ffffff" /><rect
         class="fil6"
         x="3477"
         y="7333"
         width="64.498001"
         height="612.737"
         id="rect6560"
         style="fill:#ffffff" /><rect
         class="fil6"
         x="3670"
         y="6301"
         width="64.498001"
         height="1644.72"
         id="rect6562"
         style="fill:#ffffff" /><rect
         class="fil6"
         x="3864"
         y="7720"
         width="64.498001"
         height="225.745"
         id="rect6564"
         style="fill:#ffffff" /><path
         class="fil6"
         d="m 3896,7753 c -3,0 -7,-1 -10,-2 l -581,-194 c -6,-2 -12,-6 -16,-12 l -362,-543 -166,222 c -10,13 -28,16 -42,8 l -387,-226 c -15,-9 -21,-28 -12,-44 9,-15 29,-20 44,-11 l 363,211 176,-235 c 6,-8 16,-14 27,-13 10,0 20,6 26,14 l 380,572 570,190 c 17,5 26,24 21,40 -5,14 -17,23 -31,23 z"
         id="path6566"
         inkscape:connector-curvature="0"
         style="fill:#ffffff" /><path
         class="fil6"
         d="m 2348,7978 c -5,0 -10,-1 -14,-3 -16,-8 -23,-27 -15,-43 l 194,-387 c 6,-13 20,-20 34,-18 l 567,95 366,-275 191,-1051 c 3,-18 20,-30 37,-26 18,3 30,20 26,37 l -193,1064 c -2,8 -6,15 -12,20 l -387,291 c -8,5 -16,7 -25,6 l -557,-93 -183,365 c -6,12 -17,18 -29,18 z"
         id="path6568"
         inkscape:connector-curvature="0"
         style="fill:#ffffff" /><path
         class="fil6"
         d="m 2348,7785 h -64 c -18,0 -33,-15 -33,-32 v 0 c 0,-18 15,-33 33,-33 h 64 z"
         id="path6570"
         inkscape:connector-curvature="0"
         style="fill:#ffffff" /><path
         class="fil6"
         d="m 2348,7591 h -64 c -18,0 -33,-14 -33,-32 v 0 c 0,-18 15,-32 33,-32 h 64 z"
         id="path6572"
         inkscape:connector-curvature="0"
         style="fill:#ffffff" /><path
         class="fil6"
         d="m 2348,7398 h -64 c -18,0 -33,-15 -33,-32 v 0 c 0,-18 15,-33 33,-33 h 64 z"
         id="path6574"
         inkscape:connector-curvature="0"
         style="fill:#ffffff" /><path
         class="fil6"
         d="m 2348,7204 h -64 c -18,0 -33,-14 -33,-32 v 0 c 0,-18 15,-32 33,-32 h 64 z"
         id="path6576"
         inkscape:connector-curvature="0"
         style="fill:#ffffff" /><path
         class="fil6"
         d="m 2348,7011 h -64 c -18,0 -33,-15 -33,-32 v 0 c 0,-18 15,-33 33,-33 h 64 z"
         id="path6578"
         inkscape:connector-curvature="0"
         style="fill:#ffffff" /><path
         class="fil6"
         d="m 2348,6817 h -64 c -18,0 -33,-14 -33,-32 v 0 c 0,-18 15,-32 33,-32 h 64 z"
         id="path6580"
         inkscape:connector-curvature="0"
         style="fill:#ffffff" /><path
         class="fil6"
         d="m 2348,6624 h -64 c -18,0 -33,-15 -33,-32 v 0 c 0,-18 15,-33 33,-33 h 64 z"
         id="path6582"
         inkscape:connector-curvature="0"
         style="fill:#ffffff" /><path
         class="fil6"
         d="m 2348,6430 h -64 c -18,0 -33,-14 -33,-32 v 0 c 0,-18 15,-32 33,-32 h 64 z"
         id="path6584"
         inkscape:connector-curvature="0"
         style="fill:#ffffff" /><path
         class="fil6"
         d="m 3928,7946 v 65 c 0,17 -14,32 -32,32 v 0 c -18,0 -32,-15 -32,-32 v -65 z"
         id="path6586"
         inkscape:connector-curvature="0"
         style="fill:#ffffff" /><path
         class="fil6"
         d="m 3735,7946 v 65 c 0,17 -15,32 -32,32 v 0 c -18,0 -33,-15 -33,-32 v -65 z"
         id="path6588"
         inkscape:connector-curvature="0"
         style="fill:#ffffff" /><path
         class="fil6"
         d="m 3541,7946 v 65 c 0,17 -14,32 -32,32 v 0 c -18,0 -32,-15 -32,-32 v -65 z"
         id="path6590"
         inkscape:connector-curvature="0"
         style="fill:#ffffff" /><path
         class="fil6"
         d="m 3348,7946 v 65 c 0,17 -15,32 -32,32 v 0 c -18,0 -33,-15 -33,-32 v -65 z"
         id="path6592"
         inkscape:connector-curvature="0"
         style="fill:#ffffff" /><path
         class="fil6"
         d="m 3154,7946 v 65 c 0,17 -14,32 -32,32 v 0 c -18,0 -32,-15 -32,-32 v -65 z"
         id="path6594"
         inkscape:connector-curvature="0"
         style="fill:#ffffff" /><path
         class="fil6"
         d="m 2961,7946 v 65 c 0,17 -15,32 -32,32 v 0 c -18,0 -33,-15 -33,-32 v -65 z"
         id="path6596"
         inkscape:connector-curvature="0"
         style="fill:#ffffff" /><path
         class="fil6"
         d="m 2767,7946 v 65 c 0,17 -14,32 -32,32 v 0 c -18,0 -32,-15 -32,-32 v -65 z"
         id="path6598"
         inkscape:connector-curvature="0"
         style="fill:#ffffff" /><path
         class="fil6"
         d="m 2574,7946 v 65 c 0,17 -15,32 -32,32 v 0 c -18,0 -33,-15 -33,-32 v -65 z"
         id="path6600"
         inkscape:connector-curvature="0"
         style="fill:#ffffff" /><path
         class="fil6"
         d="m 2348,8043 v 0 c -18,0 -32,-15 -32,-32 V 6205 c 0,-18 14,-33 32,-33 v 0 c 18,0 32,15 32,33 v 1806 c 0,17 -14,32 -32,32 z"
         id="path6602"
         inkscape:connector-curvature="0"
         style="fill:#ffffff" /><path
         class="fil6"
         d="m 2251,7946 v 0 c 0,-18 15,-32 33,-32 h 1806 c 17,0 32,14 32,32 v 0 c 0,18 -15,32 -32,32 H 2284 c -18,0 -33,-14 -33,-32 z"
         id="path6604"
         inkscape:connector-curvature="0"
         style="fill:#ffffff" /><circle
         class="fil7"
         cx="2542"
         cy="7559"
         r="64"
         id="circle6606"
         style="fill:#c46f87" /><circle
         class="fil7"
         cx="2735"
         cy="7204"
         r="64"
         id="circle6608"
         style="fill:#c46f87" /><circle
         class="fil7"
         cx="2929"
         cy="6946"
         r="64"
         id="circle6610"
         style="fill:#c46f87" /><circle
         class="fil6"
         cx="3316"
         cy="7527"
         r="64"
         id="circle6612"
         style="fill:#ffffff" /><circle
         class="fil7"
         cx="3896"
         cy="7720"
         r="64"
         id="circle6614"
         style="fill:#c46f87" /><circle
         class="fil7"
         cx="3122"
         cy="7656"
         r="64"
         id="circle6616"
         style="fill:#c46f87" /><circle
         class="fil7"
         cx="3509"
         cy="7366"
         r="64"
         id="circle6618"
         style="fill:#c46f87" /><circle
         class="fil7"
         cx="3703"
         cy="6301"
         r="64"
         id="circle6620"
         style="fill:#c46f87" /></g><g
       id="_1095649936"
       transform="translate(613.50636,-204.50212)"><circle
         class="fil8"
         cx="5183"
         cy="8179"
         r="727"
         id="circle6623"
         style="fill:#f4fafa" /><path
         class="fil9"
         d="m 5910,8179 v 0 h -727 l -513,-513 -1,-1 c 132,-131 314,-212 514,-212 402,0 727,325 727,726 z"
         id="path6625"
         inkscape:connector-curvature="0"
         style="fill:#c46f87" /><path
         class="fil10"
         d="m 5863,8437 c -98,-92 -230,-147 -374,-147 -304,0 -550,246 -550,550 0,8 0,16 0,24 77,27 159,42 244,42 311,0 576,-195 680,-469 z"
         id="path6627"
         inkscape:connector-curvature="0"
         style="fill:#adadad" /><circle
         class="fil8"
         cx="5606"
         cy="8802"
         r="513"
         id="circle6629"
         style="fill:#f4fafa" /><path
         class="fil11"
         d="m 5884,8372 c -80,-52 -176,-82 -278,-82 v 512 l 362,363 v 0 c 93,-93 151,-221 151,-363 0,-180 -94,-339 -235,-430 z"
         id="path6631"
         inkscape:connector-curvature="0"
         style="fill:#deadbb" /><path
         class="fil9"
         d="m 5606,8802 h 513 c 0,142 -58,270 -151,363 v 0 z"
         id="path6633"
         inkscape:connector-curvature="0"
         style="fill:#c46f87" /></g><g
       id="_1095667312"><path
         class="fil12"
         d="m 2950,2434 c -53,0 -99,-9 -139,-27 -39,-18 -72,-42 -98,-72 -26,-30 -46,-64 -59,-103 -13,-39 -19,-80 -19,-122 0,-43 7,-83 20,-122 13,-39 33,-73 60,-103 26,-29 59,-53 99,-71 40,-18 86,-27 138,-27 40,0 75,5 105,14 29,8 56,21 80,37 l -64,110 c -16,-11 -34,-20 -54,-26 -19,-7 -42,-10 -69,-10 -26,0 -49,5 -69,15 -19,10 -36,24 -50,41 -13,17 -24,37 -31,61 -6,24 -10,49 -10,77 0,28 3,54 10,79 7,25 17,46 30,64 14,18 31,33 51,43 20,11 44,16 71,16 33,0 59,-5 80,-15 20,-10 38,-20 53,-32 l 1,3 59,103 c -8,7 -19,14 -32,22 -13,8 -27,15 -44,22 -17,6 -35,12 -55,16 -21,5 -42,7 -64,7 z"
         id="path6636"
         inkscape:connector-curvature="0"
         style="fill:#6c2338" /><polygon
         class="fil13"
         points="3401,2428 3450,2428 3450,1804 3401,1804 "
         id="polygon6638"
         style="fill:#387a71" /><polygon
         class="fil13"
         points="3469,2428 3513,2428 3513,1804 3469,1804 "
         id="polygon6640"
         style="fill:#387a71" /><polygon
         class="fil12"
         points="3532,2428 3575,2428 3575,1804 3532,1804 "
         id="polygon6642"
         style="fill:#6c2338" /><polygon
         class="fil13"
         points="3594,2428 3639,2428 3639,1804 3594,1804 "
         id="polygon6644"
         style="fill:#387a71" /><polygon
         class="fil14"
         points="3152,1806 3009,1806 3011,2428 3152,2428 "
         id="polygon6646"
         style="fill:#1c9da2" /><polygon
         class="fil15"
         points="3188,2127 3188,2353 3370,2079 3370,1851 "
         id="polygon6648"
         style="fill:#756c62" /><polygon
         class="fil15"
         points="2053,1803 1903,1803 1903,2425 2053,2425 "
         id="polygon6650"
         style="fill:#756c62" /><polygon
         class="fil14"
         points="2376,2425 2388,2559 2480,2559 2497,2302 2433,2302 2433,1806 2284,1806 2284,2302 2083,2302 2083,2425 "
         id="polygon6652"
         style="fill:#1c9da2" /><polygon
         class="fil1"
         points="3693,1942 3693,1805 3726,1805 3726,1915 3776,1915 3776,1805 3809,1805 3809,1915 3823,1915 3819,1973 3799,1973 3796,1942 "
         id="polygon6654"
         style="fill:#756c62;fill-rule:nonzero" /><polygon
         id="polygon6656"
         class="fil1"
         points="3903,1840 3903,1860 3867,1860 3867,1880 3899,1880 3899,1899 3867,1899 3867,1922 3904,1922 3904,1942 3843,1942 3843,1840 "
         style="fill:#756c62;fill-rule:nonzero" /><polygon
         id="polygon6658"
         class="fil1"
         points="3949,1840 3949,1879 3990,1879 3990,1840 4014,1840 4014,1942 3990,1942 3990,1900 3949,1900 3949,1942 3924,1942 3924,1840 "
         style="fill:#756c62;fill-rule:nonzero" /><polygon
         id="polygon6660"
         class="fil1"
         points="4080,1860 4080,1942 4055,1942 4055,1860 4028,1860 4028,1840 4107,1840 4107,1860 "
         style="fill:#756c62;fill-rule:nonzero" /><path
         id="path6662"
         class="fil1"
         d="m 4121,1840 h 35 c 6,0 11,1 16,2 5,1 9,3 12,6 4,3 7,6 9,10 2,5 3,10 3,15 0,6 -1,11 -3,15 -2,5 -5,8 -9,11 -3,3 -8,5 -13,7 -5,1 -11,2 -17,2 h -9 v 34 h -24 z m 33,49 c 6,0 10,-1 13,-4 3,-2 4,-6 4,-11 0,-5 -1,-9 -4,-12 -2,-2 -7,-3 -12,-3 h -10 v 30 z"
         inkscape:connector-curvature="0"
         style="fill:#756c62;fill-rule:nonzero" /><polygon
         class="fil1"
         points="3866,2340 3866,2374 3902,2374 3902,2340 3923,2340 3923,2429 3902,2429 3902,2392 3866,2392 3866,2429 3844,2429 3844,2340 "
         id="polygon6664"
         style="fill:#756c62;fill-rule:nonzero" /><path
         id="path6666"
         class="fil1"
         d="m 3978,2420 c -6,-1 -12,-2 -17,-3 -5,-2 -9,-5 -12,-8 -4,-3 -7,-7 -9,-11 -1,-5 -2,-10 -2,-15 0,-4 1,-9 2,-13 2,-5 5,-9 9,-12 3,-3 8,-6 13,-8 5,-2 10,-3 16,-3 v -7 h 22 v 7 c 6,0 12,1 17,3 5,2 9,4 13,8 3,3 6,7 8,11 2,4 3,9 3,14 0,5 -1,10 -3,14 -2,5 -5,8 -8,12 -3,3 -8,6 -13,8 -5,1 -10,2 -17,3 v 9 h -22 z m 2,-58 c -3,0 -6,1 -9,2 -2,1 -5,2 -6,4 -2,2 -3,4 -4,7 -1,2 -2,5 -2,8 0,3 1,6 2,8 1,3 2,5 4,7 2,2 4,4 6,5 3,1 6,1 9,1 z m 19,42 c 6,0 11,-2 15,-6 3,-4 5,-9 5,-15 0,-3 0,-5 -1,-8 -1,-2 -2,-5 -4,-7 -2,-1 -4,-3 -7,-4 -2,-1 -5,-2 -8,-2 z"
         inkscape:connector-curvature="0"
         style="fill:#756c62;fill-rule:nonzero" /><path
         id="path6668"
         class="fil1"
         d="m 4097,2430 c -8,0 -15,-1 -20,-3 -6,-3 -11,-6 -15,-11 -4,-4 -7,-9 -9,-14 -2,-6 -3,-12 -3,-18 0,-5 1,-11 3,-17 2,-5 5,-10 9,-15 3,-4 8,-7 14,-10 6,-2 13,-4 20,-4 8,0 15,2 21,4 5,3 10,6 14,10 4,4 7,9 9,15 2,5 3,11 3,17 0,6 -1,12 -3,17 -2,6 -5,11 -9,15 -4,4 -8,8 -14,10 -6,3 -13,4 -20,4 z m -1,-17 c 5,0 8,-1 11,-2 3,-2 6,-4 8,-6 1,-3 3,-6 4,-10 1,-3 1,-7 1,-11 0,-3 0,-7 -1,-11 -1,-3 -2,-6 -4,-9 -2,-2 -5,-5 -7,-6 -3,-2 -7,-2 -11,-2 -4,0 -8,0 -11,2 -3,1 -6,3 -8,6 -2,3 -3,6 -4,9 -1,3 -1,7 -1,11 0,4 0,7 1,11 1,4 2,7 4,9 2,3 5,5 8,7 3,1 6,2 10,2 z"
         inkscape:connector-curvature="0"
         style="fill:#756c62;fill-rule:nonzero" /><path
         id="path6670"
         class="fil1"
         d="m 4159,2340 h 31 c 5,0 10,1 14,2 4,1 8,3 11,5 3,2 6,5 7,9 2,4 3,8 3,13 0,5 -1,9 -3,13 -1,4 -4,7 -7,9 -3,3 -7,4 -12,6 -4,1 -10,2 -15,2 h -8 v 30 h -21 z m 29,42 c 5,0 9,-1 12,-3 2,-2 3,-5 3,-10 0,-4 -1,-8 -3,-10 -3,-2 -6,-3 -11,-3 h -9 v 26 z"
         inkscape:connector-curvature="0"
         style="fill:#756c62;fill-rule:nonzero" /><path
         id="path6672"
         class="fil1"
         d="m 4243,2340 h 21 l 17,53 c 0,1 1,3 1,5 0,1 1,3 1,4 1,1 1,3 1,4 0,1 1,1 1,2 v 0 c 0,-1 0,-1 1,-2 0,-1 0,-3 1,-4 0,-1 1,-3 1,-4 0,-2 1,-4 1,-5 l 18,-53 h 21 l 12,89 h -22 l -5,-42 c -1,-3 -1,-6 -1,-9 0,-2 -1,-3 -1,-4 v 0 c 0,1 0,2 -1,4 -1,3 -2,6 -2,9 l -14,42 h -21 l -13,-42 c -1,-3 -1,-6 -2,-8 -1,-3 -1,-4 -1,-5 h -1 c 0,1 0,2 0,5 0,2 0,5 -1,8 l -5,42 h -19 z"
         inkscape:connector-curvature="0"
         style="fill:#756c62;fill-rule:nonzero" /><path
         id="path6674"
         class="fil1"
         d="m 4401,2397 -6,-19 c -1,-3 -2,-7 -3,-10 -1,-2 -1,-4 -2,-5 v 0 c 0,1 -1,3 -1,6 -1,2 -2,6 -3,9 l -7,19 z m -21,-57 h 21 l 35,89 h -23 l -6,-15 h -33 l -6,15 h -21 z"
         inkscape:connector-curvature="0"
         style="fill:#756c62;fill-rule:nonzero" /><polygon
         id="polygon6676"
         class="fil1"
         points="4448,2429 4448,2340 4470,2340 4470,2411 4503,2411 4503,2340 4524,2340 4524,2411 4534,2411 4531,2448 4518,2448 4516,2429 "
         style="fill:#756c62;fill-rule:nonzero" /><path
         id="path6678"
         class="fil1"
         d="m 4549,2340 h 21 v 43 c 0,1 0,3 0,5 0,1 -1,3 -1,4 0,1 0,3 0,3 0,1 0,2 0,2 v 0 c 1,0 2,-2 3,-5 2,-3 4,-6 7,-10 l 28,-42 h 22 v 89 h -20 v -47 c 0,-3 0,-6 0,-8 0,-2 0,-4 0,-4 v 0 c 0,1 -1,2 -3,4 -1,3 -3,6 -6,10 l -31,45 h -20 z"
         inkscape:connector-curvature="0"
         style="fill:#756c62;fill-rule:nonzero" /><path
         id="path6680"
         class="fil1"
         d="m 4650,2340 h 20 v 43 c 0,1 0,3 0,5 0,1 0,3 0,4 0,1 0,3 0,3 0,1 0,2 0,2 v 0 c 0,0 1,-2 3,-5 2,-3 4,-6 7,-10 l 28,-42 h 22 v 89 h -20 v -47 c 0,-3 0,-6 0,-8 0,-2 0,-4 0,-4 v 0 c -1,1 -2,2 -3,4 -1,3 -3,6 -6,10 l -31,45 h -20 z"
         inkscape:connector-curvature="0"
         style="fill:#756c62;fill-rule:nonzero" /><path
         id="path6682"
         class="fil1"
         d="m 3693,2291 h 32 v 66 c 0,3 0,6 0,8 0,2 0,5 0,7 -1,2 -1,4 -1,5 0,1 0,2 0,3 v 0 c 1,-1 2,-4 5,-8 3,-5 6,-10 11,-17 l 44,-64 h 33 v 138 h -31 v -72 c 0,-5 0,-9 0,-13 1,-4 1,-6 1,-7 h -1 c 0,1 -2,4 -4,7 -2,4 -6,9 -10,15 l -48,70 h -31 z"
         inkscape:connector-curvature="0"
         style="fill:#756c62;fill-rule:nonzero" /><path
         class="fil1"
         d="m 3825,2016 h 22 v 42 h 6 l 26,-42 h 23 l -31,47 c 2,2 3,4 4,6 2,2 3,5 5,8 2,4 4,8 5,10 2,3 3,5 4,7 1,2 3,3 4,3 1,1 3,2 5,2 h 1 v 20 h -9 c -3,0 -6,0 -8,-1 -2,-1 -4,-2 -6,-4 -2,-1 -4,-3 -5,-6 -2,-3 -4,-6 -6,-10 -2,-3 -3,-6 -4,-9 -2,-3 -3,-5 -4,-7 -1,-1 -2,-3 -3,-4 -1,0 -3,-1 -4,-1 h -3 v 42 h -22 z"
         id="path6684"
         inkscape:connector-curvature="0"
         style="fill:#756c62;fill-rule:nonzero" /><path
         id="path6686"
         class="fil1"
         d="m 3955,2121 c -8,0 -15,-2 -21,-5 -6,-3 -11,-7 -15,-11 -4,-5 -7,-11 -10,-17 -2,-7 -3,-13 -3,-20 0,-7 1,-14 3,-20 2,-7 6,-12 10,-17 4,-5 9,-9 15,-12 5,-3 12,-4 20,-4 8,0 15,1 21,4 6,3 11,7 15,12 4,4 7,10 9,16 2,7 3,13 3,20 0,7 -1,14 -3,20 -2,6 -5,12 -9,17 -4,5 -9,9 -15,12 -5,3 -12,5 -20,5 z m -1,-20 c 5,0 8,-1 11,-3 3,-2 6,-4 8,-7 2,-3 3,-7 4,-11 1,-4 2,-8 2,-12 0,-5 -1,-9 -2,-13 -1,-4 -2,-8 -4,-11 -2,-3 -4,-5 -7,-7 -3,-2 -7,-3 -11,-3 -5,0 -8,1 -11,3 -4,2 -6,4 -8,7 -2,3 -4,7 -5,10 -1,4 -1,9 -1,13 0,5 0,9 1,13 1,4 3,8 5,11 2,3 4,5 7,7 3,2 7,3 11,3 z"
         inkscape:connector-curvature="0"
         style="fill:#756c62;fill-rule:nonzero" /><polygon
         id="polygon6688"
         class="fil1"
         points="4041,2016 4041,2056 4078,2056 4078,2016 4100,2016 4100,2119 4078,2119 4078,2076 4041,2076 4041,2119 4018,2119 4018,2016 "
         style="fill:#756c62;fill-rule:nonzero" /><path
         id="path6690"
         class="fil1"
         d="m 4165,2121 c -8,0 -15,-2 -21,-5 -6,-3 -11,-7 -15,-11 -4,-5 -7,-11 -10,-17 -2,-7 -3,-13 -3,-20 0,-7 1,-14 3,-20 2,-7 5,-12 10,-17 4,-5 9,-9 14,-12 6,-3 13,-4 21,-4 8,0 15,1 21,4 6,3 11,7 15,12 4,4 7,10 9,16 2,7 3,13 3,20 0,7 -1,14 -3,20 -2,6 -5,12 -9,17 -4,5 -9,9 -15,12 -5,3 -12,5 -20,5 z m -1,-20 c 5,0 8,-1 11,-3 3,-2 6,-4 8,-7 2,-3 3,-7 4,-11 1,-4 2,-8 2,-12 0,-5 -1,-9 -2,-13 -1,-4 -2,-8 -4,-11 -2,-3 -4,-5 -7,-7 -3,-2 -7,-3 -11,-3 -5,0 -8,1 -12,3 -3,2 -5,4 -7,7 -2,3 -4,7 -5,10 -1,4 -1,9 -1,13 0,5 0,9 1,13 1,4 3,8 5,11 2,3 4,5 7,7 3,2 7,3 11,3 z"
         inkscape:connector-curvature="0"
         style="fill:#756c62;fill-rule:nonzero" /><path
         id="path6692"
         class="fil1"
         d="m 4235,2016 h 21 l 17,61 c 1,2 1,4 2,6 0,2 1,3 1,5 0,2 1,3 1,4 0,1 0,2 1,3 v 0 c 0,-1 0,-2 0,-3 1,-1 1,-2 2,-4 0,-2 0,-3 1,-5 0,-2 1,-4 1,-6 l 18,-61 h 22 l 12,103 h -23 l -5,-48 c 0,-4 0,-8 -1,-10 0,-3 0,-5 0,-6 v 0 c -1,1 -1,3 -2,6 0,3 -1,6 -2,9 l -14,49 h -21 l -14,-49 c -1,-3 -1,-6 -2,-9 -1,-3 -1,-5 -1,-6 h -1 c 0,1 0,3 0,6 0,3 0,6 -1,10 l -5,48 h -20 z"
         inkscape:connector-curvature="0"
         style="fill:#756c62;fill-rule:nonzero" /><path
         id="path6694"
         class="fil1"
         d="m 4350,2016 h 21 v 50 c 0,2 0,4 0,5 -1,2 -1,4 -1,6 0,1 0,2 0,3 0,1 0,2 0,2 v 0 c 1,0 2,-2 3,-5 2,-4 4,-8 7,-13 l 29,-48 h 23 v 103 h -21 v -54 c 0,-3 0,-6 0,-9 0,-3 0,-5 0,-5 v 0 c 0,1 -1,2 -3,5 -1,3 -3,6 -6,11 l -32,52 h -20 z"
         inkscape:connector-curvature="0"
         style="fill:#756c62;fill-rule:nonzero" /><path
         id="path6696"
         class="fil1"
         d="m 4501,2081 c -1,1 -2,2 -4,4 -2,1 -3,3 -6,4 -2,1 -5,2 -7,3 -3,1 -6,1 -9,1 -5,0 -8,-1 -12,-2 -3,-2 -6,-4 -8,-6 -2,-3 -4,-6 -5,-10 -1,-3 -2,-7 -2,-11 v -48 h 22 v 43 c 0,5 1,8 4,11 2,2 5,4 9,4 2,0 4,-1 6,-1 2,-1 3,-2 5,-2 1,-1 3,-2 4,-3 2,-1 3,-2 3,-3 v -49 h 22 v 103 h -22 z"
         inkscape:connector-curvature="0"
         style="fill:#756c62;fill-rule:nonzero" /><polygon
         id="polygon6698"
         class="fil1"
         points="4599,2016 4599,2037 4567,2037 4567,2057 4595,2057 4595,2076 4567,2076 4567,2099 4600,2099 4600,2119 4545,2119 4545,2016 "
         style="fill:#756c62;fill-rule:nonzero" /><path
         id="path6700"
         class="fil1"
         d="m 4660,2121 c -8,0 -15,-2 -21,-5 -6,-3 -10,-7 -14,-11 -4,-5 -7,-11 -9,-17 -2,-7 -3,-14 -3,-21 0,-7 1,-13 3,-20 2,-6 5,-11 9,-16 4,-5 9,-9 15,-12 6,-3 13,-4 21,-4 6,0 11,0 16,2 4,1 8,3 12,6 l -10,18 c -2,-2 -5,-3 -8,-4 -3,-1 -6,-2 -11,-2 -4,0 -7,1 -10,2 -3,2 -5,4 -7,7 -3,3 -4,6 -5,10 -1,4 -2,8 -2,13 0,4 1,9 2,13 1,4 2,7 4,10 2,3 5,6 8,7 3,2 7,3 11,3 5,0 9,-1 12,-2 3,-2 6,-4 8,-6 l 9,18 c -1,1 -3,2 -5,3 -2,2 -4,3 -7,4 -2,1 -5,2 -8,3 -3,0 -6,1 -10,1 z"
         inkscape:connector-curvature="0"
         style="fill:#756c62;fill-rule:nonzero" /><path
         id="path6702"
         class="fil1"
         d="m 4703,2016 h 22 v 42 h 6 l 25,-42 h 24 l -31,47 c 2,2 3,4 4,6 2,2 3,5 5,8 2,4 4,8 5,10 2,3 3,5 4,7 1,2 3,3 4,3 1,1 3,2 5,2 h 1 v 20 h -9 c -3,0 -6,0 -8,-1 -2,-1 -4,-2 -6,-4 -2,-1 -4,-3 -5,-6 -2,-3 -4,-6 -6,-10 -2,-3 -3,-6 -5,-9 -1,-3 -2,-5 -3,-7 -1,-1 -3,-3 -4,-4 -1,0 -2,-1 -3,-1 h -3 v 42 h -22 z"
         inkscape:connector-curvature="0"
         style="fill:#756c62;fill-rule:nonzero" /><path
         id="path6704"
         class="fil1"
         d="m 4833,2121 c -8,0 -15,-2 -21,-5 -6,-3 -11,-7 -15,-11 -4,-5 -8,-11 -10,-17 -2,-7 -3,-13 -3,-20 0,-7 1,-14 3,-20 2,-7 5,-12 9,-17 4,-5 9,-9 15,-12 6,-3 13,-4 21,-4 8,0 15,1 21,4 6,3 11,7 15,12 4,4 7,10 9,16 2,7 3,13 3,20 0,7 -1,14 -3,20 -2,6 -5,12 -9,17 -4,5 -9,9 -15,12 -6,3 -12,5 -20,5 z m -1,-20 c 4,0 8,-1 11,-3 3,-2 6,-4 8,-7 2,-3 3,-7 4,-11 1,-4 2,-8 2,-12 0,-5 -1,-9 -2,-13 -1,-4 -2,-8 -4,-11 -2,-3 -4,-5 -7,-7 -3,-2 -7,-3 -11,-3 -5,0 -9,1 -12,3 -3,2 -5,4 -7,7 -2,3 -4,7 -5,10 -1,4 -1,9 -1,13 0,5 0,9 1,13 1,4 3,8 4,11 2,3 5,5 8,7 3,2 7,3 11,3 z"
         inkscape:connector-curvature="0"
         style="fill:#756c62;fill-rule:nonzero" /><path
         id="path6706"
         class="fil1"
         d="m 4896,2016 h 21 v 50 c 0,2 0,4 0,5 0,2 0,4 0,6 0,1 0,2 -1,3 0,1 0,2 0,2 h 1 c 0,0 1,-2 3,-5 1,-4 4,-8 7,-13 l 29,-48 h 22 v 103 h -21 v -54 c 0,-3 0,-6 1,-9 0,-3 0,-5 0,-5 v 0 c -1,1 -2,2 -3,5 -2,3 -4,6 -7,11 l -32,52 h -20 z m 41,-5 c -3,0 -6,-1 -8,-2 -3,-1 -6,-2 -8,-4 -2,-2 -4,-4 -5,-7 -2,-3 -3,-7 -3,-11 h 17 c 0,3 1,5 2,7 1,1 3,2 5,2 2,0 4,-1 5,-2 2,-2 2,-4 3,-7 h 16 c 0,4 -1,8 -2,11 -2,3 -4,5 -6,7 -2,2 -4,3 -7,4 -3,1 -6,2 -9,2 z"
         inkscape:connector-curvature="0"
         style="fill:#756c62;fill-rule:nonzero" /><path
         id="path6708"
         class="fil1"
         d="m 3734,2122 c -9,0 -17,-2 -24,-4 -7,-2 -13,-5 -18,-9 l 14,-27 c 4,2 8,5 12,6 5,2 10,3 17,3 5,0 9,-1 13,-2 4,-2 8,-5 11,-8 3,-3 5,-6 7,-10 2,-5 3,-9 4,-14 h -52 v -28 h 52 c -1,-5 -2,-10 -4,-14 -2,-4 -4,-7 -7,-11 -3,-3 -6,-5 -10,-7 -4,-1 -9,-2 -14,-2 -6,0 -12,1 -17,3 -4,2 -8,5 -11,7 l -14,-25 c 2,-2 4,-4 7,-6 3,-1 6,-3 10,-5 4,-1 8,-2 12,-3 4,-1 9,-2 14,-2 12,0 22,2 31,6 9,5 16,10 22,18 6,7 10,15 13,25 3,9 4,19 4,30 0,10 -1,20 -5,30 -3,9 -7,17 -13,25 -6,7 -14,13 -22,17 -9,4 -20,7 -32,7 z"
         inkscape:connector-curvature="0"
         style="fill:#756c62;fill-rule:nonzero" /><polygon
         id="polygon6710"
         class="fil1"
         points="5089,2016 5097,2016 5097,2119 5090,2119 5090,2029 5035,2119 5028,2119 5028,2016 5035,2016 5035,2105 "
         style="fill:#756c62;fill-rule:nonzero" /><path
         class="fil1"
         d="m 3859,2275 c -7,0 -14,-1 -20,-4 -5,-2 -10,-6 -14,-10 -4,-4 -6,-9 -8,-15 -2,-5 -3,-11 -3,-17 0,-6 1,-11 2,-17 2,-6 5,-11 9,-15 4,-4 8,-8 14,-10 6,-3 12,-4 19,-4 8,0 14,1 20,4 6,2 10,6 14,10 4,4 6,9 8,14 2,6 3,12 3,18 0,6 -1,11 -3,17 -1,6 -4,11 -8,15 -4,4 -8,8 -14,10 -5,3 -12,4 -19,4 z m -1,-17 c 5,0 8,-1 11,-2 3,-2 5,-4 7,-7 2,-2 3,-5 4,-9 1,-3 1,-7 1,-11 0,-4 0,-7 -1,-11 -1,-3 -2,-6 -4,-9 -2,-3 -4,-5 -7,-6 -3,-2 -6,-3 -10,-3 -4,0 -8,1 -11,3 -2,1 -5,3 -7,6 -2,2 -3,5 -4,9 -1,3 -1,7 -1,11 0,4 0,7 1,11 1,3 2,6 4,9 2,3 4,5 7,7 3,1 6,2 10,2 z"
         id="path6712"
         inkscape:connector-curvature="0"
         style="fill:#756c62;fill-rule:nonzero" /><polygon
         id="polygon6714"
         class="fil1"
         points="3918,2274 3918,2185 3939,2185 3939,2256 3971,2256 3971,2185 3992,2185 3992,2256 4000,2256 3998,2293 3985,2293 3984,2274 "
         style="fill:#756c62;fill-rule:nonzero" /><path
         id="path6716"
         class="fil1"
         d="m 4016,2185 h 19 v 42 c 0,2 0,4 0,5 0,2 0,4 0,5 0,1 0,2 0,3 0,1 0,2 0,2 v 0 c 0,-1 1,-2 3,-5 1,-3 3,-7 6,-11 l 27,-41 h 21 v 89 h -19 v -47 c 0,-3 0,-6 0,-8 0,-3 0,-4 0,-4 v 0 c 0,0 -1,2 -3,4 -1,2 -3,6 -5,9 l -30,46 h -19 z"
         inkscape:connector-curvature="0"
         style="fill:#756c62;fill-rule:nonzero" /><path
         id="path6718"
         class="fil1"
         d="m 4157,2242 -6,-19 c -2,-4 -3,-7 -3,-10 -1,-3 -1,-5 -2,-5 v 0 c 0,1 -1,2 -1,5 -1,3 -2,6 -3,10 l -6,19 z m -20,-57 h 20 l 33,89 h -22 l -5,-15 h -33 l -5,15 h -21 z"
         inkscape:connector-curvature="0"
         style="fill:#756c62;fill-rule:nonzero" /><path
         id="path6720"
         class="fil1"
         d="m 4195,2259 c 2,-1 4,-2 6,-3 1,-2 2,-4 3,-6 1,-3 2,-6 3,-9 0,-4 1,-8 1,-13 l 3,-43 h 62 v 89 h -21 v -72 h -23 l -2,32 c 0,8 -1,14 -3,19 -1,5 -3,10 -6,13 -2,3 -5,5 -9,7 -4,1 -8,2 -12,2 z"
         inkscape:connector-curvature="0"
         style="fill:#756c62;fill-rule:nonzero" /><path
         id="path6722"
         class="fil1"
         d="m 4293,2185 h 20 v 30 h 11 c 4,0 9,0 13,2 4,1 7,2 10,5 3,2 6,5 8,9 1,4 2,8 2,13 0,5 -1,9 -2,13 -2,4 -5,7 -8,9 -3,3 -7,5 -11,6 -4,1 -9,2 -15,2 h -28 z m 29,72 c 5,0 9,-1 11,-3 2,-2 3,-5 3,-10 0,-4 -1,-8 -3,-10 -2,-2 -6,-3 -11,-3 h -9 v 26 z"
         inkscape:connector-curvature="0"
         style="fill:#756c62;fill-rule:nonzero" /><polygon
         id="polygon6724"
         class="fil1"
         points="4392,2185 4392,2219 4427,2219 4427,2185 4447,2185 4447,2274 4427,2274 4427,2236 4392,2236 4392,2274 4371,2274 4371,2185 "
         style="fill:#756c62;fill-rule:nonzero" /><path
         id="path6726"
         class="fil1"
         d="m 4508,2275 c -8,0 -14,-1 -20,-4 -5,-2 -10,-6 -14,-10 -4,-4 -7,-9 -9,-15 -2,-5 -3,-11 -3,-17 0,-6 1,-11 3,-17 2,-6 5,-11 9,-15 4,-4 8,-8 14,-10 5,-3 12,-4 19,-4 8,0 14,1 20,4 5,2 10,6 14,10 3,4 6,9 8,14 2,6 3,12 3,18 0,6 -1,11 -3,17 -2,6 -4,11 -8,15 -4,4 -8,8 -14,10 -5,3 -12,4 -19,4 z m -1,-17 c 4,0 8,-1 11,-2 3,-2 5,-4 7,-7 2,-2 3,-5 4,-9 1,-3 1,-7 1,-11 0,-4 0,-7 -1,-11 -1,-3 -2,-6 -4,-9 -2,-3 -4,-5 -7,-6 -3,-2 -6,-3 -10,-3 -4,0 -8,1 -11,3 -3,1 -5,3 -7,6 -2,2 -3,5 -4,9 -1,3 -2,7 -2,11 0,4 1,7 2,11 1,3 2,6 4,9 2,3 4,5 7,7 3,1 6,2 10,2 z"
         inkscape:connector-curvature="0"
         style="fill:#756c62;fill-rule:nonzero" /><path
         id="path6728"
         class="fil1"
         d="m 4567,2185 h 20 v 42 c 0,2 0,4 0,5 0,2 0,4 -1,5 0,1 0,2 0,3 0,1 0,2 0,2 v 0 c 1,-1 2,-2 3,-5 2,-3 4,-7 7,-11 l 27,-41 h 21 v 89 h -19 v -47 c 0,-3 0,-6 0,-8 0,-3 0,-4 0,-4 v 0 c -1,0 -2,2 -3,4 -1,2 -3,6 -6,9 l -30,46 h -19 z m 39,-5 c -3,0 -6,-1 -8,-2 -3,0 -5,-2 -7,-3 -2,-2 -4,-4 -5,-7 -2,-2 -3,-5 -3,-9 h 16 c 0,3 1,5 2,6 1,1 2,2 5,2 2,0 3,-1 5,-2 1,-1 1,-3 2,-6 h 15 c 0,4 -1,7 -2,9 -2,3 -3,5 -5,7 -2,1 -5,3 -7,3 -3,1 -6,2 -8,2 z"
         inkscape:connector-curvature="0"
         style="fill:#756c62;fill-rule:nonzero" /><path
         id="path6730"
         class="fil1"
         d="m 3762,2276 c -11,0 -21,-2 -30,-6 -9,-4 -16,-9 -22,-16 -5,-6 -10,-14 -12,-22 -3,-9 -5,-18 -5,-27 0,-10 2,-19 5,-27 3,-9 7,-16 13,-23 6,-7 13,-12 22,-16 8,-4 18,-6 30,-6 9,0 16,1 23,3 6,2 12,5 18,9 l -15,24 c -3,-3 -7,-5 -11,-6 -5,-1 -10,-2 -16,-2 -5,0 -10,1 -15,3 -4,2 -8,5 -11,9 -3,4 -5,8 -6,14 -2,5 -3,11 -3,17 0,6 1,12 3,17 1,6 3,10 6,14 3,4 7,8 11,10 5,2 10,3 16,3 7,0 13,-1 17,-3 5,-2 9,-4 12,-7 l 13,23 c -2,2 -4,4 -7,5 -3,2 -6,4 -10,5 -3,1 -7,3 -12,4 -4,1 -9,1 -14,1 z"
         inkscape:connector-curvature="0"
         style="fill:#756c62;fill-rule:nonzero" /><path
         class="fil16"
         d="m 3086,2264 v 0 c -8,6 -17,11 -26,16 v 0 c 0,0 0,0 0,0 v 0 c -16,9 -33,16 -50,21 l 1,126 c 1,-1 1,-1 2,-1 52,-7 98,-27 139,-58 l -64,-105 c -1,0 -1,0 -2,1 z m 0,0 v 0 c 0,0 0,0 0,0 z"
         id="path6732"
         inkscape:connector-curvature="0"
         style="fill:#a64c66" /><path
         class="fil16"
         d="m 3009,1921 v -130 c 43,2 88,17 136,46 l -71,112 c -22,-13 -44,-22 -65,-28 z"
         id="path6734"
         inkscape:connector-curvature="0"
         style="fill:#a64c66" /><path
         class="fil17"
         d="m 2707,2329 c 103,-135 104,-281 3,-439 -110,149 -111,295 -3,439 z"
         id="path6736"
         inkscape:connector-curvature="0"
         style="fill:#4a1826" /><path
         class="fil1"
         d="m 2468,2437 c -42,0 -78,-5 -109,-14 -30,-9 -57,-22 -79,-38 l 64,-110 c 15,11 33,20 53,27 21,7 45,11 74,11 22,0 41,-3 59,-11 17,-7 32,-16 45,-29 14,-12 24,-27 33,-44 8,-17 14,-36 18,-56 h -229 v -115 h 228 c -4,-20 -9,-38 -18,-55 -8,-17 -18,-32 -31,-44 -12,-12 -27,-22 -45,-29 -17,-7 -37,-11 -58,-11 -30,0 -55,5 -75,14 -20,9 -38,19 -52,30 l -59,-105 c 8,-6 18,-14 31,-22 12,-7 26,-14 42,-20 17,-7 34,-12 53,-16 20,-4 40,-6 63,-6 52,0 97,9 136,26 39,18 72,41 97,71 26,29 45,63 57,102 13,39 19,80 19,123 0,42 -7,82 -20,121 -14,39 -34,73 -60,103 -26,29 -59,53 -99,71 -40,17 -85,26 -138,26 z"
         id="path6738"
         inkscape:connector-curvature="0"
         style="fill:#756c62;fill-rule:nonzero" /><path
         class="fil13"
         d="m 2279,2385 c 67,41 136,58 209,51 l 9,-123 c -58,5 -110,-11 -155,-46 z"
         id="path6740"
         inkscape:connector-curvature="0"
         style="fill:#387a71" /><path
         class="fil18"
         d="m 2714,2337 c 101,-152 101,-302 -2,-449 -116,148 -115,296 0,447 1,0 2,1 2,2 z"
         id="path6742"
         inkscape:connector-curvature="0"
         style="fill:#571d2d" /><path
         class="fil13"
         d="m 2288,1858 58,104 c 28,-19 57,-32 87,-40 l -2,-116 h -39 c -39,9 -74,27 -104,52 z"
         id="path6744"
         inkscape:connector-curvature="0"
         style="fill:#387a71" /></g><path
       class="fil1"
       d="m 2064.531,3433.5807 c 0,13 -2,25 -6,36 -4,10 -10,19 -18,26 -8,7 -18,13 -30,16 -11,4 -25,6 -40,6 h -20 v 77 c 0,1 -1,2 -1,3 -1,1 -3,2 -4,3 -2,0 -5,1 -8,1 -3,1 -7,1 -11,1 -5,0 -9,0 -12,-1 -3,0 -5,-1 -7,-1 -2,-1 -3,-2 -4,-3 -1,-1 -1,-2 -1,-3 v -217 c 0,-6 1,-10 4,-13 3,-3 7,-5 12,-5 h 56 c 6,0 11,1 16,1 5,0 11,1 18,3 7,1 14,4 22,8 7,4 13,8 18,14 5,6 9,13 12,21 3,8 4,17 4,27 z m -50,3 c 0,-8 -2,-15 -5,-21 -3,-5 -6,-9 -10,-12 -5,-2 -9,-4 -14,-5 -5,-1 -10,-1 -15,-1 h -20 v 82 h 21 c 8,0 15,-1 20,-3 5,-2 9,-5 13,-9 3,-4 6,-8 7,-13 2,-6 3,-12 3,-18 z"
       id="path6747"
       inkscape:connector-curvature="0"
       style="fill:#756c62;fill-rule:nonzero" /><path
       id="path6749"
       class="fil1"
       d="m 2246.531,3506.5807 c 0,6 -1,10 -4,13 -2,3 -6,4 -10,4 h -100 c 0,7 1,14 3,19 1,6 4,11 8,15 3,4 8,7 14,9 5,2 12,3 20,3 8,0 15,0 21,-2 6,-1 12,-2 16,-3 4,-2 8,-3 11,-4 3,-2 5,-2 7,-2 1,0 2,0 3,0 1,1 1,2 2,3 0,1 1,2 1,5 0,2 0,4 0,7 0,3 0,5 0,7 0,2 0,4 -1,5 0,2 0,3 -1,4 0,1 -1,1 -2,2 -1,1 -3,2 -6,4 -4,1 -8,3 -14,4 -5,2 -12,3 -19,4 -7,1 -14,2 -22,2 -15,0 -27,-2 -38,-6 -11,-4 -20,-9 -28,-17 -7,-7 -12,-17 -16,-28 -4,-12 -5,-26 -5,-41 0,-15 1,-28 5,-40 4,-12 9,-22 17,-30 7,-8 16,-15 26,-19 10,-4 22,-7 35,-7 14,0 25,2 35,7 10,4 18,9 24,17 6,7 11,15 14,25 2,10 4,21 4,33 z m -45,-13 c 1,-13 -2,-24 -7,-31 -6,-8 -15,-11 -26,-11 -6,0 -11,1 -16,3 -4,2 -8,5 -10,9 -3,4 -5,8 -7,13 -2,6 -2,11 -3,17 z"
       inkscape:connector-curvature="0"
       style="fill:#756c62;fill-rule:nonzero" /><path
       id="path6751"
       class="fil1"
       d="m 2408.531,3548.5807 c 0,9 -2,17 -5,24 -4,7 -9,13 -16,18 -7,5 -15,9 -25,11 -10,3 -21,4 -33,4 -6,0 -12,-1 -18,-2 -5,-1 -11,-2 -15,-3 -5,-2 -9,-3 -12,-5 -4,-1 -6,-3 -7,-4 -2,-1 -3,-2 -3,-3 -1,-1 -1,-3 -2,-4 0,-2 0,-4 -1,-6 0,-2 0,-5 0,-8 0,-2 0,-5 1,-6 0,-2 0,-4 1,-5 0,-1 1,-2 1,-2 1,-1 1,-1 2,-1 2,0 4,1 6,3 3,1 6,3 10,5 4,1 8,3 14,5 6,1 12,2 20,2 5,0 10,0 14,-1 4,-2 8,-3 11,-5 2,-2 4,-5 6,-8 1,-3 2,-6 2,-10 0,-3 -1,-6 -2,-9 -1,-3 -4,-5 -7,-7 -3,-2 -7,-4 -12,-5 -5,0 -11,-1 -19,-1 h -17 c -2,0 -3,0 -4,-1 -1,0 -2,-1 -3,-3 0,-1 -1,-2 -1,-5 0,-2 0,-4 0,-7 0,-3 0,-6 0,-8 1,-1 1,-3 2,-4 0,-1 1,-2 2,-3 1,0 2,0 3,0 h 17 c 7,0 12,-1 17,-2 5,-1 9,-2 12,-4 3,-2 5,-4 6,-7 2,-3 3,-6 3,-10 0,-3 -1,-6 -2,-9 -2,-2 -4,-4 -6,-6 -3,-2 -6,-3 -9,-4 -3,-1 -7,-1 -11,-1 -7,0 -14,1 -19,2 -5,2 -10,4 -14,5 -4,2 -8,4 -10,6 -3,1 -5,2 -6,2 -1,0 -1,0 -2,-1 -1,0 -1,-1 -2,-2 0,-1 -1,-2 -1,-4 0,-2 -1,-4 -1,-8 0,-4 1,-8 1,-11 1,-3 2,-5 4,-7 1,-2 4,-3 8,-5 4,-2 8,-4 13,-5 6,-2 11,-3 17,-4 7,-1 13,-2 19,-2 10,0 20,1 28,3 8,2 15,5 21,9 6,4 10,9 13,15 3,6 5,13 5,21 0,5 -1,9 -2,14 -2,4 -4,8 -6,12 -3,3 -6,6 -10,9 -4,3 -9,5 -14,6 v 1 c 6,0 10,2 15,4 5,2 9,5 12,9 4,4 6,8 8,13 2,4 3,10 3,15 z"
       inkscape:connector-curvature="0"
       style="fill:#756c62;fill-rule:nonzero" /><path
       id="path6753"
       class="fil1"
       d="m 2536.531,3601.5807 -19,58 c -1,3 -4,6 -9,7 -5,1 -12,2 -22,2 -5,0 -8,0 -11,-1 -3,0 -5,-1 -7,-2 -1,-1 -2,-2 -2,-3 0,-2 0,-4 1,-6 l 22,-55 c -2,-1 -3,-2 -5,-4 -1,-1 -2,-3 -3,-5 l -56,-153 c -1,-4 -2,-7 -2,-10 0,-2 1,-4 2,-5 2,-1 4,-2 8,-3 3,0 8,-1 13,-1 6,0 10,0 13,1 3,0 5,0 7,1 2,1 3,2 4,4 1,1 1,3 2,6 l 39,112 v 0 l 35,-114 c 1,-3 2,-5 3,-7 1,-1 3,-1 6,-2 2,0 7,-1 14,-1 5,0 9,1 13,1 3,1 6,2 8,3 1,1 2,3 2,5 0,3 0,5 -1,9 z"
       inkscape:connector-curvature="0"
       style="fill:#756c62;fill-rule:nonzero" /><path
       id="path6755"
       class="fil1"
       d="m 2757.531,3594.5807 c 0,1 0,3 -1,4 0,0 -2,1 -3,2 -2,0 -4,1 -7,1 -3,1 -7,1 -12,1 -4,0 -8,0 -11,-1 -3,0 -5,-1 -7,-1 -2,-1 -3,-2 -4,-2 0,-1 -1,-3 -1,-4 v -134 h -33 c -2,19 -4,36 -7,51 -3,15 -6,28 -10,38 -4,11 -8,20 -12,27 -5,7 -10,12 -16,17 -5,4 -11,7 -17,8 -7,2 -14,3 -21,3 -1,0 -3,0 -4,-1 -1,0 -2,-1 -2,-3 -1,-1 -1,-3 -2,-6 0,-3 0,-6 0,-11 0,-4 0,-8 0,-11 0,-3 1,-5 1,-7 1,-1 1,-2 2,-3 1,0 2,0 3,0 4,0 7,-1 10,-3 3,-1 6,-3 9,-7 3,-4 5,-9 8,-15 2,-6 5,-13 7,-23 2,-9 4,-20 6,-32 1,-13 3,-28 5,-45 0,-5 1,-9 3,-11 2,-3 5,-4 9,-4 h 95 c 4,0 7,1 9,4 2,2 3,6 3,11 z"
       inkscape:connector-curvature="0"
       style="fill:#756c62;fill-rule:nonzero" /><path
       id="path6757"
       class="fil1"
       d="m 2959.531,3538.5807 c 0,10 -2,19 -6,27 -3,8 -9,15 -16,21 -8,6 -17,11 -29,14 -11,3 -24,4 -40,4 -4,0 -8,0 -12,0 -4,0 -8,0 -13,0 -4,0 -8,0 -12,-1 -4,0 -7,0 -11,-1 -6,0 -10,-2 -13,-5 -2,-3 -4,-8 -4,-14 v -155 c 0,-1 1,-2 2,-3 0,-1 1,-2 3,-3 2,0 4,-1 7,-1 3,0 7,-1 11,-1 5,0 9,1 11,1 3,0 6,1 7,1 2,1 4,2 4,3 1,1 2,2 2,3 v 51 c 4,0 8,0 13,-1 5,0 10,0 15,0 14,0 26,1 36,4 10,3 19,7 25,12 7,5 11,12 15,19 3,8 5,16 5,25 z m -49,3 c 0,-4 0,-8 -2,-12 -1,-3 -3,-6 -6,-8 -3,-3 -7,-5 -12,-6 -5,-1 -10,-2 -17,-2 -5,0 -9,0 -13,0 -4,1 -7,1 -10,1 v 54 c 3,0 7,1 11,1 4,0 8,0 13,0 12,0 21,-2 27,-7 6,-5 9,-12 9,-21 z"
       inkscape:connector-curvature="0"
       style="fill:#756c62;fill-rule:nonzero" /><path
       id="path6759"
       class="fil1"
       d="m 3098.531,3442.5807 c 0,4 0,8 -1,10 0,3 0,5 -1,7 -1,2 -1,3 -2,3 -1,1 -2,1 -3,1 h -42 v 131 c 0,1 0,3 -1,4 0,0 -2,1 -3,2 -2,0 -4,1 -7,1 -3,1 -7,1 -12,1 -4,0 -8,0 -11,-1 -3,0 -5,-1 -7,-1 -1,-1 -3,-2 -3,-2 -1,-1 -1,-3 -1,-4 v -131 h -41 c -2,0 -3,0 -4,-1 0,-1 -1,-2 -2,-3 0,-2 -1,-4 -1,-7 -1,-3 -1,-6 -1,-10 0,-4 1,-7 1,-10 0,-2 1,-4 1,-6 1,-2 2,-3 3,-3 0,-1 1,-1 3,-1 h 128 c 1,0 2,0 3,1 1,0 1,1 2,3 1,2 1,4 1,6 1,3 1,6 1,10 z"
       inkscape:connector-curvature="0"
       style="fill:#756c62;fill-rule:nonzero" /><path
       id="path6761"
       class="fil1"
       d="m 3262.531,3595.5807 c 0,2 -1,3 -2,4 -1,1 -3,2 -6,2 -2,1 -6,1 -12,1 -5,0 -9,0 -12,-1 -2,0 -4,-1 -5,-2 -1,-1 -1,-2 -1,-4 v -13 c -7,7 -15,13 -23,17 -9,4 -19,6 -29,6 -9,0 -17,-1 -24,-4 -7,-2 -13,-5 -19,-10 -5,-4 -9,-10 -12,-17 -3,-7 -4,-14 -4,-23 0,-10 1,-18 5,-25 4,-8 9,-14 17,-18 7,-5 16,-8 27,-11 11,-2 24,-3 38,-3 h 16 v -10 c 0,-5 0,-10 -1,-14 -1,-4 -3,-7 -5,-9 -3,-3 -6,-5 -10,-6 -4,-1 -9,-2 -14,-2 -8,0 -15,1 -21,2 -6,2 -11,4 -16,6 -5,2 -8,4 -12,6 -3,2 -5,3 -7,3 -2,0 -3,-1 -4,-2 -1,0 -2,-2 -2,-3 -1,-2 -1,-4 -2,-6 0,-3 0,-5 0,-8 0,-4 0,-7 1,-9 0,-2 1,-4 3,-6 2,-2 5,-4 9,-6 4,-2 9,-4 15,-6 6,-2 12,-4 19,-5 6,-1 13,-2 21,-2 12,0 23,2 33,4 9,3 16,7 22,12 6,5 10,12 13,20 2,9 4,19 4,30 z m -46,-72 h -17 c -8,0 -14,1 -19,2 -5,1 -10,3 -13,5 -3,2 -6,5 -7,8 -2,3 -2,7 -2,11 0,7 2,13 6,17 4,4 10,6 18,6 6,0 12,-2 18,-5 5,-4 11,-9 16,-15 z"
       inkscape:connector-curvature="0"
       style="fill:#756c62;fill-rule:nonzero" /><path
       id="path6763"
       class="fil1"
       d="m 3427.531,3442.5807 c 0,4 0,8 0,10 0,3 -1,5 -1,7 -1,2 -2,3 -3,3 -1,1 -2,1 -3,1 h -41 v 131 c 0,1 0,3 -1,4 -1,0 -2,1 -4,2 -1,0 -4,1 -7,1 -3,1 -6,1 -11,1 -4,0 -8,0 -11,-1 -3,0 -5,-1 -7,-1 -2,-1 -3,-2 -4,-2 0,-1 -1,-3 -1,-4 v -131 h -41 c -1,0 -2,0 -3,-1 -1,-1 -2,-2 -2,-3 -1,-2 -1,-4 -2,-7 0,-3 0,-6 0,-10 0,-4 0,-7 1,-10 0,-2 0,-4 1,-6 1,-2 1,-3 2,-3 1,-1 2,-1 3,-1 h 128 c 1,0 2,0 3,1 1,0 2,1 3,3 0,2 1,4 1,6 0,3 0,6 0,10 z"
       inkscape:connector-curvature="0"
       style="fill:#756c62;fill-rule:nonzero" /><path
       id="path6765"
       class="fil1"
       d="m 3673.531,3594.5807 c 0,1 -1,3 -1,4 -1,0 -2,1 -4,2 -2,0 -4,1 -7,1 -3,1 -7,1 -11,1 -5,0 -8,0 -11,-1 -3,0 -6,-1 -7,-1 -2,-1 -4,-2 -4,-2 -1,-1 -1,-3 -1,-4 v -166 c 0,-1 0,-2 1,-3 0,-1 2,-2 4,-3 1,0 4,-1 7,-1 3,0 6,-1 11,-1 4,0 8,1 11,1 3,0 5,1 7,1 2,1 3,2 4,3 0,1 1,2 1,3 z m -175,-115 c 5,0 9,0 13,-1 4,0 9,0 14,0 14,0 25,1 35,4 10,3 18,7 24,12 7,5 11,12 14,19 3,8 5,16 5,25 0,10 -2,19 -5,27 -4,8 -9,15 -16,21 -7,6 -16,11 -27,14 -11,3 -24,4 -39,4 -4,0 -8,0 -12,0 -5,0 -9,0 -13,0 -4,0 -7,0 -11,-1 -4,0 -8,0 -11,-1 -6,0 -10,-2 -13,-5 -2,-3 -4,-8 -4,-14 v -155 c 0,-1 1,-2 2,-3 0,-1 1,-2 3,-3 2,0 4,-1 7,-1 3,0 6,-1 10,-1 9,0 15,1 19,2 4,2 5,3 5,6 z m 58,62 c 0,-4 -1,-8 -2,-12 -1,-3 -3,-6 -6,-8 -3,-3 -7,-5 -11,-6 -5,-1 -11,-2 -17,-2 -5,0 -8,0 -12,0 -3,1 -6,1 -10,1 v 54 c 4,0 7,1 11,1 3,0 7,0 12,0 12,0 21,-2 26,-7 6,-5 9,-12 9,-21 z"
       inkscape:connector-curvature="0"
       style="fill:#756c62;fill-rule:nonzero" /><path
       id="path6767"
       class="fil1"
       d="m 3969.531,3509.5807 c 0,15 -2,27 -6,39 -3,12 -9,22 -16,30 -8,9 -17,15 -28,20 -12,4 -25,7 -40,7 -14,0 -27,-2 -38,-6 -10,-4 -19,-10 -26,-18 -7,-8 -13,-18 -16,-29 -4,-12 -5,-25 -5,-39 0,-14 2,-27 5,-39 4,-12 10,-22 17,-30 7,-9 17,-15 28,-20 11,-4 24,-7 39,-7 15,0 28,2 38,6 11,4 20,10 27,18 7,8 12,18 16,29 3,11 5,25 5,39 z m -48,2 c 0,-8 0,-16 -1,-22 -2,-7 -4,-13 -7,-18 -3,-5 -7,-9 -12,-12 -5,-3 -12,-5 -19,-5 -7,0 -13,2 -18,4 -6,3 -10,7 -13,11 -3,5 -6,11 -8,18 -1,7 -2,15 -2,24 0,8 1,15 2,22 1,7 3,13 6,18 3,5 8,9 13,12 5,3 11,4 19,4 7,0 13,-1 18,-3 5,-3 9,-7 13,-12 3,-4 5,-10 7,-17 2,-7 2,-15 2,-24 z"
       inkscape:connector-curvature="0"
       style="fill:#756c62;fill-rule:nonzero" /><path
       id="path6769"
       class="fil1"
       d="m 4159.531,3594.5807 c 0,1 0,3 -1,4 -1,0 -2,1 -4,2 -1,0 -4,1 -7,1 -3,1 -6,1 -11,1 -4,0 -8,0 -11,-1 -3,0 -5,-1 -7,-1 -2,-1 -3,-2 -4,-2 0,-1 -1,-3 -1,-4 v -133 h -62 v 133 c 0,1 0,3 -1,4 -1,0 -2,1 -4,2 -1,0 -4,1 -7,1 -3,1 -6,1 -11,1 -4,0 -8,0 -11,-1 -3,0 -5,-1 -7,-1 -2,-1 -3,-2 -4,-2 0,-1 -1,-3 -1,-4 v -157 c 0,-5 1,-9 3,-12 2,-2 6,-3 10,-3 h 129 c 4,0 7,1 9,3 2,3 3,7 3,12 z"
       inkscape:connector-curvature="0"
       style="fill:#756c62;fill-rule:nonzero" /><path
       id="path6771"
       class="fil1"
       d="m 4370.531,3509.5807 c 0,14 -2,28 -5,40 -3,11 -8,22 -14,30 -6,8 -13,15 -22,19 -9,5 -19,7 -30,7 -5,0 -10,-1 -14,-2 -4,-1 -7,-2 -11,-4 -4,-2 -7,-4 -11,-7 -4,-3 -8,-6 -11,-10 v 78 c 0,1 -1,2 -2,3 0,1 -2,2 -3,3 -2,1 -4,1 -7,2 -3,0 -7,0 -11,0 -5,0 -9,0 -12,0 -3,-1 -5,-1 -7,-2 -1,-1 -3,-2 -3,-3 -1,-1 -2,-2 -2,-3 v -232 c 0,-1 1,-2 1,-3 1,-1 2,-2 4,-3 1,0 3,-1 6,-1 2,0 5,-1 9,-1 4,0 7,1 9,1 3,0 5,1 6,1 2,1 3,2 3,3 1,1 1,2 1,3 v 20 c 5,-5 10,-10 14,-14 5,-3 10,-7 14,-9 5,-3 10,-5 15,-6 5,-1 11,-2 16,-2 12,0 22,3 31,8 8,4 15,11 20,19 6,8 10,18 12,29 2,11 4,23 4,36 z m -48,3 c 0,-7 -1,-14 -2,-20 -1,-7 -3,-13 -5,-18 -3,-5 -6,-9 -10,-12 -4,-3 -9,-5 -15,-5 -3,0 -6,1 -9,2 -3,1 -6,2 -9,4 -4,3 -7,5 -10,9 -3,3 -7,7 -10,12 v 55 c 6,8 12,14 18,19 6,4 12,7 18,7 6,0 11,-2 15,-5 5,-3 8,-7 11,-12 2,-5 4,-11 6,-17 1,-6 2,-13 2,-19 z"
       inkscape:connector-curvature="0"
       style="fill:#756c62;fill-rule:nonzero" /><path
       id="path6773"
       class="fil1"
       d="m 4571.531,3509.5807 c 0,15 -1,27 -5,39 -4,12 -9,22 -17,30 -7,9 -16,15 -28,20 -11,4 -24,7 -39,7 -15,0 -27,-2 -38,-6 -11,-4 -20,-10 -27,-18 -7,-8 -12,-18 -15,-29 -4,-12 -6,-25 -6,-39 0,-14 2,-27 6,-39 4,-12 9,-22 17,-30 7,-9 17,-15 28,-20 11,-4 24,-7 39,-7 15,0 27,2 38,6 11,4 20,10 27,18 7,8 12,18 15,29 4,11 5,25 5,39 z m -47,2 c 0,-8 0,-16 -2,-22 -1,-7 -3,-13 -6,-18 -3,-5 -7,-9 -12,-12 -6,-3 -12,-5 -20,-5 -7,0 -13,2 -18,4 -5,3 -9,7 -12,11 -4,5 -6,11 -8,18 -2,7 -2,15 -2,24 0,8 0,15 2,22 1,7 3,13 6,18 3,5 7,9 12,12 6,3 12,4 20,4 7,0 13,-1 18,-3 5,-3 9,-7 12,-12 4,-4 6,-10 8,-17 1,-7 2,-15 2,-24 z"
       inkscape:connector-curvature="0"
       style="fill:#756c62;fill-rule:nonzero" /><path
       id="path6775"
       class="fil1"
       d="m 4731.531,3568.5807 c 0,3 0,6 0,8 0,2 0,4 -1,5 0,2 0,3 -1,4 0,1 -1,2 -3,4 -1,1 -4,3 -7,5 -4,2 -8,4 -12,5 -5,2 -10,3 -15,4 -5,1 -11,2 -16,2 -13,0 -24,-2 -34,-6 -9,-4 -18,-10 -24,-18 -7,-8 -12,-17 -15,-28 -3,-12 -5,-24 -5,-39 0,-16 2,-31 6,-43 4,-12 10,-22 17,-30 7,-8 16,-14 26,-18 10,-4 21,-6 33,-6 5,0 10,1 14,2 5,1 9,2 14,3 4,2 7,3 11,5 3,2 5,4 6,5 2,1 3,3 3,4 1,1 1,2 2,3 0,2 0,4 0,6 0,2 1,5 1,8 0,7 -1,12 -2,15 -2,3 -3,4 -5,4 -2,0 -4,-1 -7,-2 -2,-2 -5,-4 -8,-6 -3,-2 -7,-4 -11,-6 -5,-2 -10,-2 -16,-2 -12,0 -21,4 -27,14 -7,9 -10,23 -10,41 0,9 1,17 2,24 2,6 4,12 8,17 3,4 7,8 11,10 5,2 10,3 17,3 6,0 11,0 16,-2 5,-2 9,-5 12,-7 3,-2 6,-4 9,-6 2,-2 4,-3 5,-3 2,0 2,0 3,1 1,0 1,1 2,3 0,2 1,4 1,7 0,2 0,6 0,10 z"
       inkscape:connector-curvature="0"
       style="fill:#756c62;fill-rule:nonzero" /><path
       id="path6777"
       class="fil1"
       d="m 4904.531,3595.5807 c 0,2 -1,3 -2,4 -1,1 -3,2 -6,2 -2,1 -6,1 -11,1 -6,0 -10,0 -12,-1 -3,0 -5,-1 -6,-2 -1,-1 -1,-2 -1,-4 v -13 c -7,7 -15,13 -23,17 -9,4 -18,6 -29,6 -9,0 -17,-1 -24,-4 -7,-2 -13,-5 -19,-10 -5,-4 -9,-10 -12,-17 -3,-7 -4,-14 -4,-23 0,-10 2,-18 5,-25 4,-8 10,-14 17,-18 7,-5 16,-8 27,-11 11,-2 24,-3 39,-3 h 16 v -10 c 0,-5 -1,-10 -2,-14 -1,-4 -3,-7 -5,-9 -3,-3 -6,-5 -10,-6 -4,-1 -9,-2 -14,-2 -8,0 -15,1 -21,2 -6,2 -11,4 -16,6 -5,2 -8,4 -12,6 -3,2 -5,3 -7,3 -1,0 -3,-1 -4,-2 -1,0 -2,-2 -2,-3 -1,-2 -1,-4 -2,-6 0,-3 0,-5 0,-8 0,-4 0,-7 1,-9 0,-2 1,-4 3,-6 2,-2 5,-4 9,-6 4,-2 9,-4 15,-6 6,-2 12,-4 19,-5 7,-1 14,-2 21,-2 13,0 23,2 33,4 9,3 16,7 22,12 6,5 10,12 13,20 3,9 4,19 4,30 z m -45,-72 h -18 c -7,0 -14,1 -19,2 -5,1 -10,3 -13,5 -3,2 -6,5 -7,8 -2,3 -2,7 -2,11 0,7 2,13 6,17 4,4 10,6 18,6 7,0 13,-2 18,-5 5,-4 11,-9 17,-15 z"
       inkscape:connector-curvature="0"
       style="fill:#756c62;fill-rule:nonzero" /><path
       id="path6779"
       class="fil1"
       d="m 2063.531,3886.5807 c 0,15 -1,28 -4,40 -3,12 -8,22 -14,30 -6,9 -13,15 -22,19 -9,5 -19,7 -31,7 -5,0 -9,0 -13,-1 -4,-1 -8,-3 -11,-5 -4,-1 -8,-4 -11,-7 -4,-3 -8,-6 -12,-10 v 78 c 0,2 0,3 -1,4 -1,1 -2,2 -4,2 -1,1 -4,2 -7,2 -3,0 -6,0 -11,0 -4,0 -8,0 -11,0 -3,0 -5,-1 -7,-2 -2,0 -3,-1 -4,-2 0,-1 -1,-2 -1,-4 v -232 c 0,-1 0,-2 1,-3 1,-1 2,-2 3,-2 2,-1 4,-1 6,-2 3,0 6,0 10,0 3,0 6,0 9,0 2,1 5,1 6,2 2,0 3,1 3,2 1,1 1,2 1,3 v 20 c 5,-5 10,-9 14,-13 5,-4 9,-7 14,-10 5,-2 10,-4 15,-5 5,-2 10,-2 16,-2 12,0 22,2 31,7 8,5 15,11 20,20 5,8 9,18 12,29 2,11 3,22 3,35 z m -48,3 c 0,-7 0,-14 -1,-20 -1,-7 -3,-12 -6,-17 -2,-6 -5,-10 -9,-13 -4,-3 -10,-4 -16,-4 -3,0 -6,0 -9,1 -3,1 -6,3 -9,5 -3,2 -6,5 -9,8 -4,3 -7,7 -11,12 v 55 c 7,8 13,15 19,19 6,5 12,7 18,7 6,0 11,-1 15,-5 4,-3 8,-7 10,-12 3,-5 5,-10 6,-17 2,-6 2,-12 2,-19 z"
       inkscape:connector-curvature="0"
       style="fill:#756c62;fill-rule:nonzero" /><path
       id="path6781"
       class="fil1"
       d="m 2191.531,3978.5807 -20,59 c -1,3 -4,5 -9,6 -5,2 -12,2 -21,2 -5,0 -9,0 -12,0 -3,-1 -5,-1 -7,-2 -1,-1 -2,-3 -2,-4 0,-2 0,-3 1,-5 l 22,-56 c -2,-1 -3,-2 -4,-3 -2,-2 -3,-4 -3,-5 l -56,-153 c -2,-5 -3,-8 -3,-10 0,-3 1,-4 3,-6 1,-1 3,-2 7,-2 3,-1 8,-1 14,-1 5,0 9,0 12,0 3,0 5,1 7,1 2,1 3,2 4,4 1,1 2,4 3,7 l 38,111 h 1 l 34,-114 c 1,-3 2,-5 3,-6 1,-1 3,-2 6,-2 3,-1 7,-1 14,-1 5,0 10,0 13,1 4,0 6,1 8,2 2,2 2,4 2,6 0,2 0,5 -1,8 z"
       inkscape:connector-curvature="0"
       style="fill:#756c62;fill-rule:nonzero" /><path
       id="path6783"
       class="fil1"
       d="m 2427.531,3973.5807 c 0,2 0,2 -1,3 -1,1 -2,1 -3,2 -2,0 -4,0 -7,1 -3,0 -7,0 -12,0 -5,0 -9,0 -12,0 -4,-1 -6,-1 -8,-1 -2,-1 -3,-1 -4,-2 -1,-1 -2,-2 -2,-3 l -16,-40 c -1,-6 -3,-10 -6,-14 -2,-3 -4,-6 -7,-8 -2,-2 -5,-4 -8,-5 -4,-1 -7,-1 -12,-1 h -9 v 68 c 0,0 0,1 -1,2 -1,1 -3,2 -4,2 -2,1 -5,1 -7,2 -3,0 -7,0 -11,0 -4,0 -8,0 -11,0 -3,-1 -5,-1 -7,-2 -2,0 -3,-1 -4,-2 -1,-1 -1,-2 -1,-2 v -169 c 0,-1 0,-2 1,-2 1,-1 2,-2 4,-2 2,-1 4,-1 7,-2 3,0 7,0 11,0 4,0 8,0 11,0 2,1 5,1 7,2 1,0 3,1 4,2 1,0 1,1 1,2 v 65 h 9 c 4,0 8,-1 11,-2 3,-1 5,-2 8,-4 2,-2 5,-5 7,-9 2,-4 4,-8 6,-13 l 14,-36 c 0,-1 1,-2 1,-3 1,-1 3,-2 4,-3 2,0 5,-1 8,-1 3,0 7,0 12,0 5,0 8,0 11,0 3,0 5,1 7,1 2,1 3,1 3,2 1,1 1,2 1,3 0,1 0,2 0,4 -1,2 -2,4 -3,7 l -13,32 c -3,6 -5,12 -8,16 -3,4 -6,8 -9,11 -3,3 -6,5 -9,7 -3,2 -6,3 -9,4 v 0 c 4,2 8,4 11,5 3,2 6,5 9,8 3,3 6,6 9,11 3,4 5,10 8,16 l 16,37 c 1,2 1,3 2,4 0,2 0,3 1,3 0,1 0,2 0,3 0,0 0,1 0,1 z"
       inkscape:connector-curvature="0"
       style="fill:#756c62;fill-rule:nonzero" /><path
       id="path6785"
       class="fil1"
       d="m 2618.531,3887.5807 c 0,14 -2,27 -6,39 -4,11 -9,21 -17,30 -7,8 -16,15 -27,19 -12,5 -25,7 -40,7 -14,0 -27,-2 -38,-6 -10,-4 -19,-10 -26,-18 -8,-8 -13,-17 -16,-29 -4,-11 -5,-24 -5,-39 0,-14 2,-27 5,-39 4,-11 10,-22 17,-30 7,-8 17,-15 28,-19 11,-5 24,-7 39,-7 15,0 28,2 38,6 11,4 20,10 27,18 7,7 12,17 16,28 3,12 5,25 5,40 z m -48,2 c 0,-9 0,-16 -1,-23 -2,-7 -4,-13 -7,-18 -3,-5 -7,-9 -12,-12 -5,-3 -12,-4 -19,-4 -7,0 -13,1 -19,4 -5,2 -9,6 -12,11 -3,5 -6,11 -8,17 -1,7 -2,15 -2,24 0,8 1,16 2,23 1,7 3,13 6,18 3,5 8,9 13,12 5,2 11,4 19,4 7,0 13,-2 18,-4 5,-3 9,-6 13,-11 3,-5 5,-11 7,-18 2,-7 2,-15 2,-23 z"
       inkscape:connector-curvature="0"
       style="fill:#756c62;fill-rule:nonzero" /><path
       id="path6787"
       class="fil1"
       d="m 2804.531,3923.5807 c 0,9 -2,18 -5,25 -4,7 -9,13 -16,18 -7,5 -16,8 -26,11 -11,2 -23,4 -38,4 -5,0 -9,0 -13,0 -4,-1 -8,-1 -12,-1 -4,0 -8,0 -12,0 -3,-1 -7,-1 -12,-1 -6,-1 -10,-3 -12,-6 -2,-3 -4,-7 -4,-13 v -143 c 0,-6 1,-10 4,-13 2,-3 6,-5 10,-6 3,0 7,0 11,0 4,-1 8,-1 13,-1 4,0 9,0 14,-1 5,0 10,0 15,0 13,0 25,1 34,3 9,2 17,5 23,9 7,3 11,8 14,14 3,5 5,11 5,19 0,10 -3,18 -8,25 -6,7 -13,11 -23,14 12,2 22,7 28,14 7,8 10,17 10,29 z m -50,-74 c 0,-3 -1,-6 -2,-9 -1,-2 -3,-4 -6,-6 -2,-2 -6,-3 -10,-4 -4,-1 -9,-2 -15,-2 -5,0 -9,0 -13,1 -4,0 -8,0 -11,1 v 41 h 25 c 10,0 18,-1 23,-5 6,-4 9,-9 9,-17 z m 4,74 c 0,-4 0,-8 -2,-11 -1,-3 -3,-5 -6,-7 -3,-2 -7,-4 -12,-5 -4,-1 -10,-1 -17,-1 h -24 v 48 c 2,0 4,0 6,0 3,1 5,1 7,1 2,0 4,0 6,0 3,0 4,0 6,0 7,0 12,0 17,-2 4,-1 8,-2 11,-5 3,-2 5,-5 6,-8 2,-3 2,-7 2,-10 z"
       inkscape:connector-curvature="0"
       style="fill:#756c62;fill-rule:nonzero" /><path
       id="path6789"
       class="fil1"
       d="m 3004.531,3887.5807 c 0,14 -1,27 -5,39 -4,11 -9,21 -17,30 -7,8 -16,15 -28,19 -11,5 -24,7 -39,7 -15,0 -27,-2 -38,-6 -11,-4 -20,-10 -27,-18 -7,-8 -12,-17 -15,-29 -4,-11 -5,-24 -5,-39 0,-14 1,-27 5,-39 4,-11 9,-22 17,-30 7,-8 17,-15 28,-19 11,-5 24,-7 39,-7 15,0 27,2 38,6 11,4 20,10 27,18 7,7 12,17 15,28 4,12 5,25 5,40 z m -47,2 c 0,-9 0,-16 -2,-23 -1,-7 -3,-13 -6,-18 -3,-5 -7,-9 -12,-12 -6,-3 -12,-4 -20,-4 -6,0 -12,1 -18,4 -5,2 -9,6 -12,11 -4,5 -6,11 -8,17 -1,7 -2,15 -2,24 0,8 0,16 2,23 1,7 3,13 6,18 3,5 7,9 13,12 5,2 11,4 19,4 7,0 13,-2 18,-4 5,-3 9,-6 13,-11 3,-5 5,-11 7,-18 1,-7 2,-15 2,-23 z"
       inkscape:connector-curvature="0"
       style="fill:#756c62;fill-rule:nonzero" /><path
       id="path6791"
       class="fil1"
       d="m 3053.531,4032.5807 c 0,1 -1,2 -1,3 -1,1 -2,2 -3,2 -2,1 -4,1 -7,2 -2,0 -5,0 -9,0 -4,0 -7,0 -10,0 -2,-1 -4,-1 -6,-2 -1,0 -2,-1 -3,-2 -1,-1 -1,-2 -1,-3 v -83 c 0,-4 1,-6 2,-8 1,-1 3,-2 7,-2 h 9 c 4,-5 7,-11 11,-17 3,-7 6,-15 9,-25 3,-10 6,-21 9,-35 2,-13 4,-30 7,-49 0,-2 0,-4 1,-6 0,-2 1,-3 2,-4 1,-2 2,-3 4,-3 1,-1 3,-1 5,-1 h 101 c 5,0 8,1 10,4 2,2 3,6 3,11 v 125 h 19 c 3,0 6,1 7,2 1,2 2,4 2,8 v 83 c 0,1 0,2 -1,3 0,1 -2,2 -3,2 -2,1 -4,1 -6,2 -3,0 -6,0 -10,0 -4,0 -7,0 -10,0 -2,-1 -4,-1 -6,-2 -1,0 -2,-1 -3,-2 -1,-1 -1,-2 -1,-3 v -54 h -128 z m 94,-196 h -39 c -2,16 -4,29 -7,41 -2,11 -5,21 -8,29 -2,8 -5,14 -8,20 -3,5 -6,9 -9,13 h 71 z"
       inkscape:connector-curvature="0"
       style="fill:#756c62;fill-rule:nonzero" /><path
       id="path6793"
       class="fil1"
       d="m 3412.531,3972.5807 c 0,1 0,3 -1,3 0,1 -1,2 -3,2 -2,1 -4,1 -7,2 -3,0 -6,0 -11,0 -4,0 -8,0 -11,0 -3,-1 -5,-1 -7,-2 -2,0 -4,-1 -4,-2 -1,0 -2,-2 -2,-3 v -74 c 0,-5 1,-11 1,-16 0,-6 1,-11 1,-17 -3,6 -6,11 -9,16 -4,5 -7,10 -11,15 l -55,76 c -1,1 -2,3 -3,3 -1,1 -2,2 -4,3 -1,0 -3,1 -5,1 -3,0 -6,0 -9,0 -5,0 -8,0 -11,0 -3,-1 -5,-1 -7,-2 -1,0 -2,-1 -3,-2 -1,-1 -1,-2 -1,-3 v -167 c 0,-1 0,-2 1,-3 1,-1 2,-2 4,-2 1,-1 4,-1 6,-2 3,0 7,0 11,0 9,0 15,0 19,2 3,1 5,3 5,5 v 74 c 0,5 0,10 -1,16 0,5 0,11 -1,16 3,-5 6,-10 9,-15 3,-5 6,-10 10,-14 l 55,-77 c 1,-1 2,-2 3,-3 1,-1 3,-2 4,-3 2,0 4,-1 7,-1 2,0 5,0 9,0 4,0 8,0 11,0 2,0 5,1 6,2 2,0 3,1 4,2 0,1 0,2 0,3 z"
       inkscape:connector-curvature="0"
       style="fill:#756c62;fill-rule:nonzero" /><path
       id="path6795"
       class="fil1"
       d="m 3579.531,3820.5807 c 0,4 0,7 0,10 0,2 -1,5 -1,6 -1,2 -2,3 -3,4 -1,0 -2,1 -3,1 h -41 v 131 c 0,1 0,2 -1,3 -1,1 -2,2 -4,2 -1,1 -4,1 -7,2 -3,0 -6,0 -11,0 -4,0 -8,0 -11,0 -3,-1 -5,-1 -7,-2 -2,0 -3,-1 -4,-2 0,-1 -1,-2 -1,-3 v -131 h -41 c -1,0 -2,-1 -3,-1 -1,-1 -1,-2 -2,-4 -1,-2 -1,-4 -1,-7 -1,-2 -1,-6 -1,-10 0,-4 0,-7 1,-9 0,-3 0,-5 1,-7 1,-1 1,-2 2,-3 1,-1 2,-1 3,-1 h 128 c 1,0 2,0 3,1 1,1 2,2 3,3 0,2 1,4 1,7 0,2 0,6 0,10 z"
       inkscape:connector-curvature="0"
       style="fill:#756c62;fill-rule:nonzero" /><path
       id="path6797"
       class="fil1"
       d="m 3753.531,3884.5807 c 0,5 -2,10 -4,12 -3,3 -6,4 -10,4 h -100 c 0,8 1,14 3,20 1,5 4,10 7,14 4,4 9,7 14,9 6,3 13,4 21,4 8,0 15,-1 21,-2 6,-1 11,-3 16,-4 4,-2 8,-3 11,-4 3,-1 5,-2 7,-2 1,0 2,0 3,1 0,0 1,1 2,2 0,1 0,3 1,5 0,2 0,5 0,8 0,2 0,5 0,7 0,1 -1,3 -1,4 0,2 0,3 -1,4 0,1 -1,2 -2,3 -1,0 -3,2 -6,3 -4,2 -8,3 -14,5 -5,1 -12,2 -19,3 -7,2 -14,2 -22,2 -15,0 -28,-2 -39,-5 -10,-4 -20,-10 -27,-17 -7,-8 -13,-18 -16,-29 -4,-12 -6,-25 -6,-41 0,-14 2,-28 6,-40 4,-11 9,-22 17,-30 7,-8 15,-14 26,-19 10,-4 22,-6 35,-6 13,0 25,2 35,6 9,4 17,10 24,17 6,7 10,16 13,26 3,10 5,21 5,32 z m -45,-14 c 1,-13 -2,-23 -8,-31 -5,-7 -14,-11 -25,-11 -6,0 -11,1 -16,3 -4,3 -8,6 -11,9 -2,4 -5,9 -6,14 -2,5 -3,10 -3,16 z"
       inkscape:connector-curvature="0"
       style="fill:#756c62;fill-rule:nonzero" /><path
       id="path6799"
       class="fil1"
       d="m 3936.531,3972.5807 c 0,1 -1,2 -1,3 -1,1 -2,2 -4,2 -2,1 -4,1 -7,2 -3,0 -7,0 -11,0 -5,0 -9,0 -12,0 -3,-1 -5,-1 -7,-2 -1,0 -3,-1 -3,-2 -1,-1 -1,-2 -1,-3 v -135 h -33 c -2,20 -5,37 -8,51 -2,15 -6,28 -10,39 -3,10 -8,19 -12,26 -5,7 -10,13 -15,17 -6,4 -12,7 -18,9 -6,1 -13,2 -20,2 -2,0 -3,0 -5,0 -1,-1 -2,-2 -2,-3 -1,-2 -1,-4 -1,-6 -1,-3 -1,-7 -1,-11 0,-5 0,-9 0,-12 1,-2 1,-5 2,-6 0,-2 1,-3 2,-3 0,-1 1,-1 3,-1 3,0 6,-1 10,-2 3,-2 6,-4 8,-8 3,-3 6,-8 8,-14 3,-6 5,-14 7,-23 2,-9 4,-20 6,-33 2,-13 3,-28 5,-45 0,-5 1,-8 3,-11 2,-2 5,-4 10,-4 h 94 c 4,0 8,2 10,4 2,3 3,6 3,11 z"
       inkscape:connector-curvature="0"
       style="fill:#756c62;fill-rule:nonzero" /><path
       id="path6801"
       class="fil1"
       d="m 4132.531,3884.5807 c 0,5 -1,10 -3,12 -3,3 -6,4 -11,4 h -99 c 0,8 1,14 2,20 2,5 5,10 8,14 4,4 8,7 14,9 6,3 13,4 20,4 8,0 16,-1 22,-2 6,-1 11,-3 15,-4 5,-2 9,-3 12,-4 2,-1 5,-2 7,-2 1,0 2,0 2,1 1,0 2,1 2,2 1,1 1,3 1,5 0,2 1,5 1,8 0,2 -1,5 -1,7 0,1 0,3 0,4 0,2 -1,3 -1,4 -1,1 -1,2 -2,3 -1,0 -3,2 -7,3 -3,2 -8,3 -13,5 -6,1 -12,2 -19,3 -7,2 -15,2 -23,2 -14,0 -27,-2 -38,-5 -11,-4 -20,-10 -27,-17 -8,-8 -13,-18 -17,-29 -3,-12 -5,-25 -5,-41 0,-14 2,-28 6,-40 3,-11 9,-22 16,-30 7,-8 16,-14 26,-19 11,-4 22,-6 35,-6 14,0 26,2 35,6 10,4 18,10 24,17 6,7 11,16 14,26 3,10 4,21 4,32 z m -44,-14 c 0,-13 -2,-23 -8,-31 -6,-7 -14,-11 -26,-11 -6,0 -11,1 -15,3 -4,3 -8,6 -11,9 -3,4 -5,9 -6,14 -2,5 -3,10 -3,16 z"
       inkscape:connector-curvature="0"
       style="fill:#756c62;fill-rule:nonzero" /><path
       id="path6803"
       class="fil1"
       d="m 4333.531,3972.5807 c 0,1 0,3 -1,3 -1,1 -2,2 -4,2 -1,1 -4,1 -6,2 -3,0 -7,0 -11,0 -5,0 -9,0 -12,0 -3,-1 -5,-1 -7,-2 -2,0 -3,-1 -4,-2 -1,0 -1,-2 -1,-3 v -74 c 0,-5 0,-11 0,-16 1,-6 1,-11 2,-17 -3,6 -6,11 -10,16 -3,5 -7,10 -10,15 l -55,76 c -1,1 -2,3 -3,3 -1,1 -3,2 -4,3 -2,0 -4,1 -6,1 -2,0 -5,0 -9,0 -4,0 -8,0 -11,0 -2,-1 -4,-1 -6,-2 -2,0 -3,-1 -4,-2 0,-1 -1,-2 -1,-3 v -167 c 0,-1 1,-2 1,-3 1,-1 2,-2 4,-2 2,-1 4,-1 7,-2 3,0 7,0 11,0 9,0 15,0 18,2 4,1 6,3 6,5 v 74 c 0,5 -1,10 -1,16 0,5 -1,11 -1,16 2,-5 5,-10 8,-15 3,-5 7,-10 10,-14 l 56,-77 c 1,-1 2,-2 3,-3 1,-1 2,-2 4,-3 2,0 4,-1 6,-1 2,0 6,0 9,0 5,0 8,0 11,0 3,0 5,1 7,2 1,0 2,1 3,2 1,1 1,2 1,3 z m -13,-246 c 0,7 -2,14 -4,20 -2,7 -6,13 -11,18 -5,4 -12,8 -21,11 -8,3 -19,4 -31,4 -12,0 -22,-1 -31,-3 -8,-3 -15,-7 -20,-11 -5,-5 -9,-11 -12,-17 -2,-7 -3,-14 -3,-22 0,-2 0,-4 1,-5 0,-1 1,-2 3,-3 2,-1 4,-1 6,-1 3,-1 7,-1 11,-1 4,0 7,0 9,1 3,0 5,1 6,1 2,1 3,2 3,3 1,2 1,3 1,5 0,3 1,6 2,9 1,3 3,5 5,7 2,2 5,4 8,5 4,1 7,2 11,2 4,0 8,-1 11,-2 3,-1 6,-2 8,-5 2,-2 4,-4 5,-7 2,-3 2,-6 2,-10 0,-1 0,-3 1,-4 0,-1 1,-2 3,-3 1,0 3,-1 5,-1 3,-1 6,-1 9,-1 5,0 8,0 11,1 3,0 5,0 7,1 2,1 3,2 4,3 0,1 1,3 1,5 z"
       inkscape:connector-curvature="0"
       style="fill:#756c62;fill-rule:nonzero" /><path
       id="path6805"
       class="fil1"
       d="m 2041.531,4346.5807 c 1,2 1,4 1,5 0,1 -1,2 -2,3 -2,1 -5,2 -8,2 -4,0 -8,0 -14,0 -6,0 -10,0 -13,0 -4,0 -6,0 -8,-1 -2,-1 -4,-1 -4,-2 -1,-1 -2,-2 -3,-3 l -30,-59 -30,59 c 0,1 -1,2 -2,3 -1,1 -2,1 -4,2 -2,1 -4,1 -7,1 -4,0 -8,0 -13,0 -5,0 -10,0 -13,0 -3,0 -5,-1 -7,-2 -1,-1 -2,-2 -2,-3 0,-1 0,-3 2,-5 l 45,-82 -42,-77 c -1,-2 -2,-4 -2,-6 0,-1 1,-3 3,-3 1,-1 4,-2 7,-2 4,-1 9,-1 15,-1 5,0 9,0 12,0 4,1 6,1 8,1 2,1 3,1 4,2 1,1 2,2 2,3 l 29,56 29,-56 c 0,-1 1,-2 2,-2 0,-1 2,-2 3,-2 2,-1 4,-1 7,-1 2,-1 6,-1 11,-1 5,0 10,0 13,1 3,0 5,0 7,1 1,1 2,2 2,4 0,1 -1,3 -2,6 l -41,75 z"
       inkscape:connector-curvature="0"
       style="fill:#756c62;fill-rule:nonzero" /><path
       id="path6807"
       class="fil1"
       d="m 2230.531,4264.5807 c 0,14 -2,27 -6,39 -3,12 -9,22 -16,30 -8,8 -17,15 -28,20 -12,4 -25,6 -40,6 -14,0 -27,-2 -38,-6 -10,-4 -19,-10 -26,-18 -7,-7 -13,-17 -16,-28 -4,-12 -5,-25 -5,-40 0,-14 2,-27 5,-38 4,-12 10,-22 17,-31 8,-8 17,-14 28,-19 11,-5 24,-7 39,-7 15,0 28,2 38,6 11,4 20,10 27,18 7,8 12,17 16,29 3,11 5,24 5,39 z m -47,2 c 0,-8 -1,-16 -2,-23 -2,-7 -4,-13 -7,-18 -3,-5 -7,-9 -12,-12 -5,-2 -12,-4 -19,-4 -7,0 -13,1 -18,4 -6,2 -10,6 -13,11 -3,5 -6,11 -7,18 -2,7 -3,15 -3,23 0,9 1,16 2,23 1,7 4,13 7,18 3,5 7,9 12,12 5,3 11,4 19,4 7,0 13,-1 18,-4 5,-2 10,-6 13,-11 3,-5 6,-11 7,-17 2,-7 3,-15 3,-24 z"
       inkscape:connector-curvature="0"
       style="fill:#756c62;fill-rule:nonzero" /><path
       id="path6809"
       class="fil1"
       d="m 2391.531,4303.5807 c 0,9 -2,17 -6,24 -4,7 -9,13 -16,18 -7,5 -15,8 -25,11 -9,2 -20,3 -32,3 -6,0 -12,0 -18,-1 -6,-1 -11,-2 -16,-3 -5,-2 -9,-3 -12,-5 -3,-1 -5,-3 -7,-4 -1,-1 -2,-2 -3,-4 -1,-1 -1,-2 -1,-3 -1,-2 -1,-4 -1,-6 0,-2 0,-5 0,-8 0,-3 0,-5 0,-7 0,-1 1,-3 1,-4 0,-1 1,-2 2,-2 0,-1 1,-1 2,-1 1,0 3,1 6,2 2,2 6,4 9,5 4,2 9,4 14,5 6,2 13,3 21,3 5,0 10,-1 14,-2 4,-1 7,-2 10,-5 3,-2 5,-4 6,-7 2,-3 2,-6 2,-10 0,-4 0,-7 -2,-9 -1,-3 -3,-6 -6,-7 -3,-2 -8,-4 -13,-5 -5,-1 -11,-1 -18,-1 h -18 c -1,0 -3,-1 -4,-1 -1,-1 -1,-2 -2,-3 -1,-1 -1,-3 -1,-5 0,-2 0,-5 0,-8 0,-2 0,-5 0,-7 0,-2 1,-3 1,-4 1,-2 1,-2 2,-3 1,0 2,-1 4,-1 h 17 c 6,0 12,0 17,-1 4,-1 8,-3 11,-4 3,-2 5,-5 7,-8 1,-2 2,-6 2,-9 0,-4 -1,-6 -2,-9 -1,-3 -3,-5 -6,-6 -2,-2 -5,-3 -9,-4 -3,-1 -7,-1 -11,-1 -7,0 -13,0 -19,2 -5,2 -10,3 -14,5 -4,2 -7,4 -10,5 -2,2 -4,3 -6,3 0,0 -1,-1 -2,-1 0,0 -1,-1 -1,-2 -1,-1 -1,-2 -2,-4 0,-2 0,-5 0,-8 0,-5 0,-9 1,-12 1,-2 2,-5 3,-6 2,-2 4,-3 8,-5 4,-2 9,-4 14,-6 5,-1 11,-2 17,-3 6,-1 12,-2 19,-2 10,0 19,1 27,3 9,2 16,5 21,9 6,4 11,9 14,15 3,6 4,13 4,21 0,5 0,9 -2,13 -1,5 -3,9 -6,12 -3,4 -6,7 -10,10 -4,2 -8,4 -13,6 v 0 c 5,1 10,2 14,5 5,2 9,5 13,9 3,3 6,8 8,12 2,5 3,10 3,16 z"
       inkscape:connector-curvature="0"
       style="fill:#756c62;fill-rule:nonzero" /><path
       id="path6811"
       class="fil1"
       d="m 2566.531,4349.5807 c 0,1 0,2 0,3 -1,1 -2,2 -4,3 -1,0 -4,1 -7,1 -3,0 -7,0 -11,0 -5,0 -9,0 -12,0 -2,0 -5,-1 -7,-1 -1,-1 -3,-2 -3,-3 -1,-1 -1,-2 -1,-3 v -63 h -12 c -6,0 -10,1 -14,2 -3,1 -6,3 -9,5 -2,3 -5,6 -7,10 -2,4 -5,10 -7,16 l -11,28 c -1,2 -1,4 -3,5 -1,1 -2,2 -4,3 -2,0 -5,1 -8,1 -3,0 -7,0 -12,0 -4,0 -8,0 -11,0 -3,0 -5,0 -7,-1 -2,0 -3,0 -4,-1 -1,-1 -1,-2 -1,-3 0,-2 0,-4 1,-6 1,-3 3,-7 6,-13 l 11,-26 c 3,-8 7,-14 12,-19 5,-6 10,-10 16,-12 -11,-3 -20,-8 -27,-15 -7,-8 -10,-17 -10,-29 0,-9 2,-17 5,-24 4,-7 9,-13 16,-18 7,-5 15,-8 25,-11 11,-3 23,-4 36,-4 4,0 8,0 13,0 4,0 9,1 13,1 5,0 10,0 14,1 5,0 9,0 13,1 4,0 7,1 9,4 1,2 2,6 2,10 z m -45,-141 c -4,-1 -7,-1 -11,-2 -3,0 -7,0 -10,0 -6,0 -12,1 -16,2 -4,1 -8,3 -11,5 -2,2 -4,5 -5,8 -1,3 -2,7 -2,10 0,4 1,8 2,11 1,3 3,5 6,7 3,2 6,4 10,5 4,1 10,2 17,2 h 20 z"
       inkscape:connector-curvature="0"
       style="fill:#756c62;fill-rule:nonzero" /><path
       id="path6813"
       class="fil1"
       d="m 2776.531,4350.5807 c 0,1 -1,2 -1,3 -1,1 -2,1 -4,2 -2,0 -4,1 -7,1 -3,0 -6,0 -11,0 -4,0 -8,0 -11,0 -3,0 -5,-1 -7,-1 -2,-1 -4,-1 -4,-2 -1,-1 -2,-2 -2,-3 v -75 c 0,-5 1,-10 1,-16 0,-5 1,-11 1,-16 -3,5 -6,10 -9,15 -4,5 -7,10 -11,15 l -55,76 c -1,2 -2,3 -3,4 -1,1 -2,1 -4,2 -1,1 -3,1 -5,1 -3,0 -6,0 -9,0 -5,0 -8,0 -11,0 -3,0 -5,-1 -7,-1 -1,-1 -2,-1 -3,-2 -1,-1 -1,-2 -1,-4 v -167 c 0,-1 0,-2 1,-3 1,-1 2,-1 4,-2 1,-1 4,-1 7,-1 2,-1 6,-1 10,-1 9,0 15,1 19,2 3,1 5,3 5,5 v 74 c 0,5 0,11 -1,16 0,6 0,11 -1,16 3,-5 6,-10 9,-15 3,-5 6,-9 10,-14 l 55,-77 c 1,-1 2,-2 3,-3 2,-1 3,-2 5,-2 1,-1 3,-1 6,-1 2,-1 5,-1 9,-1 4,0 8,0 11,1 2,0 5,0 6,1 2,0 3,1 4,2 0,1 1,2 1,4 z m -14,-247 c 0,7 -1,14 -3,21 -3,6 -6,12 -12,17 -5,5 -12,9 -20,12 -9,2 -19,4 -31,4 -12,0 -23,-2 -31,-4 -8,-3 -15,-6 -21,-11 -5,-5 -9,-10 -11,-17 -3,-7 -4,-14 -4,-22 0,-2 0,-3 1,-5 1,-1 2,-2 3,-2 2,-1 4,-2 7,-2 3,0 6,-1 10,-1 4,0 7,1 10,1 3,0 5,1 6,2 1,1 2,2 3,3 0,1 1,2 1,4 0,3 0,6 1,9 1,3 3,6 5,8 3,2 6,3 9,5 3,1 7,1 11,1 4,0 7,0 10,-1 4,-1 6,-3 9,-5 2,-2 4,-5 5,-8 1,-3 2,-6 2,-9 0,-2 0,-3 0,-4 1,-1 2,-2 3,-3 2,-1 3,-2 6,-2 2,0 5,-1 9,-1 4,0 8,1 11,1 3,0 5,1 7,2 1,0 2,1 3,2 1,2 1,3 1,5 z"
       inkscape:connector-curvature="0"
       style="fill:#756c62;fill-rule:nonzero" /><path
       id="path6815"
       class="fil1"
       d="m 2945.531,4322.5807 c 0,4 0,6 0,9 -1,2 -1,4 -1,5 -1,2 -1,3 -1,4 -1,1 -2,2 -3,3 -2,2 -4,4 -8,6 -3,2 -7,3 -12,5 -4,2 -9,3 -14,4 -6,1 -11,1 -17,1 -12,0 -24,-1 -33,-5 -10,-4 -18,-10 -25,-18 -6,-8 -11,-17 -15,-29 -3,-11 -5,-24 -5,-38 0,-17 2,-31 7,-43 4,-12 9,-22 17,-30 7,-8 16,-14 26,-18 10,-4 21,-6 33,-6 4,0 9,1 14,1 5,1 9,2 13,4 4,1 8,3 11,5 3,2 6,3 7,5 1,1 2,2 3,3 0,1 1,2 1,4 0,1 1,3 1,5 0,3 0,5 0,8 0,8 -1,13 -2,16 -1,3 -3,4 -4,4 -3,0 -5,-1 -7,-3 -2,-1 -5,-3 -8,-5 -3,-2 -7,-4 -12,-6 -4,-2 -9,-3 -15,-3 -12,0 -22,5 -28,14 -6,10 -9,23 -9,42 0,9 0,16 2,23 2,7 4,13 7,17 3,5 7,8 12,11 4,2 10,3 16,3 6,0 12,-1 17,-3 4,-2 8,-4 12,-6 3,-3 6,-5 8,-7 2,-2 4,-3 6,-3 1,0 2,1 3,1 0,1 1,2 1,4 1,2 1,4 1,6 1,3 1,6 1,10 z"
       inkscape:connector-curvature="0"
       style="fill:#756c62;fill-rule:nonzero" /><path
       id="path6817"
       class="fil1"
       d="m 3099.531,4197.5807 c 0,4 0,7 0,10 0,3 -1,5 -1,7 -1,1 -2,2 -3,3 -1,1 -2,1 -3,1 h -41 v 131 c 0,1 0,2 -1,3 -1,1 -2,2 -4,3 -1,0 -4,1 -7,1 -3,0 -7,0 -11,0 -4,0 -8,0 -11,0 -3,0 -5,-1 -7,-1 -2,-1 -3,-2 -4,-3 0,-1 -1,-2 -1,-3 v -131 h -41 c -1,0 -2,0 -3,-1 -1,-1 -2,-2 -2,-4 -1,-1 -1,-3 -2,-6 0,-3 0,-7 0,-11 0,-3 0,-6 1,-9 0,-3 0,-5 1,-6 1,-2 1,-3 2,-4 1,0 2,-1 3,-1 h 128 c 1,0 2,1 3,1 1,1 2,2 3,4 0,1 1,4 1,6 0,3 0,6 0,10 z"
       inkscape:connector-curvature="0"
       style="fill:#756c62;fill-rule:nonzero" /><path
       id="path6819"
       class="fil1"
       d="m 3274.531,4300.5807 c 0,10 -2,18 -5,25 -3,8 -9,14 -16,18 -7,5 -16,9 -26,11 -11,3 -23,4 -38,4 -5,0 -9,0 -13,0 -4,0 -8,0 -12,0 -4,-1 -8,-1 -11,-1 -4,0 -8,-1 -13,-1 -5,-1 -10,-2 -12,-5 -2,-3 -4,-8 -4,-14 v -143 c 0,-6 2,-10 4,-13 2,-3 6,-5 10,-5 3,-1 7,-1 11,-1 4,0 8,-1 13,-1 4,0 9,0 14,0 5,0 10,0 15,0 13,0 25,1 34,2 10,2 17,5 24,9 6,4 10,8 13,14 3,5 5,12 5,19 0,10 -3,19 -8,25 -6,7 -13,12 -23,14 12,2 22,7 28,15 7,7 10,16 10,28 z m -50,-73 c 0,-4 -1,-7 -2,-9 -1,-3 -3,-5 -6,-7 -2,-2 -6,-3 -10,-4 -4,-1 -9,-1 -15,-1 -5,0 -9,0 -13,0 -4,0 -8,1 -11,1 v 42 h 25 c 10,0 18,-2 24,-6 5,-4 8,-9 8,-16 z m 5,73 c 0,-4 -1,-7 -2,-10 -2,-3 -4,-6 -7,-8 -3,-2 -7,-3 -11,-4 -5,-1 -11,-2 -18,-2 h -24 v 48 c 2,0 4,1 7,1 2,0 4,0 6,0 2,0 4,0 6,0 3,1 5,1 6,1 7,0 12,-1 17,-2 4,-1 8,-3 11,-5 3,-3 5,-5 7,-8 1,-4 2,-7 2,-11 z"
       inkscape:connector-curvature="0"
       style="fill:#756c62;fill-rule:nonzero" /><path
       id="path6821"
       class="fil1"
       d="m 3402.531,4355.5807 -20,59 c -1,3 -4,5 -9,7 -5,1 -12,2 -22,2 -4,0 -8,0 -11,-1 -3,0 -5,-1 -7,-2 -1,-1 -2,-2 -2,-4 0,-1 0,-3 1,-5 l 22,-56 c -2,0 -3,-2 -5,-3 -1,-2 -2,-3 -3,-5 l -56,-153 c -1,-4 -2,-8 -2,-10 0,-2 1,-4 2,-5 2,-2 4,-3 8,-3 3,-1 8,-1 13,-1 6,0 10,0 13,0 3,1 5,1 7,2 2,1 3,2 4,3 1,2 1,4 2,7 l 39,111 v 0 l 35,-113 c 1,-4 2,-6 3,-7 1,-1 3,-2 6,-2 2,-1 7,-1 14,-1 5,0 10,0 13,1 3,0 6,1 8,3 1,1 2,3 2,5 0,2 0,5 -1,8 z"
       inkscape:connector-curvature="0"
       style="fill:#756c62;fill-rule:nonzero" /><path
       id="path6823"
       class="fil1"
       d="m 3730.531,4264.5807 c 0,14 -2,27 -5,38 -4,12 -10,22 -17,31 -8,8 -17,15 -27,19 -11,5 -23,7 -37,7 -14,0 -25,-1 -35,-5 -10,-3 -19,-8 -25,-14 -7,-7 -13,-15 -16,-25 -4,-10 -6,-21 -7,-33 h -30 v 67 c 0,1 -1,2 -1,3 -1,1 -2,2 -4,3 -2,0 -4,1 -7,1 -3,0 -7,0 -11,0 -5,0 -9,0 -12,0 -2,0 -5,-1 -7,-1 -1,-1 -3,-2 -3,-3 -1,-1 -1,-2 -1,-3 v -166 c 0,-2 0,-3 1,-4 0,-1 2,-1 3,-2 2,-1 5,-1 7,-1 3,-1 7,-1 12,-1 4,0 8,0 11,1 3,0 5,0 7,1 2,1 3,1 4,2 0,1 1,2 1,4 v 64 h 30 c 2,-12 4,-22 9,-31 4,-9 9,-17 16,-24 7,-6 16,-11 26,-15 10,-3 22,-5 35,-5 14,0 26,2 36,6 11,5 20,11 27,18 7,8 12,18 15,29 4,12 5,24 5,39 z m -47,2 c 0,-8 -1,-16 -2,-23 -1,-6 -3,-12 -6,-17 -3,-6 -7,-10 -12,-12 -4,-3 -11,-5 -18,-5 -7,0 -12,1 -17,4 -5,3 -9,7 -13,12 -3,5 -5,10 -7,17 -1,7 -2,15 -2,23 0,9 1,16 2,23 1,7 3,13 6,18 3,5 6,9 11,12 5,3 11,4 19,4 6,0 12,-1 16,-3 5,-3 9,-6 13,-11 3,-4 6,-10 7,-17 2,-8 3,-16 3,-25 z"
       inkscape:connector-curvature="0"
       style="fill:#756c62;fill-rule:nonzero" /><path
       id="path6825"
       class="fil1"
       d="m 4034.531,4411.5807 c 0,1 -1,1 -1,2 -1,1 -2,1 -4,2 -1,0 -3,1 -6,1 -2,0 -5,0 -9,0 -4,0 -7,0 -9,0 -3,0 -5,-1 -7,-1 -1,0 -2,-1 -3,-2 -1,0 -1,-1 -1,-2 v -56 h -214 c -5,0 -8,-1 -10,-4 -2,-2 -3,-6 -3,-11 v -157 c 0,-2 0,-3 1,-4 1,-1 2,-1 4,-2 2,-1 4,-1 7,-1 3,-1 7,-1 11,-1 5,0 8,0 11,1 3,0 5,0 7,1 2,1 3,1 3,2 1,1 1,2 1,4 v 133 h 52 v -133 c 0,-2 1,-3 1,-4 1,-1 2,-1 3,-2 2,-1 4,-1 7,-1 3,-1 6,-1 11,-1 4,0 8,0 11,1 3,0 5,0 7,1 1,1 3,1 3,2 1,1 1,2 1,4 v 133 h 52 v -133 c 0,-2 0,-3 1,-4 1,-1 2,-1 4,-2 1,-1 4,-1 7,-1 2,-1 6,-1 10,-1 5,0 9,0 12,1 3,0 5,0 7,1 2,1 3,1 4,2 0,1 1,2 1,4 v 133 h 18 c 4,0 6,1 8,2 1,1 2,4 2,7 z"
       inkscape:connector-curvature="0"
       style="fill:#756c62;fill-rule:nonzero" /><path
       id="path6827"
       class="fil1"
       d="m 4225.531,4350.5807 c 0,1 0,2 -1,3 -1,1 -2,1 -4,2 -1,0 -4,1 -6,1 -3,0 -7,0 -11,0 -5,0 -8,0 -11,0 -3,0 -6,-1 -8,-1 -2,-1 -3,-1 -4,-2 -1,-1 -1,-2 -1,-3 v -75 c 0,-5 0,-10 0,-16 1,-5 1,-11 2,-16 -3,5 -6,10 -10,15 -3,5 -7,10 -10,15 l -55,76 c -1,2 -2,3 -3,4 -1,1 -3,1 -4,2 -2,1 -4,1 -6,1 -2,0 -5,0 -9,0 -4,0 -8,0 -11,0 -2,0 -4,-1 -6,-1 -2,-1 -3,-1 -4,-2 0,-1 -1,-2 -1,-4 v -167 c 0,-1 1,-2 1,-3 1,-1 2,-1 4,-2 2,-1 4,-1 7,-1 3,-1 7,-1 11,-1 9,0 15,1 18,2 4,1 6,3 6,5 v 74 c 0,5 -1,11 -1,16 0,6 -1,11 -1,16 2,-5 5,-10 8,-15 4,-5 7,-9 10,-14 l 56,-77 c 1,-1 2,-2 3,-3 1,-1 2,-2 4,-2 2,-1 4,-1 6,-1 3,-1 6,-1 9,-1 5,0 8,0 11,1 3,0 5,0 7,1 1,0 2,1 3,2 1,1 1,2 1,4 z"
       inkscape:connector-curvature="0"
       style="fill:#756c62;fill-rule:nonzero" /><path
       id="path6829"
       class="fil1"
       d="m 4413.531,4346.5807 c 1,2 1,4 1,5 0,1 -1,2 -2,3 -2,1 -5,2 -8,2 -4,0 -9,0 -14,0 -6,0 -10,0 -14,0 -3,0 -6,0 -7,-1 -2,-1 -4,-1 -5,-2 -1,-1 -1,-2 -2,-3 l -30,-59 -30,59 c -1,1 -1,2 -2,3 -1,1 -2,1 -4,2 -2,1 -4,1 -8,1 -3,0 -7,0 -12,0 -5,0 -10,0 -13,0 -3,0 -5,-1 -7,-2 -1,-1 -2,-2 -2,-3 0,-1 0,-3 1,-5 l 46,-82 -42,-77 c -1,-2 -2,-4 -2,-6 0,-1 1,-3 3,-3 1,-1 4,-2 7,-2 4,-1 8,-1 14,-1 6,0 10,0 13,0 3,1 6,1 8,1 2,1 3,1 4,2 1,1 1,2 2,3 l 29,56 29,-56 c 0,-1 1,-2 1,-2 1,-1 2,-2 4,-2 2,-1 4,-1 6,-1 3,-1 7,-1 12,-1 5,0 9,0 13,1 3,0 5,0 7,1 1,1 2,2 2,4 0,1 -1,3 -2,6 l -41,75 z"
       inkscape:connector-curvature="0"
       style="fill:#756c62;fill-rule:nonzero" /><path
       id="path6831"
       class="fil1"
       d="m 4651.531,4322.5807 c 0,4 0,6 0,9 0,2 -1,4 -1,5 0,2 -1,3 -1,4 0,1 -1,2 -3,3 -1,2 -4,4 -7,6 -4,2 -8,3 -12,5 -5,2 -10,3 -15,4 -5,1 -11,1 -16,1 -13,0 -24,-1 -34,-5 -10,-4 -18,-10 -24,-18 -7,-8 -12,-17 -15,-29 -4,-11 -5,-24 -5,-38 0,-17 2,-31 6,-43 4,-12 10,-22 17,-30 7,-8 16,-14 26,-18 10,-4 21,-6 33,-6 5,0 10,1 14,1 5,1 9,2 13,4 5,1 8,3 11,5 4,2 6,3 7,5 2,1 3,2 3,3 1,1 1,2 1,4 1,1 1,3 1,5 0,3 0,5 0,8 0,8 0,13 -1,16 -2,3 -3,4 -5,4 -2,0 -4,-1 -7,-3 -2,-1 -5,-3 -8,-5 -3,-2 -7,-4 -11,-6 -5,-2 -10,-3 -16,-3 -12,0 -21,5 -28,14 -6,10 -9,23 -9,42 0,9 1,16 2,23 2,7 4,13 7,17 4,5 7,8 12,11 5,2 10,3 17,3 6,0 11,-1 16,-3 4,-2 8,-4 12,-6 3,-3 6,-5 8,-7 3,-2 5,-3 6,-3 1,0 2,1 3,1 1,1 1,2 2,4 0,2 1,4 1,6 0,3 0,6 0,10 z"
       inkscape:connector-curvature="0"
       style="fill:#756c62;fill-rule:nonzero" /><path
       id="path6833"
       class="fil1"
       d="m 4779.531,4355.5807 -20,59 c -1,3 -4,5 -9,7 -5,1 -12,2 -21,2 -5,0 -9,0 -12,-1 -3,0 -5,-1 -6,-2 -2,-1 -3,-2 -3,-4 0,-1 1,-3 1,-5 l 22,-56 c -1,0 -3,-2 -4,-3 -1,-2 -2,-3 -3,-5 l -56,-153 c -2,-4 -2,-8 -2,-10 0,-2 0,-4 2,-5 1,-2 4,-3 7,-3 4,-1 8,-1 14,-1 5,0 9,0 12,0 3,1 6,1 7,2 2,1 3,2 4,3 1,2 2,4 3,7 l 38,111 h 1 l 35,-113 c 0,-4 1,-6 3,-7 1,-1 3,-2 5,-2 3,-1 8,-1 14,-1 6,0 10,0 14,1 3,0 6,1 7,3 2,1 3,3 3,5 0,2 -1,5 -2,8 z"
       inkscape:connector-curvature="0"
       style="fill:#756c62;fill-rule:nonzero" /><path
       id="path6835"
       class="fil1"
       d="m 5025.531,4264.5807 c 0,14 -2,27 -6,39 -4,12 -10,22 -18,30 -8,9 -17,15 -28,20 -11,4 -23,6 -36,6 -14,0 -27,-2 -37,-6 -11,-5 -19,-12 -26,-21 -7,-9 -12,-21 -15,-35 -3,-14 -5,-31 -5,-50 0,-14 1,-27 2,-39 2,-12 4,-23 7,-33 2,-10 6,-19 10,-27 4,-8 8,-14 12,-18 4,-5 9,-9 13,-11 4,-3 8,-6 13,-8 5,-2 10,-4 16,-6 6,-1 13,-3 20,-4 l 58,-8 c 2,-1 4,-1 5,0 2,0 3,0 4,2 0,1 1,3 1,6 0,3 0,6 0,11 0,4 0,7 0,10 0,2 -1,4 -1,6 -1,2 -2,3 -3,4 -2,2 -3,2 -5,2 l -54,9 c -5,0 -9,1 -13,2 -4,1 -7,2 -10,3 -3,2 -5,3 -8,5 -2,1 -4,3 -6,5 -2,2 -4,5 -5,8 -2,3 -4,7 -5,11 -1,4 -2,8 -3,12 -1,5 -2,10 -2,15 3,-4 7,-7 11,-10 4,-3 8,-5 13,-7 4,-2 9,-4 14,-5 6,-1 11,-2 17,-2 12,0 22,2 31,6 9,4 16,9 22,17 6,7 10,16 13,26 3,10 4,22 4,35 z m -47,3 c 0,-7 0,-14 -1,-20 -2,-6 -4,-11 -6,-15 -3,-4 -7,-8 -11,-10 -5,-3 -10,-4 -16,-4 -4,0 -8,0 -12,1 -3,2 -7,3 -10,5 -3,2 -7,5 -10,8 -3,3 -7,6 -10,10 0,2 0,3 0,5 0,2 0,4 0,5 0,12 0,22 2,31 1,8 3,16 6,21 3,6 7,10 12,13 5,3 10,4 17,4 7,0 12,-1 17,-4 5,-2 9,-6 12,-10 4,-5 6,-11 8,-17 1,-7 2,-15 2,-23 z"
       inkscape:connector-curvature="0"
       style="fill:#756c62;fill-rule:nonzero" /><path
       id="path6837"
       class="fil1"
       d="m 5133.531,4234.5807 c 4,0 8,-1 13,-1 4,0 9,0 15,0 13,0 25,1 35,4 10,3 18,7 25,12 6,5 11,12 14,19 3,7 5,16 5,25 0,10 -2,19 -5,27 -4,8 -9,15 -16,21 -8,6 -17,10 -28,13 -11,4 -25,5 -40,5 -4,0 -8,0 -12,0 -5,0 -9,0 -13,0 -4,-1 -8,-1 -12,-1 -4,0 -7,-1 -11,-1 -6,-1 -10,-2 -12,-5 -3,-3 -4,-8 -4,-14 v -120 h -40 c -1,0 -2,0 -3,-1 -1,-1 -2,-2 -2,-4 -1,-2 -1,-4 -2,-6 0,-3 0,-6 0,-10 0,-8 0,-13 2,-16 1,-3 3,-5 5,-5 h 75 c 4,0 6,1 8,3 2,2 3,5 3,8 z m 59,62 c 0,-5 -1,-9 -2,-12 -2,-3 -4,-6 -7,-9 -2,-2 -6,-4 -11,-5 -5,-1 -10,-2 -17,-2 -4,0 -8,0 -12,0 -4,0 -7,1 -10,1 v 54 c 3,0 7,0 11,1 3,0 7,0 12,0 12,0 21,-2 27,-8 6,-4 9,-11 9,-20 z"
       inkscape:connector-curvature="0"
       style="fill:#756c62;fill-rule:nonzero" /><path
       id="path6839"
       class="fil1"
       d="m 5421.531,4261.5807 c 0,6 -1,10 -3,13 -3,2 -6,4 -11,4 h -99 c 0,7 1,13 2,19 2,6 5,11 8,15 4,4 8,7 14,9 6,2 12,3 20,3 8,0 16,-1 22,-2 6,-1 11,-2 15,-4 5,-1 9,-2 12,-4 2,-1 5,-1 7,-1 1,0 2,0 2,0 1,1 2,1 2,3 1,1 1,2 1,4 0,2 1,5 1,8 0,3 -1,5 -1,7 0,2 0,4 0,5 0,1 -1,2 -1,3 -1,1 -1,2 -2,3 -1,1 -3,2 -7,4 -3,1 -8,3 -13,4 -6,1 -12,3 -19,4 -7,1 -15,1 -23,1 -14,0 -27,-1 -38,-5 -11,-4 -20,-9 -27,-17 -8,-8 -13,-17 -17,-29 -3,-11 -5,-25 -5,-40 0,-15 2,-28 6,-40 3,-12 9,-22 16,-30 7,-9 16,-15 26,-19 11,-5 22,-7 35,-7 14,0 26,2 35,6 10,4 18,10 24,17 6,8 11,16 14,26 3,10 4,21 4,33 z m -44,-13 c 0,-14 -2,-24 -8,-31 -6,-8 -14,-12 -26,-12 -6,0 -11,1 -15,4 -4,2 -8,5 -11,9 -3,4 -5,8 -6,13 -2,5 -3,11 -3,17 z"
       inkscape:connector-curvature="0"
       style="fill:#756c62;fill-rule:nonzero" /><path
       id="path6841"
       class="fil1"
       d="m 5613.531,4351.5807 c 0,1 -1,2 -1,2 -1,1 -2,2 -4,2 -2,0 -4,1 -7,1 -3,0 -7,0 -11,0 -5,0 -9,0 -13,0 -3,0 -6,-1 -8,-1 -2,0 -3,-1 -4,-2 -1,-1 -1,-2 -2,-3 l -15,-40 c -2,-5 -4,-10 -6,-13 -2,-4 -4,-7 -7,-9 -3,-2 -6,-4 -9,-5 -3,-1 -7,-1 -11,-1 h -9 v 68 c 0,1 -1,2 -2,2 -1,1 -2,2 -4,3 -2,0 -4,1 -7,1 -3,0 -6,0 -11,0 -4,0 -7,0 -10,0 -3,0 -6,-1 -7,-1 -2,-1 -4,-2 -4,-3 -1,0 -2,-1 -2,-2 v -168 c 0,-1 1,-2 2,-3 0,-1 2,-1 4,-2 1,-1 4,-1 7,-1 3,-1 6,-1 10,-1 5,0 8,0 11,1 3,0 5,0 7,1 2,1 3,1 4,2 1,1 2,2 2,3 v 64 h 9 c 4,0 7,0 10,-1 3,-1 6,-3 8,-5 3,-2 5,-5 7,-9 2,-3 5,-8 6,-13 l 14,-36 c 1,-1 1,-2 2,-3 1,-1 2,-2 4,-2 2,-1 4,-1 7,-1 3,-1 8,-1 13,-1 4,0 8,0 11,1 3,0 5,0 6,1 2,0 3,1 4,1 0,1 1,2 1,3 0,1 0,3 -1,4 0,2 -1,5 -3,8 l -13,31 c -2,6 -5,12 -8,16 -2,5 -5,8 -8,11 -3,3 -6,5 -9,7 -4,2 -6,3 -9,4 v 1 c 4,1 7,3 10,5 4,2 7,4 10,7 3,3 6,7 8,11 3,5 6,10 8,16 l 16,37 c 1,2 2,3 2,5 1,1 1,2 1,3 0,1 1,2 1,2 0,1 0,1 0,2 z"
       inkscape:connector-curvature="0"
       style="fill:#756c62;fill-rule:nonzero" /><path
       id="path6843"
       class="fil1"
       d="m 5766.531,4197.5807 c 0,4 0,7 -1,10 0,3 0,5 -1,7 -1,1 -1,2 -2,3 -1,1 -2,1 -3,1 h -42 v 131 c 0,1 0,2 -1,3 0,1 -2,2 -3,3 -2,0 -4,1 -7,1 -3,0 -7,0 -12,0 -4,0 -8,0 -11,0 -2,0 -5,-1 -7,-1 -1,-1 -3,-2 -3,-3 -1,-1 -1,-2 -1,-3 v -131 h -41 c -2,0 -3,0 -3,-1 -1,-1 -2,-2 -3,-4 0,-1 -1,-3 -1,-6 0,-3 -1,-7 -1,-11 0,-3 1,-6 1,-9 0,-3 1,-5 1,-6 1,-2 2,-3 3,-4 0,0 2,-1 3,-1 h 128 c 1,0 2,1 3,1 1,1 1,2 2,4 1,1 1,4 1,6 1,3 1,6 1,10 z"
       inkscape:connector-curvature="0"
       style="fill:#756c62;fill-rule:nonzero" /><path
       id="path6845"
       class="fil1"
       d="m 5953.531,4264.5807 c 0,14 -2,27 -6,39 -4,12 -9,22 -17,30 -7,8 -16,15 -28,20 -11,4 -24,6 -39,6 -15,0 -27,-2 -38,-6 -11,-4 -20,-10 -27,-18 -7,-7 -12,-17 -15,-28 -4,-12 -5,-25 -5,-40 0,-14 1,-27 5,-38 4,-12 9,-22 17,-31 7,-8 17,-14 28,-19 11,-5 24,-7 39,-7 15,0 27,2 38,6 11,4 20,10 27,18 7,8 12,17 15,29 4,11 6,24 6,39 z m -48,2 c 0,-8 0,-16 -2,-23 -1,-7 -3,-13 -6,-18 -3,-5 -7,-9 -12,-12 -5,-2 -12,-4 -20,-4 -6,0 -12,1 -18,4 -5,2 -9,6 -12,11 -4,5 -6,11 -8,18 -1,7 -2,15 -2,23 0,9 0,16 2,23 1,7 3,13 6,18 3,5 7,9 13,12 5,3 11,4 19,4 7,0 13,-1 18,-4 5,-2 9,-6 13,-11 3,-5 5,-11 7,-17 1,-7 2,-15 2,-24 z"
       inkscape:connector-curvature="0"
       style="fill:#756c62;fill-rule:nonzero" /><path
       id="path6847"
       class="fil1"
       d="m 6139.531,4300.5807 c 0,10 -2,18 -5,25 -4,8 -9,14 -16,18 -7,5 -16,9 -27,11 -10,3 -23,4 -37,4 -5,0 -9,0 -13,0 -4,0 -8,0 -12,0 -4,-1 -8,-1 -12,-1 -3,0 -8,-1 -12,-1 -6,-1 -10,-2 -12,-5 -3,-3 -4,-8 -4,-14 v -143 c 0,-6 1,-10 4,-13 2,-3 5,-5 10,-5 3,-1 7,-1 11,-1 4,0 8,-1 13,-1 4,0 9,0 14,0 5,0 10,0 15,0 13,0 24,1 34,2 9,2 17,5 23,9 6,4 11,8 14,14 3,5 5,12 5,19 0,10 -3,19 -8,25 -6,7 -13,12 -23,14 12,2 22,7 28,15 7,7 10,16 10,28 z m -51,-73 c 0,-4 0,-7 -1,-9 -1,-3 -3,-5 -6,-7 -2,-2 -6,-3 -10,-4 -4,-1 -9,-1 -15,-1 -5,0 -9,0 -13,0 -4,0 -8,1 -11,1 v 42 h 25 c 10,0 18,-2 23,-6 6,-4 8,-9 8,-16 z m 5,73 c 0,-4 0,-7 -2,-10 -1,-3 -3,-6 -6,-8 -3,-2 -7,-3 -12,-4 -5,-1 -10,-2 -17,-2 h -24 v 48 c 2,0 4,1 6,1 2,0 5,0 7,0 2,0 4,0 6,0 2,1 4,1 6,1 6,0 12,-1 17,-2 4,-1 8,-3 11,-5 3,-3 5,-5 6,-8 2,-4 2,-7 2,-11 z"
       inkscape:connector-curvature="0"
       style="fill:#756c62;fill-rule:nonzero" /><path
       id="51"
       class="fil1"
       d="m 2049.531,4678.5807 c 0,9 -2,17 -5,25 -4,7 -9,13 -16,18 -7,4 -16,8 -26,11 -11,2 -24,3 -38,3 -5,0 -9,0 -13,0 -4,0 -8,0 -12,0 -4,0 -8,0 -12,-1 -3,0 -8,0 -12,-1 -6,0 -10,-2 -12,-5 -3,-3 -4,-7 -4,-13 v -144 c 0,-5 1,-10 4,-13 2,-3 5,-4 10,-5 3,0 7,0 11,-1 4,0 8,0 13,0 4,-1 9,-1 14,-1 5,0 10,0 15,0 13,0 25,1 34,3 9,2 17,4 23,8 7,4 11,9 14,14 3,6 5,12 5,20 0,10 -3,18 -8,25 -6,7 -13,11 -23,13 12,3 22,7 28,15 7,7 10,17 10,29 z m -51,-74 c 0,-3 0,-6 -1,-9 -1,-2 -3,-5 -6,-6 -2,-2 -6,-4 -10,-5 -4,-1 -9,-1 -15,-1 -5,0 -9,0 -13,0 -4,1 -8,1 -11,1 v 42 h 25 c 10,0 18,-2 23,-5 6,-4 8,-10 8,-17 z m 5,73 c 0,-4 0,-7 -2,-10 -1,-3 -3,-6 -6,-8 -3,-2 -7,-3 -12,-4 -4,-1 -10,-1 -17,-1 h -24 v 47 c 2,1 4,1 6,1 3,0 5,0 7,1 2,0 4,0 6,0 2,0 4,0 6,0 6,0 12,-1 17,-2 4,-1 8,-3 11,-5 3,-2 5,-5 6,-8 2,-3 2,-7 2,-11 z"
       inkscape:connector-curvature="0"
       style="fill:#756c62;fill-rule:nonzero" /><path
       id="52"
       class="fil1"
       d="m 2249.531,4642.5807 c 0,14 -1,27 -5,38 -4,12 -9,22 -17,30 -7,9 -17,15 -28,20 -11,5 -24,7 -39,7 -15,0 -27,-2 -38,-6 -11,-4 -20,-10 -27,-18 -7,-8 -12,-18 -15,-29 -4,-11 -6,-24 -6,-39 0,-14 2,-27 6,-39 4,-12 9,-22 17,-30 7,-9 16,-15 28,-20 11,-4 24,-7 39,-7 15,0 27,2 38,7 11,4 20,9 27,17 7,8 12,18 15,29 4,12 5,25 5,40 z m -47,1 c 0,-8 0,-15 -2,-22 -1,-7 -3,-13 -6,-18 -3,-5 -7,-9 -12,-12 -6,-3 -12,-5 -20,-5 -7,0 -13,2 -18,4 -5,3 -9,7 -12,11 -4,5 -6,11 -8,18 -2,7 -2,15 -2,24 0,8 0,16 2,22 1,7 3,13 6,18 3,6 7,9 12,12 6,3 12,4 20,4 7,0 13,-1 18,-3 5,-3 9,-7 12,-11 4,-5 6,-11 8,-18 1,-7 2,-15 2,-24 z"
       inkscape:connector-curvature="0"
       style="fill:#756c62;fill-rule:nonzero" /><path
       id="53"
       class="fil1"
       d="m 2808.531,4728.5807 c 0,1 0,2 -1,3 0,0 -1,1 -3,1 -2,1 -4,1 -7,1 -3,1 -7,1 -11,1 -5,0 -10,0 -13,-1 -3,0 -6,0 -8,-1 -2,0 -3,-1 -4,-2 -1,0 -1,-1 -2,-3 l -15,-39 c -2,-6 -4,-10 -6,-14 -2,-3 -5,-6 -7,-9 -3,-2 -6,-3 -9,-4 -3,-1 -7,-2 -11,-2 h -10 v 68 c 0,1 0,2 -1,3 -1,1 -2,1 -4,2 -2,1 -4,1 -7,1 -3,1 -7,1 -11,1 -4,0 -8,0 -11,-1 -2,0 -5,0 -7,-1 -1,-1 -3,-1 -4,-2 0,-1 -1,-2 -1,-3 v -168 c 0,-1 1,-2 1,-3 1,0 3,-1 4,-2 2,0 5,-1 7,-1 3,0 7,0 11,0 4,0 8,0 11,0 3,0 5,1 7,1 2,1 3,2 4,2 1,1 1,2 1,3 v 65 h 10 c 3,0 7,-1 10,-2 3,-1 6,-2 8,-5 3,-2 5,-5 7,-8 2,-4 4,-8 6,-14 l 14,-35 c 0,-2 1,-3 2,-4 1,-1 2,-1 4,-2 2,0 4,-1 7,-1 3,0 7,0 12,0 5,0 9,0 12,0 2,0 5,1 6,1 2,0 3,1 4,2 0,0 1,1 1,2 0,2 -1,3 -1,5 -1,2 -1,4 -3,7 l -13,32 c -2,6 -5,11 -8,16 -3,4 -6,8 -9,11 -3,2 -6,5 -9,6 -3,2 -6,4 -8,5 v 0 c 3,2 7,3 10,5 3,2 7,4 10,7 3,3 5,7 8,12 3,4 6,9 8,15 l 16,38 c 1,1 1,3 2,4 0,1 1,2 1,3 0,1 0,2 0,3 0,0 0,1 0,1 z"
       inkscape:connector-curvature="0"
       style="fill:#756c62;fill-rule:nonzero" /><path
       id="54"
       class="fil1"
       d="m 2990.531,4678.5807 c 0,9 -1,17 -5,25 -3,7 -8,13 -16,18 -7,4 -15,8 -26,11 -11,2 -23,3 -38,3 -4,0 -9,0 -13,0 -4,0 -8,0 -12,0 -4,0 -7,0 -11,-1 -4,0 -8,0 -13,-1 -5,0 -9,-2 -12,-5 -2,-3 -3,-7 -3,-13 v -144 c 0,-5 1,-10 3,-13 2,-3 6,-4 11,-5 3,0 6,0 10,-1 4,0 8,0 13,0 5,-1 9,-1 14,-1 5,0 11,0 16,0 13,0 24,1 33,3 10,2 18,4 24,8 6,4 10,9 13,14 3,6 5,12 5,20 0,10 -3,18 -8,25 -5,7 -13,11 -23,13 13,3 22,7 29,15 6,7 9,17 9,29 z m -50,-74 c 0,-3 -1,-6 -2,-9 -1,-2 -3,-5 -5,-6 -3,-2 -6,-4 -10,-5 -5,-1 -10,-1 -16,-1 -4,0 -9,0 -13,0 -4,1 -7,1 -10,1 v 42 h 24 c 11,0 18,-2 24,-5 5,-4 8,-10 8,-17 z m 5,73 c 0,-4 -1,-7 -2,-10 -1,-3 -4,-6 -7,-8 -3,-2 -6,-3 -11,-4 -5,-1 -11,-1 -17,-1 h -24 v 47 c 2,1 4,1 6,1 2,0 4,0 6,1 2,0 5,0 7,0 2,0 4,0 5,0 7,0 12,-1 17,-2 5,-1 8,-3 11,-5 3,-2 5,-5 7,-8 1,-3 2,-7 2,-11 z"
       inkscape:connector-curvature="0"
       style="fill:#756c62;fill-rule:nonzero" /><path
       id="55"
       class="fil1"
       d="m 3080.531,4706.5807 c 0,11 -2,19 -6,23 -4,4 -11,6 -21,6 -11,0 -18,-2 -22,-6 -4,-4 -5,-11 -5,-22 0,-12 2,-20 5,-24 4,-4 12,-6 22,-6 10,0 17,2 21,6 4,4 6,12 6,23 z"
       inkscape:connector-curvature="0"
       style="fill:#756c62;fill-rule:nonzero" /><path
       id="56"
       class="fil1"
       d="m 3362.531,4713.5807 c 0,3 0,6 0,9 0,3 -1,5 -1,6 -1,2 -2,3 -3,4 -1,0 -2,1 -3,1 h -136 c -3,0 -5,-1 -7,-1 -2,-1 -4,-2 -5,-3 -1,-1 -2,-3 -3,-6 0,-3 0,-7 0,-11 0,-4 0,-7 0,-10 1,-3 1,-6 2,-8 1,-3 2,-5 4,-7 1,-2 3,-4 6,-7 l 41,-45 c 8,-8 15,-16 20,-24 5,-7 9,-13 11,-19 3,-6 5,-11 6,-16 1,-5 2,-10 2,-15 0,-4 -1,-8 -2,-11 -1,-4 -3,-7 -6,-10 -2,-3 -5,-5 -9,-6 -4,-2 -8,-2 -14,-2 -7,0 -13,0 -19,2 -5,2 -10,4 -14,7 -5,2 -8,4 -11,6 -3,2 -5,3 -6,3 -2,0 -3,-1 -3,-1 -1,-1 -2,-2 -2,-4 -1,-2 -1,-4 -1,-7 -1,-3 -1,-7 -1,-11 0,-3 0,-5 0,-7 1,-2 1,-4 1,-5 1,-1 1,-3 2,-4 0,-1 1,-2 3,-4 1,-1 4,-3 8,-5 4,-3 9,-5 15,-7 6,-2 13,-4 20,-6 7,-1 15,-2 23,-2 12,0 23,2 32,5 9,3 17,8 23,13 6,6 11,13 14,20 3,8 4,16 4,25 0,8 -1,16 -2,24 -2,7 -5,15 -9,24 -5,9 -11,19 -20,29 -8,11 -19,23 -33,37 l -28,29 h 93 c 1,0 3,0 4,1 1,1 2,2 2,4 1,1 2,3 2,6 0,2 0,5 0,9 z"
       inkscape:connector-curvature="0"
       style="fill:#756c62;fill-rule:nonzero" /><path
       id="57"
       class="fil1"
       d="m 3557.531,4611.5807 c 0,19 -1,37 -4,52 -3,16 -8,29 -15,40 -7,11 -16,19 -27,25 -11,6 -25,9 -41,9 -16,0 -29,-3 -40,-9 -11,-5 -19,-13 -25,-24 -6,-11 -11,-24 -13,-39 -3,-15 -4,-33 -4,-52 0,-19 1,-37 5,-52 3,-16 8,-29 15,-40 7,-11 15,-19 26,-25 12,-6 25,-9 41,-9 16,0 30,3 40,9 11,5 19,14 26,24 6,11 10,24 13,39 2,15 3,33 3,52 z m -48,3 c 0,-12 0,-22 -1,-31 -1,-8 -2,-16 -3,-22 -1,-7 -3,-12 -5,-17 -1,-4 -4,-8 -7,-10 -2,-3 -5,-5 -9,-6 -3,-1 -7,-2 -11,-2 -7,0 -13,2 -18,5 -5,4 -9,9 -11,16 -3,7 -5,16 -6,27 -1,10 -2,23 -2,37 0,17 1,31 2,42 2,11 4,20 7,27 2,7 6,11 11,14 4,3 10,4 16,4 5,0 9,-1 13,-2 4,-2 7,-4 10,-7 2,-3 5,-7 6,-12 2,-5 4,-10 5,-16 1,-7 2,-14 2,-22 1,-7 1,-16 1,-25 z"
       inkscape:connector-curvature="0"
       style="fill:#756c62;fill-rule:nonzero" /><path
       id="58"
       class="fil1"
       d="m 3740.531,4714.5807 c 0,4 0,6 0,9 -1,2 -1,4 -2,6 -1,1 -1,2 -2,3 -1,0 -2,1 -3,1 h -131 c -1,0 -2,-1 -3,-1 -1,-1 -2,-2 -2,-3 -1,-2 -1,-4 -2,-6 0,-3 0,-5 0,-9 0,-4 0,-7 0,-9 0,-2 1,-4 2,-6 0,-1 1,-2 2,-3 1,-1 2,-1 3,-1 h 44 v -157 l -38,21 c -3,2 -5,3 -7,3 -2,0 -3,0 -4,-1 -1,-1 -2,-3 -2,-6 -1,-2 -1,-6 -1,-11 0,-3 0,-5 0,-7 1,-2 1,-4 1,-5 1,-1 2,-2 2,-3 1,-1 2,-2 4,-3 l 51,-34 c 0,0 1,-1 2,-1 1,0 2,0 4,-1 1,0 3,0 5,0 3,0 6,0 10,0 4,0 8,0 11,0 3,0 5,1 6,1 2,1 3,1 3,2 1,1 1,2 1,3 v 199 h 39 c 1,0 2,0 3,1 1,1 1,2 2,3 1,2 1,4 2,6 0,2 0,5 0,9 z"
       inkscape:connector-curvature="0"
       style="fill:#756c62;fill-rule:nonzero" /><path
       id="59"
       class="fil1"
       d="m 3936.531,4668.5807 c 0,11 -2,21 -6,29 -3,9 -9,16 -16,22 -7,6 -16,10 -27,13 -11,3 -23,5 -37,5 -14,0 -25,-1 -36,-4 -10,-3 -18,-7 -25,-12 -7,-6 -12,-12 -15,-20 -4,-8 -6,-16 -6,-27 0,-6 1,-13 3,-19 3,-6 5,-11 9,-17 4,-5 9,-10 15,-14 6,-5 13,-9 21,-13 -7,-4 -12,-7 -17,-11 -5,-4 -9,-9 -13,-14 -4,-4 -6,-10 -8,-15 -2,-6 -3,-12 -3,-19 0,-10 2,-18 5,-26 4,-8 9,-15 15,-21 7,-6 15,-10 25,-13 10,-3 22,-5 35,-5 13,0 24,2 34,5 9,2 17,6 23,12 6,5 10,11 13,18 3,8 4,16 4,24 0,6 -1,12 -3,18 -2,5 -4,10 -8,15 -3,5 -7,10 -12,14 -5,5 -11,9 -17,12 7,4 14,9 20,13 6,4 10,9 15,14 4,6 7,11 9,17 2,6 3,12 3,19 z m -53,-117 c 0,-4 -1,-8 -2,-12 -1,-3 -3,-6 -6,-9 -2,-2 -6,-4 -9,-5 -4,-1 -9,-2 -14,-2 -10,0 -18,3 -23,7 -5,5 -7,12 -7,20 0,4 0,8 2,11 1,3 3,7 6,10 2,3 6,5 10,8 4,3 9,6 15,9 9,-5 16,-11 21,-17 4,-6 7,-13 7,-20 z m 5,120 c 0,-4 0,-9 -2,-12 -1,-4 -4,-8 -7,-11 -3,-3 -7,-7 -12,-10 -5,-3 -11,-6 -17,-9 -6,3 -11,6 -15,9 -5,3 -8,6 -11,10 -3,3 -5,7 -6,11 -2,3 -2,8 -2,12 0,9 3,17 9,22 6,5 15,8 28,8 12,0 21,-3 26,-8 6,-5 9,-13 9,-22 z"
       inkscape:connector-curvature="0"
       style="fill:#756c62;fill-rule:nonzero" /><path
       id="60"
       class="fil1"
       d="m 4161.531,4574.5807 c 0,4 0,7 0,10 0,3 -1,5 -1,6 -1,2 -2,3 -3,4 -1,1 -2,1 -3,1 h -53 v 131 c 0,2 0,3 -1,4 -1,1 -2,1 -4,2 -1,1 -4,1 -7,1 -3,1 -6,1 -11,1 -4,0 -8,0 -11,-1 -3,0 -5,0 -7,-1 -2,-1 -3,-1 -4,-2 -1,-1 -1,-2 -1,-4 v -157 c 0,-5 1,-9 3,-12 2,-2 6,-3 10,-3 h 86 c 1,0 2,0 3,1 1,0 2,2 3,3 0,2 1,4 1,7 0,2 0,5 0,9 z"
       inkscape:connector-curvature="0"
       style="fill:#756c62;fill-rule:nonzero" /><path
       id="61"
       class="fil1"
       d="m 4226.531,4706.5807 c 0,11 -2,19 -6,23 -4,4 -11,6 -21,6 -11,0 -18,-2 -22,-6 -4,-4 -6,-11 -6,-22 0,-12 2,-20 6,-24 4,-4 12,-6 22,-6 10,0 17,2 21,6 4,4 6,12 6,23 z"
       inkscape:connector-curvature="0"
       style="fill:#756c62;fill-rule:nonzero" /><path
       id="62"
       class="fil1"
       d="m 2422.531,4726.5807 c 0,1 -1,2 -2,3 0,1 -2,2 -3,3 -2,0 -5,1 -8,1 -3,1 -7,1 -12,1 -4,0 -8,0 -11,-1 -3,0 -6,-1 -8,-1 -1,-1 -3,-2 -4,-3 0,-1 -1,-2 -1,-3 v -228 c 0,-1 1,-2 1,-3 1,-1 3,-2 5,-3 1,0 4,-1 7,-1 3,-1 7,-1 11,-1 5,0 9,0 12,1 3,0 6,1 8,1 1,1 3,2 3,3 1,1 2,2 2,3 z"
       inkscape:connector-curvature="0"
       style="fill:#756c62;fill-rule:nonzero" /><path
       id="63"
       class="fil1"
       d="m 2522.531,4726.5807 c 0,1 -1,2 -2,3 0,1 -2,2 -4,3 -1,0 -4,1 -7,1 -3,1 -7,1 -12,1 -4,0 -8,0 -11,-1 -3,0 -6,-1 -8,-1 -1,-1 -3,-2 -4,-3 0,-1 -1,-2 -1,-3 v -228 c 0,-1 1,-2 1,-3 1,-1 3,-2 4,-3 2,0 5,-1 8,-1 3,-1 7,-1 11,-1 5,0 9,0 12,1 3,0 6,1 7,1 2,1 4,2 4,3 1,1 2,2 2,3 z"
       inkscape:connector-curvature="0"
       style="fill:#756c62;fill-rule:nonzero" /><rect
       style="fill:url(#linearGradient8189);fill-opacity:1;stroke:none;stroke-width:999.99273682;stroke-miterlimit:4;stroke-dasharray:none"
       id="rect8171"
       width="340.50183"
       height="4126.1494"
       x="-2072.0112"
       y="5418.6426" /><rect
       style="fill:#26a8ac;fill-opacity:1;stroke:none;stroke-width:999.99279785;stroke-miterlimit:4;stroke-dasharray:none"
       id="rect8195"
       width="5159.375"
       height="31.458958"
       x="1542.0386"
       y="2646.8459" /><rect
       style="fill:#756c62;fill-opacity:1;stroke:none;stroke-width:999.99273682;stroke-miterlimit:4;stroke-dasharray:none"
       id="rect8207"
       width="4630.2085"
       height="31.461863"
       x="1541.6313"
       y="2692.884" /><rect
       style="fill:#a64c66;fill-opacity:1;stroke:none;stroke-width:999.99273682;stroke-miterlimit:4;stroke-dasharray:none"
       id="rect8209"
       width="4233.3335"
       height="31.45896"
       x="1540.6481"
       y="2740.4868" /><polygon
       transform="matrix(-1.0305497,0.12801224,0.23420766,1.885465,-2388.3659,3792.1912)"
       id="polygon8213"
       mask="url(#id0)"
       points="1534,3339 7561,1633 7561,3369 1534,3783 "
       style="fill:#26a8ac;fill-opacity:1;stroke-width:0.7119202"
       class="fil0" /><rect
       style="fill:#a64c66;fill-opacity:1;stroke:none;stroke-width:999.99267578;stroke-miterlimit:4;stroke-dasharray:none"
       id="rect8215"
       width="440.46609"
       height="1258.4746"
       x="-4436.123"
       y="7110.3794" /><circle
       id="path8260"
       style="fill:#000000;stroke:none"
       cx="-3842.2803"
       cy="1608.4857"
       r="1.5" /></g></svg>